<?xml version="1.0" encoding="utf-8" standalone="no"?>
<!DOCTYPE svg PUBLIC "-//W3C//DTD SVG 1.1//EN"
  "http://www.w3.org/Graphics/SVG/1.1/DTD/svg11.dtd">
<!-- Created with matplotlib (https://matplotlib.org/) -->
<svg height="720pt" version="1.1" viewBox="0 0 864 720" width="864pt" xmlns="http://www.w3.org/2000/svg" xmlns:xlink="http://www.w3.org/1999/xlink">
 <metadata>
  <rdf:RDF xmlns:cc="http://creativecommons.org/ns#" xmlns:dc="http://purl.org/dc/elements/1.1/" xmlns:rdf="http://www.w3.org/1999/02/22-rdf-syntax-ns#">
   <cc:Work>
    <dc:type rdf:resource="http://purl.org/dc/dcmitype/StillImage"/>
    <dc:date>2022-05-10T12:49:30.751355</dc:date>
    <dc:format>image/svg+xml</dc:format>
    <dc:creator>
     <cc:Agent>
      <dc:title>Matplotlib v3.3.2, https://matplotlib.org/</dc:title>
     </cc:Agent>
    </dc:creator>
   </cc:Work>
  </rdf:RDF>
 </metadata>
 <defs>
  <style type="text/css">*{stroke-linecap:butt;stroke-linejoin:round;}</style>
 </defs>
 <g id="figure_1">
  <g id="patch_1">
   <path d="M 0 720 
L 864 720 
L 864 0 
L 0 0 
z
" style="fill:none;"/>
  </g>
  <g id="axes_1">
   <g id="patch_2">
    <path d="M 70.69 213.746667 
L 422.28 213.746667 
L 422.28 39.44 
L 70.69 39.44 
z
" style="fill:#ffffff;"/>
   </g>
   <g id="PolyCollection_1">
    <defs>
     <path d="M 86.671364 -574.294801 
L 86.671364 -580.977326 
L 115.728388 -520.268208 
L 144.785413 -514.284295 
L 173.842438 -512.966672 
L 202.899463 -511.859297 
L 231.956488 -512.653666 
L 261.013512 -514.523074 
L 290.070537 -516.398999 
L 319.127562 -520.080493 
L 348.184587 -530.173315 
L 377.241612 -551.13165 
L 406.298636 -645.589232 
L 406.298636 -637.863512 
L 406.298636 -637.863512 
L 377.241612 -547.461166 
L 348.184587 -527.510794 
L 319.127562 -518.275734 
L 290.070537 -514.84267 
L 261.013512 -513.161316 
L 231.956488 -511.473445 
L 202.899463 -510.726327 
L 173.842438 -511.753318 
L 144.785413 -512.925791 
L 115.728388 -518.325171 
L 86.671364 -574.294801 
z
" id="m2c3e8d48a0" style="stroke:#011f5b;stroke-opacity:0.3;"/>
    </defs>
    <g clip-path="url(#pe676107576)">
     <use style="fill:#011f5b;fill-opacity:0.3;stroke:#011f5b;stroke-opacity:0.3;" x="0" xlink:href="#m2c3e8d48a0" y="720"/>
    </g>
   </g>
   <g id="PolyCollection_2">
    <defs>
     <path d="M 86.671364 -560.948658 
L 86.671364 -567.089607 
L 115.728388 -518.538284 
L 144.785413 -513.204477 
L 173.842438 -511.143736 
L 202.899463 -511.241783 
L 231.956488 -513.108339 
L 261.013512 -512.378199 
L 290.070537 -515.310059 
L 319.127562 -520.591157 
L 348.184587 -531.862975 
L 377.241612 -559.062207 
L 406.298636 -648.818906 
L 406.298636 -641.177325 
L 406.298636 -641.177325 
L 377.241612 -554.965031 
L 348.184587 -529.088596 
L 319.127562 -518.63145 
L 290.070537 -513.81986 
L 261.013512 -511.171056 
L 231.956488 -511.747028 
L 202.899463 -510.170197 
L 173.842438 -510.030769 
L 144.785413 -511.888366 
L 115.728388 -516.647247 
L 86.671364 -560.948658 
z
" id="m512c21a05b" style="stroke:#990000;stroke-opacity:0.3;"/>
    </defs>
    <g clip-path="url(#pe676107576)">
     <use style="fill:#990000;fill-opacity:0.3;stroke:#990000;stroke-opacity:0.3;" x="0" xlink:href="#m512c21a05b" y="720"/>
    </g>
   </g>
   <g id="matplotlib.axis_1">
    <g id="xtick_1">
     <g id="line2d_1">
      <defs>
       <path d="M 0 0 
L 0 3.5 
" id="mf53752da1b" style="stroke:#000000;stroke-width:0.8;"/>
      </defs>
      <g>
       <use style="stroke:#000000;stroke-width:0.8;" x="86.671364" xlink:href="#mf53752da1b" y="213.746667"/>
      </g>
     </g>
     <g id="text_1">
      <!-- 1 -->
      <g transform="translate(82.217614 231.384479)scale(0.14 -0.14)">
       <defs>
        <path d="M 12.40625 8.296875 
L 28.515625 8.296875 
L 28.515625 63.921875 
L 10.984375 60.40625 
L 10.984375 69.390625 
L 28.421875 72.90625 
L 38.28125 72.90625 
L 38.28125 8.296875 
L 54.390625 8.296875 
L 54.390625 0 
L 12.40625 0 
z
" id="DejaVuSans-49"/>
       </defs>
       <use xlink:href="#DejaVuSans-49"/>
      </g>
     </g>
    </g>
    <g id="xtick_2">
     <g id="line2d_2">
      <g>
       <use style="stroke:#000000;stroke-width:0.8;" x="144.785413" xlink:href="#mf53752da1b" y="213.746667"/>
      </g>
     </g>
     <g id="text_2">
      <!-- 3 -->
      <g transform="translate(140.331663 231.384479)scale(0.14 -0.14)">
       <defs>
        <path d="M 40.578125 39.3125 
Q 47.65625 37.796875 51.625 33 
Q 55.609375 28.21875 55.609375 21.1875 
Q 55.609375 10.40625 48.1875 4.484375 
Q 40.765625 -1.421875 27.09375 -1.421875 
Q 22.515625 -1.421875 17.65625 -0.515625 
Q 12.796875 0.390625 7.625 2.203125 
L 7.625 11.71875 
Q 11.71875 9.328125 16.59375 8.109375 
Q 21.484375 6.890625 26.8125 6.890625 
Q 36.078125 6.890625 40.9375 10.546875 
Q 45.796875 14.203125 45.796875 21.1875 
Q 45.796875 27.640625 41.28125 31.265625 
Q 36.765625 34.90625 28.71875 34.90625 
L 20.21875 34.90625 
L 20.21875 43.015625 
L 29.109375 43.015625 
Q 36.375 43.015625 40.234375 45.921875 
Q 44.09375 48.828125 44.09375 54.296875 
Q 44.09375 59.90625 40.109375 62.90625 
Q 36.140625 65.921875 28.71875 65.921875 
Q 24.65625 65.921875 20.015625 65.03125 
Q 15.375 64.15625 9.8125 62.3125 
L 9.8125 71.09375 
Q 15.4375 72.65625 20.34375 73.4375 
Q 25.25 74.21875 29.59375 74.21875 
Q 40.828125 74.21875 47.359375 69.109375 
Q 53.90625 64.015625 53.90625 55.328125 
Q 53.90625 49.265625 50.4375 45.09375 
Q 46.96875 40.921875 40.578125 39.3125 
z
" id="DejaVuSans-51"/>
       </defs>
       <use xlink:href="#DejaVuSans-51"/>
      </g>
     </g>
    </g>
    <g id="xtick_3">
     <g id="line2d_3">
      <g>
       <use style="stroke:#000000;stroke-width:0.8;" x="231.956488" xlink:href="#mf53752da1b" y="213.746667"/>
      </g>
     </g>
     <g id="text_3">
      <!-- 6 -->
      <g transform="translate(227.502738 231.384479)scale(0.14 -0.14)">
       <defs>
        <path d="M 33.015625 40.375 
Q 26.375 40.375 22.484375 35.828125 
Q 18.609375 31.296875 18.609375 23.390625 
Q 18.609375 15.53125 22.484375 10.953125 
Q 26.375 6.390625 33.015625 6.390625 
Q 39.65625 6.390625 43.53125 10.953125 
Q 47.40625 15.53125 47.40625 23.390625 
Q 47.40625 31.296875 43.53125 35.828125 
Q 39.65625 40.375 33.015625 40.375 
z
M 52.59375 71.296875 
L 52.59375 62.3125 
Q 48.875 64.0625 45.09375 64.984375 
Q 41.3125 65.921875 37.59375 65.921875 
Q 27.828125 65.921875 22.671875 59.328125 
Q 17.53125 52.734375 16.796875 39.40625 
Q 19.671875 43.65625 24.015625 45.921875 
Q 28.375 48.1875 33.59375 48.1875 
Q 44.578125 48.1875 50.953125 41.515625 
Q 57.328125 34.859375 57.328125 23.390625 
Q 57.328125 12.15625 50.6875 5.359375 
Q 44.046875 -1.421875 33.015625 -1.421875 
Q 20.359375 -1.421875 13.671875 8.265625 
Q 6.984375 17.96875 6.984375 36.375 
Q 6.984375 53.65625 15.1875 63.9375 
Q 23.390625 74.21875 37.203125 74.21875 
Q 40.921875 74.21875 44.703125 73.484375 
Q 48.484375 72.75 52.59375 71.296875 
z
" id="DejaVuSans-54"/>
       </defs>
       <use xlink:href="#DejaVuSans-54"/>
      </g>
     </g>
    </g>
    <g id="xtick_4">
     <g id="line2d_4">
      <g>
       <use style="stroke:#000000;stroke-width:0.8;" x="319.127562" xlink:href="#mf53752da1b" y="213.746667"/>
      </g>
     </g>
     <g id="text_4">
      <!-- 9 -->
      <g transform="translate(314.673812 231.384479)scale(0.14 -0.14)">
       <defs>
        <path d="M 10.984375 1.515625 
L 10.984375 10.5 
Q 14.703125 8.734375 18.5 7.8125 
Q 22.3125 6.890625 25.984375 6.890625 
Q 35.75 6.890625 40.890625 13.453125 
Q 46.046875 20.015625 46.78125 33.40625 
Q 43.953125 29.203125 39.59375 26.953125 
Q 35.25 24.703125 29.984375 24.703125 
Q 19.046875 24.703125 12.671875 31.3125 
Q 6.296875 37.9375 6.296875 49.421875 
Q 6.296875 60.640625 12.9375 67.421875 
Q 19.578125 74.21875 30.609375 74.21875 
Q 43.265625 74.21875 49.921875 64.515625 
Q 56.59375 54.828125 56.59375 36.375 
Q 56.59375 19.140625 48.40625 8.859375 
Q 40.234375 -1.421875 26.421875 -1.421875 
Q 22.703125 -1.421875 18.890625 -0.6875 
Q 15.09375 0.046875 10.984375 1.515625 
z
M 30.609375 32.421875 
Q 37.25 32.421875 41.125 36.953125 
Q 45.015625 41.5 45.015625 49.421875 
Q 45.015625 57.28125 41.125 61.84375 
Q 37.25 66.40625 30.609375 66.40625 
Q 23.96875 66.40625 20.09375 61.84375 
Q 16.21875 57.28125 16.21875 49.421875 
Q 16.21875 41.5 20.09375 36.953125 
Q 23.96875 32.421875 30.609375 32.421875 
z
" id="DejaVuSans-57"/>
       </defs>
       <use xlink:href="#DejaVuSans-57"/>
      </g>
     </g>
    </g>
    <g id="xtick_5">
     <g id="line2d_5">
      <g>
       <use style="stroke:#000000;stroke-width:0.8;" x="406.298636" xlink:href="#mf53752da1b" y="213.746667"/>
      </g>
     </g>
     <g id="text_5">
      <!-- 12 -->
      <g transform="translate(397.391136 231.384479)scale(0.14 -0.14)">
       <defs>
        <path d="M 19.1875 8.296875 
L 53.609375 8.296875 
L 53.609375 0 
L 7.328125 0 
L 7.328125 8.296875 
Q 12.9375 14.109375 22.625 23.890625 
Q 32.328125 33.6875 34.8125 36.53125 
Q 39.546875 41.84375 41.421875 45.53125 
Q 43.3125 49.21875 43.3125 52.78125 
Q 43.3125 58.59375 39.234375 62.25 
Q 35.15625 65.921875 28.609375 65.921875 
Q 23.96875 65.921875 18.8125 64.3125 
Q 13.671875 62.703125 7.8125 59.421875 
L 7.8125 69.390625 
Q 13.765625 71.78125 18.9375 73 
Q 24.125 74.21875 28.421875 74.21875 
Q 39.75 74.21875 46.484375 68.546875 
Q 53.21875 62.890625 53.21875 53.421875 
Q 53.21875 48.921875 51.53125 44.890625 
Q 49.859375 40.875 45.40625 35.40625 
Q 44.1875 33.984375 37.640625 27.21875 
Q 31.109375 20.453125 19.1875 8.296875 
z
" id="DejaVuSans-50"/>
       </defs>
       <use xlink:href="#DejaVuSans-49"/>
       <use x="63.623047" xlink:href="#DejaVuSans-50"/>
      </g>
     </g>
    </g>
    <g id="text_6">
     <!-- Serial Position -->
     <g transform="translate(183.122188 251.973229)scale(0.18 -0.18)">
      <defs>
       <path d="M 53.515625 70.515625 
L 53.515625 60.890625 
Q 47.90625 63.578125 42.921875 64.890625 
Q 37.9375 66.21875 33.296875 66.21875 
Q 25.25 66.21875 20.875 63.09375 
Q 16.5 59.96875 16.5 54.203125 
Q 16.5 49.359375 19.40625 46.890625 
Q 22.3125 44.4375 30.421875 42.921875 
L 36.375 41.703125 
Q 47.40625 39.59375 52.65625 34.296875 
Q 57.90625 29 57.90625 20.125 
Q 57.90625 9.515625 50.796875 4.046875 
Q 43.703125 -1.421875 29.984375 -1.421875 
Q 24.8125 -1.421875 18.96875 -0.25 
Q 13.140625 0.921875 6.890625 3.21875 
L 6.890625 13.375 
Q 12.890625 10.015625 18.65625 8.296875 
Q 24.421875 6.59375 29.984375 6.59375 
Q 38.421875 6.59375 43.015625 9.90625 
Q 47.609375 13.234375 47.609375 19.390625 
Q 47.609375 24.75 44.3125 27.78125 
Q 41.015625 30.8125 33.5 32.328125 
L 27.484375 33.5 
Q 16.453125 35.6875 11.515625 40.375 
Q 6.59375 45.0625 6.59375 53.421875 
Q 6.59375 63.09375 13.40625 68.65625 
Q 20.21875 74.21875 32.171875 74.21875 
Q 37.3125 74.21875 42.625 73.28125 
Q 47.953125 72.359375 53.515625 70.515625 
z
" id="DejaVuSans-83"/>
       <path d="M 56.203125 29.59375 
L 56.203125 25.203125 
L 14.890625 25.203125 
Q 15.484375 15.921875 20.484375 11.0625 
Q 25.484375 6.203125 34.421875 6.203125 
Q 39.59375 6.203125 44.453125 7.46875 
Q 49.3125 8.734375 54.109375 11.28125 
L 54.109375 2.78125 
Q 49.265625 0.734375 44.1875 -0.34375 
Q 39.109375 -1.421875 33.890625 -1.421875 
Q 20.796875 -1.421875 13.15625 6.1875 
Q 5.515625 13.8125 5.515625 26.8125 
Q 5.515625 40.234375 12.765625 48.109375 
Q 20.015625 56 32.328125 56 
Q 43.359375 56 49.78125 48.890625 
Q 56.203125 41.796875 56.203125 29.59375 
z
M 47.21875 32.234375 
Q 47.125 39.59375 43.09375 43.984375 
Q 39.0625 48.390625 32.421875 48.390625 
Q 24.90625 48.390625 20.390625 44.140625 
Q 15.875 39.890625 15.1875 32.171875 
z
" id="DejaVuSans-101"/>
       <path d="M 41.109375 46.296875 
Q 39.59375 47.171875 37.8125 47.578125 
Q 36.03125 48 33.890625 48 
Q 26.265625 48 22.1875 43.046875 
Q 18.109375 38.09375 18.109375 28.8125 
L 18.109375 0 
L 9.078125 0 
L 9.078125 54.6875 
L 18.109375 54.6875 
L 18.109375 46.1875 
Q 20.953125 51.171875 25.484375 53.578125 
Q 30.03125 56 36.53125 56 
Q 37.453125 56 38.578125 55.875 
Q 39.703125 55.765625 41.0625 55.515625 
z
" id="DejaVuSans-114"/>
       <path d="M 9.421875 54.6875 
L 18.40625 54.6875 
L 18.40625 0 
L 9.421875 0 
z
M 9.421875 75.984375 
L 18.40625 75.984375 
L 18.40625 64.59375 
L 9.421875 64.59375 
z
" id="DejaVuSans-105"/>
       <path d="M 34.28125 27.484375 
Q 23.390625 27.484375 19.1875 25 
Q 14.984375 22.515625 14.984375 16.5 
Q 14.984375 11.71875 18.140625 8.90625 
Q 21.296875 6.109375 26.703125 6.109375 
Q 34.1875 6.109375 38.703125 11.40625 
Q 43.21875 16.703125 43.21875 25.484375 
L 43.21875 27.484375 
z
M 52.203125 31.203125 
L 52.203125 0 
L 43.21875 0 
L 43.21875 8.296875 
Q 40.140625 3.328125 35.546875 0.953125 
Q 30.953125 -1.421875 24.3125 -1.421875 
Q 15.921875 -1.421875 10.953125 3.296875 
Q 6 8.015625 6 15.921875 
Q 6 25.140625 12.171875 29.828125 
Q 18.359375 34.515625 30.609375 34.515625 
L 43.21875 34.515625 
L 43.21875 35.40625 
Q 43.21875 41.609375 39.140625 45 
Q 35.0625 48.390625 27.6875 48.390625 
Q 23 48.390625 18.546875 47.265625 
Q 14.109375 46.140625 10.015625 43.890625 
L 10.015625 52.203125 
Q 14.9375 54.109375 19.578125 55.046875 
Q 24.21875 56 28.609375 56 
Q 40.484375 56 46.34375 49.84375 
Q 52.203125 43.703125 52.203125 31.203125 
z
" id="DejaVuSans-97"/>
       <path d="M 9.421875 75.984375 
L 18.40625 75.984375 
L 18.40625 0 
L 9.421875 0 
z
" id="DejaVuSans-108"/>
       <path id="DejaVuSans-32"/>
       <path d="M 19.671875 64.796875 
L 19.671875 37.40625 
L 32.078125 37.40625 
Q 38.96875 37.40625 42.71875 40.96875 
Q 46.484375 44.53125 46.484375 51.125 
Q 46.484375 57.671875 42.71875 61.234375 
Q 38.96875 64.796875 32.078125 64.796875 
z
M 9.8125 72.90625 
L 32.078125 72.90625 
Q 44.34375 72.90625 50.609375 67.359375 
Q 56.890625 61.8125 56.890625 51.125 
Q 56.890625 40.328125 50.609375 34.8125 
Q 44.34375 29.296875 32.078125 29.296875 
L 19.671875 29.296875 
L 19.671875 0 
L 9.8125 0 
z
" id="DejaVuSans-80"/>
       <path d="M 30.609375 48.390625 
Q 23.390625 48.390625 19.1875 42.75 
Q 14.984375 37.109375 14.984375 27.296875 
Q 14.984375 17.484375 19.15625 11.84375 
Q 23.34375 6.203125 30.609375 6.203125 
Q 37.796875 6.203125 41.984375 11.859375 
Q 46.1875 17.53125 46.1875 27.296875 
Q 46.1875 37.015625 41.984375 42.703125 
Q 37.796875 48.390625 30.609375 48.390625 
z
M 30.609375 56 
Q 42.328125 56 49.015625 48.375 
Q 55.71875 40.765625 55.71875 27.296875 
Q 55.71875 13.875 49.015625 6.21875 
Q 42.328125 -1.421875 30.609375 -1.421875 
Q 18.84375 -1.421875 12.171875 6.21875 
Q 5.515625 13.875 5.515625 27.296875 
Q 5.515625 40.765625 12.171875 48.375 
Q 18.84375 56 30.609375 56 
z
" id="DejaVuSans-111"/>
       <path d="M 44.28125 53.078125 
L 44.28125 44.578125 
Q 40.484375 46.53125 36.375 47.5 
Q 32.28125 48.484375 27.875 48.484375 
Q 21.1875 48.484375 17.84375 46.4375 
Q 14.5 44.390625 14.5 40.28125 
Q 14.5 37.15625 16.890625 35.375 
Q 19.28125 33.59375 26.515625 31.984375 
L 29.59375 31.296875 
Q 39.15625 29.25 43.1875 25.515625 
Q 47.21875 21.78125 47.21875 15.09375 
Q 47.21875 7.46875 41.1875 3.015625 
Q 35.15625 -1.421875 24.609375 -1.421875 
Q 20.21875 -1.421875 15.453125 -0.5625 
Q 10.6875 0.296875 5.421875 2 
L 5.421875 11.28125 
Q 10.40625 8.6875 15.234375 7.390625 
Q 20.0625 6.109375 24.8125 6.109375 
Q 31.15625 6.109375 34.5625 8.28125 
Q 37.984375 10.453125 37.984375 14.40625 
Q 37.984375 18.0625 35.515625 20.015625 
Q 33.0625 21.96875 24.703125 23.78125 
L 21.578125 24.515625 
Q 13.234375 26.265625 9.515625 29.90625 
Q 5.8125 33.546875 5.8125 39.890625 
Q 5.8125 47.609375 11.28125 51.796875 
Q 16.75 56 26.8125 56 
Q 31.78125 56 36.171875 55.265625 
Q 40.578125 54.546875 44.28125 53.078125 
z
" id="DejaVuSans-115"/>
       <path d="M 18.3125 70.21875 
L 18.3125 54.6875 
L 36.8125 54.6875 
L 36.8125 47.703125 
L 18.3125 47.703125 
L 18.3125 18.015625 
Q 18.3125 11.328125 20.140625 9.421875 
Q 21.96875 7.515625 27.59375 7.515625 
L 36.8125 7.515625 
L 36.8125 0 
L 27.59375 0 
Q 17.1875 0 13.234375 3.875 
Q 9.28125 7.765625 9.28125 18.015625 
L 9.28125 47.703125 
L 2.6875 47.703125 
L 2.6875 54.6875 
L 9.28125 54.6875 
L 9.28125 70.21875 
z
" id="DejaVuSans-116"/>
       <path d="M 54.890625 33.015625 
L 54.890625 0 
L 45.90625 0 
L 45.90625 32.71875 
Q 45.90625 40.484375 42.875 44.328125 
Q 39.84375 48.1875 33.796875 48.1875 
Q 26.515625 48.1875 22.3125 43.546875 
Q 18.109375 38.921875 18.109375 30.90625 
L 18.109375 0 
L 9.078125 0 
L 9.078125 54.6875 
L 18.109375 54.6875 
L 18.109375 46.1875 
Q 21.34375 51.125 25.703125 53.5625 
Q 30.078125 56 35.796875 56 
Q 45.21875 56 50.046875 50.171875 
Q 54.890625 44.34375 54.890625 33.015625 
z
" id="DejaVuSans-110"/>
      </defs>
      <use xlink:href="#DejaVuSans-83"/>
      <use x="63.476562" xlink:href="#DejaVuSans-101"/>
      <use x="125" xlink:href="#DejaVuSans-114"/>
      <use x="166.113281" xlink:href="#DejaVuSans-105"/>
      <use x="193.896484" xlink:href="#DejaVuSans-97"/>
      <use x="255.175781" xlink:href="#DejaVuSans-108"/>
      <use x="282.958984" xlink:href="#DejaVuSans-32"/>
      <use x="314.746094" xlink:href="#DejaVuSans-80"/>
      <use x="371.423828" xlink:href="#DejaVuSans-111"/>
      <use x="432.605469" xlink:href="#DejaVuSans-115"/>
      <use x="484.705078" xlink:href="#DejaVuSans-105"/>
      <use x="512.488281" xlink:href="#DejaVuSans-116"/>
      <use x="551.697266" xlink:href="#DejaVuSans-105"/>
      <use x="579.480469" xlink:href="#DejaVuSans-111"/>
      <use x="640.662109" xlink:href="#DejaVuSans-110"/>
     </g>
    </g>
   </g>
   <g id="matplotlib.axis_2">
    <g id="ytick_1">
     <g id="line2d_6">
      <defs>
       <path d="M 0 0 
L -3.5 0 
" id="m5255d0014b" style="stroke:#000000;stroke-width:0.8;"/>
      </defs>
      <g>
       <use style="stroke:#000000;stroke-width:0.8;" x="70.69" xlink:href="#m5255d0014b" y="213.746667"/>
      </g>
     </g>
     <g id="text_7">
      <!-- 0.0 -->
      <g transform="translate(41.425625 219.065573)scale(0.14 -0.14)">
       <defs>
        <path d="M 31.78125 66.40625 
Q 24.171875 66.40625 20.328125 58.90625 
Q 16.5 51.421875 16.5 36.375 
Q 16.5 21.390625 20.328125 13.890625 
Q 24.171875 6.390625 31.78125 6.390625 
Q 39.453125 6.390625 43.28125 13.890625 
Q 47.125 21.390625 47.125 36.375 
Q 47.125 51.421875 43.28125 58.90625 
Q 39.453125 66.40625 31.78125 66.40625 
z
M 31.78125 74.21875 
Q 44.046875 74.21875 50.515625 64.515625 
Q 56.984375 54.828125 56.984375 36.375 
Q 56.984375 17.96875 50.515625 8.265625 
Q 44.046875 -1.421875 31.78125 -1.421875 
Q 19.53125 -1.421875 13.0625 8.265625 
Q 6.59375 17.96875 6.59375 36.375 
Q 6.59375 54.828125 13.0625 64.515625 
Q 19.53125 74.21875 31.78125 74.21875 
z
" id="DejaVuSans-48"/>
        <path d="M 10.6875 12.40625 
L 21 12.40625 
L 21 0 
L 10.6875 0 
z
" id="DejaVuSans-46"/>
       </defs>
       <use xlink:href="#DejaVuSans-48"/>
       <use x="63.623047" xlink:href="#DejaVuSans-46"/>
       <use x="95.410156" xlink:href="#DejaVuSans-48"/>
      </g>
     </g>
    </g>
    <g id="ytick_2">
     <g id="line2d_7">
      <g>
       <use style="stroke:#000000;stroke-width:0.8;" x="70.69" xlink:href="#m5255d0014b" y="178.885333"/>
      </g>
     </g>
     <g id="text_8">
      <!-- 0.1 -->
      <g transform="translate(41.425625 184.20424)scale(0.14 -0.14)">
       <use xlink:href="#DejaVuSans-48"/>
       <use x="63.623047" xlink:href="#DejaVuSans-46"/>
       <use x="95.410156" xlink:href="#DejaVuSans-49"/>
      </g>
     </g>
    </g>
    <g id="ytick_3">
     <g id="line2d_8">
      <g>
       <use style="stroke:#000000;stroke-width:0.8;" x="70.69" xlink:href="#m5255d0014b" y="144.024"/>
      </g>
     </g>
     <g id="text_9">
      <!-- 0.2 -->
      <g transform="translate(41.425625 149.342906)scale(0.14 -0.14)">
       <use xlink:href="#DejaVuSans-48"/>
       <use x="63.623047" xlink:href="#DejaVuSans-46"/>
       <use x="95.410156" xlink:href="#DejaVuSans-50"/>
      </g>
     </g>
    </g>
    <g id="ytick_4">
     <g id="line2d_9">
      <g>
       <use style="stroke:#000000;stroke-width:0.8;" x="70.69" xlink:href="#m5255d0014b" y="109.162667"/>
      </g>
     </g>
     <g id="text_10">
      <!-- 0.3 -->
      <g transform="translate(41.425625 114.481573)scale(0.14 -0.14)">
       <use xlink:href="#DejaVuSans-48"/>
       <use x="63.623047" xlink:href="#DejaVuSans-46"/>
       <use x="95.410156" xlink:href="#DejaVuSans-51"/>
      </g>
     </g>
    </g>
    <g id="ytick_5">
     <g id="line2d_10">
      <g>
       <use style="stroke:#000000;stroke-width:0.8;" x="70.69" xlink:href="#m5255d0014b" y="74.301333"/>
      </g>
     </g>
     <g id="text_11">
      <!-- 0.4 -->
      <g transform="translate(41.425625 79.62024)scale(0.14 -0.14)">
       <defs>
        <path d="M 37.796875 64.3125 
L 12.890625 25.390625 
L 37.796875 25.390625 
z
M 35.203125 72.90625 
L 47.609375 72.90625 
L 47.609375 25.390625 
L 58.015625 25.390625 
L 58.015625 17.1875 
L 47.609375 17.1875 
L 47.609375 0 
L 37.796875 0 
L 37.796875 17.1875 
L 4.890625 17.1875 
L 4.890625 26.703125 
z
" id="DejaVuSans-52"/>
       </defs>
       <use xlink:href="#DejaVuSans-48"/>
       <use x="63.623047" xlink:href="#DejaVuSans-46"/>
       <use x="95.410156" xlink:href="#DejaVuSans-52"/>
      </g>
     </g>
    </g>
    <g id="ytick_6">
     <g id="line2d_11">
      <g>
       <use style="stroke:#000000;stroke-width:0.8;" x="70.69" xlink:href="#m5255d0014b" y="39.44"/>
      </g>
     </g>
     <g id="text_12">
      <!-- 0.5 -->
      <g transform="translate(41.425625 44.758906)scale(0.14 -0.14)">
       <defs>
        <path d="M 10.796875 72.90625 
L 49.515625 72.90625 
L 49.515625 64.59375 
L 19.828125 64.59375 
L 19.828125 46.734375 
Q 21.96875 47.46875 24.109375 47.828125 
Q 26.265625 48.1875 28.421875 48.1875 
Q 40.625 48.1875 47.75 41.5 
Q 54.890625 34.8125 54.890625 23.390625 
Q 54.890625 11.625 47.5625 5.09375 
Q 40.234375 -1.421875 26.90625 -1.421875 
Q 22.3125 -1.421875 17.546875 -0.640625 
Q 12.796875 0.140625 7.71875 1.703125 
L 7.71875 11.625 
Q 12.109375 9.234375 16.796875 8.0625 
Q 21.484375 6.890625 26.703125 6.890625 
Q 35.15625 6.890625 40.078125 11.328125 
Q 45.015625 15.765625 45.015625 23.390625 
Q 45.015625 31 40.078125 35.4375 
Q 35.15625 39.890625 26.703125 39.890625 
Q 22.75 39.890625 18.8125 39.015625 
Q 14.890625 38.140625 10.796875 36.28125 
z
" id="DejaVuSans-53"/>
       </defs>
       <use xlink:href="#DejaVuSans-48"/>
       <use x="63.623047" xlink:href="#DejaVuSans-46"/>
       <use x="95.410156" xlink:href="#DejaVuSans-53"/>
      </g>
     </g>
    </g>
    <g id="text_13">
     <!-- Prob. of First Recall -->
     <g transform="translate(33.682188 212.48849)rotate(-90)scale(0.18 -0.18)">
      <defs>
       <path d="M 48.6875 27.296875 
Q 48.6875 37.203125 44.609375 42.84375 
Q 40.53125 48.484375 33.40625 48.484375 
Q 26.265625 48.484375 22.1875 42.84375 
Q 18.109375 37.203125 18.109375 27.296875 
Q 18.109375 17.390625 22.1875 11.75 
Q 26.265625 6.109375 33.40625 6.109375 
Q 40.53125 6.109375 44.609375 11.75 
Q 48.6875 17.390625 48.6875 27.296875 
z
M 18.109375 46.390625 
Q 20.953125 51.265625 25.265625 53.625 
Q 29.59375 56 35.59375 56 
Q 45.5625 56 51.78125 48.09375 
Q 58.015625 40.1875 58.015625 27.296875 
Q 58.015625 14.40625 51.78125 6.484375 
Q 45.5625 -1.421875 35.59375 -1.421875 
Q 29.59375 -1.421875 25.265625 0.953125 
Q 20.953125 3.328125 18.109375 8.203125 
L 18.109375 0 
L 9.078125 0 
L 9.078125 75.984375 
L 18.109375 75.984375 
z
" id="DejaVuSans-98"/>
       <path d="M 37.109375 75.984375 
L 37.109375 68.5 
L 28.515625 68.5 
Q 23.6875 68.5 21.796875 66.546875 
Q 19.921875 64.59375 19.921875 59.515625 
L 19.921875 54.6875 
L 34.71875 54.6875 
L 34.71875 47.703125 
L 19.921875 47.703125 
L 19.921875 0 
L 10.890625 0 
L 10.890625 47.703125 
L 2.296875 47.703125 
L 2.296875 54.6875 
L 10.890625 54.6875 
L 10.890625 58.5 
Q 10.890625 67.625 15.140625 71.796875 
Q 19.390625 75.984375 28.609375 75.984375 
z
" id="DejaVuSans-102"/>
       <path d="M 9.8125 72.90625 
L 51.703125 72.90625 
L 51.703125 64.59375 
L 19.671875 64.59375 
L 19.671875 43.109375 
L 48.578125 43.109375 
L 48.578125 34.8125 
L 19.671875 34.8125 
L 19.671875 0 
L 9.8125 0 
z
" id="DejaVuSans-70"/>
       <path d="M 44.390625 34.1875 
Q 47.5625 33.109375 50.5625 29.59375 
Q 53.5625 26.078125 56.59375 19.921875 
L 66.609375 0 
L 56 0 
L 46.6875 18.703125 
Q 43.0625 26.03125 39.671875 28.421875 
Q 36.28125 30.8125 30.421875 30.8125 
L 19.671875 30.8125 
L 19.671875 0 
L 9.8125 0 
L 9.8125 72.90625 
L 32.078125 72.90625 
Q 44.578125 72.90625 50.734375 67.671875 
Q 56.890625 62.453125 56.890625 51.90625 
Q 56.890625 45.015625 53.6875 40.46875 
Q 50.484375 35.9375 44.390625 34.1875 
z
M 19.671875 64.796875 
L 19.671875 38.921875 
L 32.078125 38.921875 
Q 39.203125 38.921875 42.84375 42.21875 
Q 46.484375 45.515625 46.484375 51.90625 
Q 46.484375 58.296875 42.84375 61.546875 
Q 39.203125 64.796875 32.078125 64.796875 
z
" id="DejaVuSans-82"/>
       <path d="M 48.78125 52.59375 
L 48.78125 44.1875 
Q 44.96875 46.296875 41.140625 47.34375 
Q 37.3125 48.390625 33.40625 48.390625 
Q 24.65625 48.390625 19.8125 42.84375 
Q 14.984375 37.3125 14.984375 27.296875 
Q 14.984375 17.28125 19.8125 11.734375 
Q 24.65625 6.203125 33.40625 6.203125 
Q 37.3125 6.203125 41.140625 7.25 
Q 44.96875 8.296875 48.78125 10.40625 
L 48.78125 2.09375 
Q 45.015625 0.34375 40.984375 -0.53125 
Q 36.96875 -1.421875 32.421875 -1.421875 
Q 20.0625 -1.421875 12.78125 6.34375 
Q 5.515625 14.109375 5.515625 27.296875 
Q 5.515625 40.671875 12.859375 48.328125 
Q 20.21875 56 33.015625 56 
Q 37.15625 56 41.109375 55.140625 
Q 45.0625 54.296875 48.78125 52.59375 
z
" id="DejaVuSans-99"/>
      </defs>
      <use xlink:href="#DejaVuSans-80"/>
      <use x="58.552734" xlink:href="#DejaVuSans-114"/>
      <use x="97.416016" xlink:href="#DejaVuSans-111"/>
      <use x="158.597656" xlink:href="#DejaVuSans-98"/>
      <use x="222.074219" xlink:href="#DejaVuSans-46"/>
      <use x="253.861328" xlink:href="#DejaVuSans-32"/>
      <use x="285.648438" xlink:href="#DejaVuSans-111"/>
      <use x="346.830078" xlink:href="#DejaVuSans-102"/>
      <use x="382.035156" xlink:href="#DejaVuSans-32"/>
      <use x="413.822266" xlink:href="#DejaVuSans-70"/>
      <use x="464.091797" xlink:href="#DejaVuSans-105"/>
      <use x="491.875" xlink:href="#DejaVuSans-114"/>
      <use x="532.988281" xlink:href="#DejaVuSans-115"/>
      <use x="585.087891" xlink:href="#DejaVuSans-116"/>
      <use x="624.296875" xlink:href="#DejaVuSans-32"/>
      <use x="656.083984" xlink:href="#DejaVuSans-82"/>
      <use x="721.066406" xlink:href="#DejaVuSans-101"/>
      <use x="782.589844" xlink:href="#DejaVuSans-99"/>
      <use x="837.570312" xlink:href="#DejaVuSans-97"/>
      <use x="898.849609" xlink:href="#DejaVuSans-108"/>
      <use x="926.632812" xlink:href="#DejaVuSans-108"/>
     </g>
    </g>
   </g>
   <g id="line2d_12">
    <path clip-path="url(#pe676107576)" d="M 86.671364 142.363937 
L 115.728388 200.703311 
L 144.785413 206.394957 
L 173.842438 207.640005 
L 202.899463 208.707188 
L 231.956488 207.936444 
L 261.013512 206.157805 
L 290.070537 204.379166 
L 319.127562 200.821887 
L 348.184587 191.157946 
L 377.241612 170.703592 
L 406.298636 78.273628 
" style="fill:none;stroke:#011f5b;stroke-linecap:square;stroke-width:1.5;"/>
   </g>
   <g id="line2d_13">
    <path clip-path="url(#pe676107576)" d="M 86.671364 155.980867 
L 115.728388 202.407234 
L 144.785413 207.453579 
L 173.842438 209.412748 
L 202.899463 209.29401 
L 231.956488 207.572316 
L 261.013512 208.225372 
L 290.070537 205.435041 
L 319.127562 200.388697 
L 348.184587 189.524214 
L 377.241612 162.986381 
L 406.298636 75.001885 
" style="fill:none;stroke:#990000;stroke-linecap:square;stroke-width:1.5;"/>
   </g>
   <g id="patch_3">
    <path d="M 70.69 213.746667 
L 70.69 39.44 
" style="fill:none;stroke:#000000;stroke-linecap:square;stroke-linejoin:miter;stroke-width:0.8;"/>
   </g>
   <g id="patch_4">
    <path d="M 70.69 213.746667 
L 422.28 213.746667 
" style="fill:none;stroke:#000000;stroke-linecap:square;stroke-linejoin:miter;stroke-width:0.8;"/>
   </g>
   <g id="text_14">
    <!-- Data -->
    <g transform="translate(224.996094 33.44)scale(0.18 -0.18)">
     <defs>
      <path d="M 19.671875 64.796875 
L 19.671875 8.109375 
L 31.59375 8.109375 
Q 46.6875 8.109375 53.6875 14.9375 
Q 60.6875 21.78125 60.6875 36.53125 
Q 60.6875 51.171875 53.6875 57.984375 
Q 46.6875 64.796875 31.59375 64.796875 
z
M 9.8125 72.90625 
L 30.078125 72.90625 
Q 51.265625 72.90625 61.171875 64.09375 
Q 71.09375 55.28125 71.09375 36.53125 
Q 71.09375 17.671875 61.125 8.828125 
Q 51.171875 0 30.078125 0 
L 9.8125 0 
z
" id="DejaVuSans-68"/>
     </defs>
     <use xlink:href="#DejaVuSans-68"/>
     <use x="77.001953" xlink:href="#DejaVuSans-97"/>
     <use x="138.28125" xlink:href="#DejaVuSans-116"/>
     <use x="177.490234" xlink:href="#DejaVuSans-97"/>
    </g>
   </g>
   <g id="legend_1">
    <g id="patch_5">
     <path d="M 79.09 84.2675 
L 168.338125 84.2675 
Q 170.738125 84.2675 170.738125 81.8675 
L 170.738125 47.84 
Q 170.738125 45.44 168.338125 45.44 
L 79.09 45.44 
Q 76.69 45.44 76.69 47.84 
L 76.69 81.8675 
Q 76.69 84.2675 79.09 84.2675 
z
" style="fill:#ffffff;opacity:0.8;stroke:#cccccc;stroke-linejoin:miter;"/>
    </g>
    <g id="line2d_14">
     <path d="M 81.49 55.158125 
L 105.49 55.158125 
" style="fill:none;stroke:#011f5b;stroke-linecap:square;stroke-width:1.5;"/>
    </g>
    <g id="line2d_15"/>
    <g id="text_15">
     <!-- Visual -->
     <g transform="translate(115.09 59.358125)scale(0.12 -0.12)">
      <defs>
       <path d="M 28.609375 0 
L 0.78125 72.90625 
L 11.078125 72.90625 
L 34.1875 11.53125 
L 57.328125 72.90625 
L 67.578125 72.90625 
L 39.796875 0 
z
" id="DejaVuSans-86"/>
       <path d="M 8.5 21.578125 
L 8.5 54.6875 
L 17.484375 54.6875 
L 17.484375 21.921875 
Q 17.484375 14.15625 20.5 10.265625 
Q 23.53125 6.390625 29.59375 6.390625 
Q 36.859375 6.390625 41.078125 11.03125 
Q 45.3125 15.671875 45.3125 23.6875 
L 45.3125 54.6875 
L 54.296875 54.6875 
L 54.296875 0 
L 45.3125 0 
L 45.3125 8.40625 
Q 42.046875 3.421875 37.71875 1 
Q 33.40625 -1.421875 27.6875 -1.421875 
Q 18.265625 -1.421875 13.375 4.4375 
Q 8.5 10.296875 8.5 21.578125 
z
M 31.109375 56 
z
" id="DejaVuSans-117"/>
      </defs>
      <use xlink:href="#DejaVuSans-86"/>
      <use x="66.158203" xlink:href="#DejaVuSans-105"/>
      <use x="93.941406" xlink:href="#DejaVuSans-115"/>
      <use x="146.041016" xlink:href="#DejaVuSans-117"/>
      <use x="209.419922" xlink:href="#DejaVuSans-97"/>
      <use x="270.699219" xlink:href="#DejaVuSans-108"/>
     </g>
    </g>
    <g id="line2d_16">
     <path d="M 81.49 72.771875 
L 105.49 72.771875 
" style="fill:none;stroke:#990000;stroke-linecap:square;stroke-width:1.5;"/>
    </g>
    <g id="line2d_17"/>
    <g id="text_16">
     <!-- Auditory -->
     <g transform="translate(115.09 76.971875)scale(0.12 -0.12)">
      <defs>
       <path d="M 34.1875 63.1875 
L 20.796875 26.90625 
L 47.609375 26.90625 
z
M 28.609375 72.90625 
L 39.796875 72.90625 
L 67.578125 0 
L 57.328125 0 
L 50.6875 18.703125 
L 17.828125 18.703125 
L 11.1875 0 
L 0.78125 0 
z
" id="DejaVuSans-65"/>
       <path d="M 45.40625 46.390625 
L 45.40625 75.984375 
L 54.390625 75.984375 
L 54.390625 0 
L 45.40625 0 
L 45.40625 8.203125 
Q 42.578125 3.328125 38.25 0.953125 
Q 33.9375 -1.421875 27.875 -1.421875 
Q 17.96875 -1.421875 11.734375 6.484375 
Q 5.515625 14.40625 5.515625 27.296875 
Q 5.515625 40.1875 11.734375 48.09375 
Q 17.96875 56 27.875 56 
Q 33.9375 56 38.25 53.625 
Q 42.578125 51.265625 45.40625 46.390625 
z
M 14.796875 27.296875 
Q 14.796875 17.390625 18.875 11.75 
Q 22.953125 6.109375 30.078125 6.109375 
Q 37.203125 6.109375 41.296875 11.75 
Q 45.40625 17.390625 45.40625 27.296875 
Q 45.40625 37.203125 41.296875 42.84375 
Q 37.203125 48.484375 30.078125 48.484375 
Q 22.953125 48.484375 18.875 42.84375 
Q 14.796875 37.203125 14.796875 27.296875 
z
" id="DejaVuSans-100"/>
       <path d="M 32.171875 -5.078125 
Q 28.375 -14.84375 24.75 -17.8125 
Q 21.140625 -20.796875 15.09375 -20.796875 
L 7.90625 -20.796875 
L 7.90625 -13.28125 
L 13.1875 -13.28125 
Q 16.890625 -13.28125 18.9375 -11.515625 
Q 21 -9.765625 23.484375 -3.21875 
L 25.09375 0.875 
L 2.984375 54.6875 
L 12.5 54.6875 
L 29.59375 11.921875 
L 46.6875 54.6875 
L 56.203125 54.6875 
z
" id="DejaVuSans-121"/>
      </defs>
      <use xlink:href="#DejaVuSans-65"/>
      <use x="68.408203" xlink:href="#DejaVuSans-117"/>
      <use x="131.787109" xlink:href="#DejaVuSans-100"/>
      <use x="195.263672" xlink:href="#DejaVuSans-105"/>
      <use x="223.046875" xlink:href="#DejaVuSans-116"/>
      <use x="262.255859" xlink:href="#DejaVuSans-111"/>
      <use x="323.4375" xlink:href="#DejaVuSans-114"/>
      <use x="364.550781" xlink:href="#DejaVuSans-121"/>
     </g>
    </g>
   </g>
  </g>
  <g id="axes_2">
   <g id="patch_6">
    <path d="M 492.97 213.746667 
L 844.56 213.746667 
L 844.56 39.44 
L 492.97 39.44 
z
" style="fill:#ffffff;"/>
   </g>
   <g id="PolyCollection_3">
    <defs>
     <path d="M 508.951364 -588.708975 
L 508.951364 -589.578875 
L 538.008388 -527.659103 
L 567.065413 -514.572792 
L 596.122438 -510.961605 
L 625.179463 -510.117607 
L 654.236488 -510.521144 
L 683.293512 -512.787287 
L 712.350537 -515.833232 
L 741.407562 -524.179838 
L 770.464587 -538.480816 
L 799.521612 -563.641961 
L 828.578636 -608.153045 
L 828.578636 -607.23875 
L 828.578636 -607.23875 
L 799.521612 -562.875979 
L 770.464587 -537.89281 
L 741.407562 -523.733982 
L 712.350537 -515.498317 
L 683.293512 -512.51057 
L 654.236488 -510.297423 
L 625.179463 -509.90596 
L 596.122438 -510.729089 
L 567.065413 -514.261035 
L 538.008388 -527.16647 
L 508.951364 -588.708975 
z
" id="m7c4304fb30" style="stroke:#011f5b;stroke-opacity:0.3;"/>
    </defs>
    <g clip-path="url(#p68c46ab579)">
     <use style="fill:#011f5b;fill-opacity:0.3;stroke:#011f5b;stroke-opacity:0.3;" x="0" xlink:href="#m7c4304fb30" y="720"/>
    </g>
   </g>
   <g id="PolyCollection_4">
    <defs>
     <path d="M 508.951364 -550.58068 
L 508.951364 -551.25667 
L 538.008388 -516.015722 
L 567.065413 -509.866074 
L 596.122438 -508.248123 
L 625.179463 -508.089969 
L 654.236488 -508.380259 
L 683.293512 -510.144632 
L 712.350537 -513.494307 
L 741.407562 -522.568944 
L 770.464587 -541.207638 
L 799.521612 -580.143299 
L 828.578636 -656.765521 
L 828.578636 -655.752702 
L 828.578636 -655.752702 
L 799.521612 -579.30187 
L 770.464587 -540.600464 
L 741.407562 -522.141146 
L 712.350537 -513.203699 
L 683.293512 -509.932331 
L 654.236488 -508.225996 
L 625.179463 -507.946734 
L 596.122438 -508.097087 
L 567.065413 -509.659135 
L 538.008388 -515.683663 
L 508.951364 -550.58068 
z
" id="ma7b5ae12a5" style="stroke:#990000;stroke-opacity:0.3;"/>
    </defs>
    <g clip-path="url(#p68c46ab579)">
     <use style="fill:#990000;fill-opacity:0.3;stroke:#990000;stroke-opacity:0.3;" x="0" xlink:href="#ma7b5ae12a5" y="720"/>
    </g>
   </g>
   <g id="matplotlib.axis_3">
    <g id="xtick_6">
     <g id="line2d_18">
      <g>
       <use style="stroke:#000000;stroke-width:0.8;" x="508.951364" xlink:href="#mf53752da1b" y="213.746667"/>
      </g>
     </g>
     <g id="text_17">
      <!-- 1 -->
      <g transform="translate(504.497614 231.384479)scale(0.14 -0.14)">
       <use xlink:href="#DejaVuSans-49"/>
      </g>
     </g>
    </g>
    <g id="xtick_7">
     <g id="line2d_19">
      <g>
       <use style="stroke:#000000;stroke-width:0.8;" x="567.065413" xlink:href="#mf53752da1b" y="213.746667"/>
      </g>
     </g>
     <g id="text_18">
      <!-- 3 -->
      <g transform="translate(562.611663 231.384479)scale(0.14 -0.14)">
       <use xlink:href="#DejaVuSans-51"/>
      </g>
     </g>
    </g>
    <g id="xtick_8">
     <g id="line2d_20">
      <g>
       <use style="stroke:#000000;stroke-width:0.8;" x="654.236488" xlink:href="#mf53752da1b" y="213.746667"/>
      </g>
     </g>
     <g id="text_19">
      <!-- 6 -->
      <g transform="translate(649.782738 231.384479)scale(0.14 -0.14)">
       <use xlink:href="#DejaVuSans-54"/>
      </g>
     </g>
    </g>
    <g id="xtick_9">
     <g id="line2d_21">
      <g>
       <use style="stroke:#000000;stroke-width:0.8;" x="741.407562" xlink:href="#mf53752da1b" y="213.746667"/>
      </g>
     </g>
     <g id="text_20">
      <!-- 9 -->
      <g transform="translate(736.953812 231.384479)scale(0.14 -0.14)">
       <use xlink:href="#DejaVuSans-57"/>
      </g>
     </g>
    </g>
    <g id="xtick_10">
     <g id="line2d_22">
      <g>
       <use style="stroke:#000000;stroke-width:0.8;" x="828.578636" xlink:href="#mf53752da1b" y="213.746667"/>
      </g>
     </g>
     <g id="text_21">
      <!-- 12 -->
      <g transform="translate(819.671136 231.384479)scale(0.14 -0.14)">
       <use xlink:href="#DejaVuSans-49"/>
       <use x="63.623047" xlink:href="#DejaVuSans-50"/>
      </g>
     </g>
    </g>
    <g id="text_22">
     <!-- Serial Position -->
     <g transform="translate(605.402188 251.973229)scale(0.18 -0.18)">
      <use xlink:href="#DejaVuSans-83"/>
      <use x="63.476562" xlink:href="#DejaVuSans-101"/>
      <use x="125" xlink:href="#DejaVuSans-114"/>
      <use x="166.113281" xlink:href="#DejaVuSans-105"/>
      <use x="193.896484" xlink:href="#DejaVuSans-97"/>
      <use x="255.175781" xlink:href="#DejaVuSans-108"/>
      <use x="282.958984" xlink:href="#DejaVuSans-32"/>
      <use x="314.746094" xlink:href="#DejaVuSans-80"/>
      <use x="371.423828" xlink:href="#DejaVuSans-111"/>
      <use x="432.605469" xlink:href="#DejaVuSans-115"/>
      <use x="484.705078" xlink:href="#DejaVuSans-105"/>
      <use x="512.488281" xlink:href="#DejaVuSans-116"/>
      <use x="551.697266" xlink:href="#DejaVuSans-105"/>
      <use x="579.480469" xlink:href="#DejaVuSans-111"/>
      <use x="640.662109" xlink:href="#DejaVuSans-110"/>
     </g>
    </g>
   </g>
   <g id="matplotlib.axis_4">
    <g id="ytick_7">
     <g id="line2d_23">
      <g>
       <use style="stroke:#000000;stroke-width:0.8;" x="492.97" xlink:href="#m5255d0014b" y="213.746667"/>
      </g>
     </g>
     <g id="text_23">
      <!-- 0.0 -->
      <g transform="translate(463.705625 219.065573)scale(0.14 -0.14)">
       <use xlink:href="#DejaVuSans-48"/>
       <use x="63.623047" xlink:href="#DejaVuSans-46"/>
       <use x="95.410156" xlink:href="#DejaVuSans-48"/>
      </g>
     </g>
    </g>
    <g id="ytick_8">
     <g id="line2d_24">
      <g>
       <use style="stroke:#000000;stroke-width:0.8;" x="492.97" xlink:href="#m5255d0014b" y="178.885333"/>
      </g>
     </g>
     <g id="text_24">
      <!-- 0.1 -->
      <g transform="translate(463.705625 184.20424)scale(0.14 -0.14)">
       <use xlink:href="#DejaVuSans-48"/>
       <use x="63.623047" xlink:href="#DejaVuSans-46"/>
       <use x="95.410156" xlink:href="#DejaVuSans-49"/>
      </g>
     </g>
    </g>
    <g id="ytick_9">
     <g id="line2d_25">
      <g>
       <use style="stroke:#000000;stroke-width:0.8;" x="492.97" xlink:href="#m5255d0014b" y="144.024"/>
      </g>
     </g>
     <g id="text_25">
      <!-- 0.2 -->
      <g transform="translate(463.705625 149.342906)scale(0.14 -0.14)">
       <use xlink:href="#DejaVuSans-48"/>
       <use x="63.623047" xlink:href="#DejaVuSans-46"/>
       <use x="95.410156" xlink:href="#DejaVuSans-50"/>
      </g>
     </g>
    </g>
    <g id="ytick_10">
     <g id="line2d_26">
      <g>
       <use style="stroke:#000000;stroke-width:0.8;" x="492.97" xlink:href="#m5255d0014b" y="109.162667"/>
      </g>
     </g>
     <g id="text_26">
      <!-- 0.3 -->
      <g transform="translate(463.705625 114.481573)scale(0.14 -0.14)">
       <use xlink:href="#DejaVuSans-48"/>
       <use x="63.623047" xlink:href="#DejaVuSans-46"/>
       <use x="95.410156" xlink:href="#DejaVuSans-51"/>
      </g>
     </g>
    </g>
    <g id="ytick_11">
     <g id="line2d_27">
      <g>
       <use style="stroke:#000000;stroke-width:0.8;" x="492.97" xlink:href="#m5255d0014b" y="74.301333"/>
      </g>
     </g>
     <g id="text_27">
      <!-- 0.4 -->
      <g transform="translate(463.705625 79.62024)scale(0.14 -0.14)">
       <use xlink:href="#DejaVuSans-48"/>
       <use x="63.623047" xlink:href="#DejaVuSans-46"/>
       <use x="95.410156" xlink:href="#DejaVuSans-52"/>
      </g>
     </g>
    </g>
    <g id="ytick_12">
     <g id="line2d_28">
      <g>
       <use style="stroke:#000000;stroke-width:0.8;" x="492.97" xlink:href="#m5255d0014b" y="39.44"/>
      </g>
     </g>
     <g id="text_28">
      <!-- 0.5 -->
      <g transform="translate(463.705625 44.758906)scale(0.14 -0.14)">
       <use xlink:href="#DejaVuSans-48"/>
       <use x="63.623047" xlink:href="#DejaVuSans-46"/>
       <use x="95.410156" xlink:href="#DejaVuSans-53"/>
      </g>
     </g>
    </g>
    <g id="text_29">
     <!-- Prob. of First Recall -->
     <g transform="translate(455.962188 212.48849)rotate(-90)scale(0.18 -0.18)">
      <use xlink:href="#DejaVuSans-80"/>
      <use x="58.552734" xlink:href="#DejaVuSans-114"/>
      <use x="97.416016" xlink:href="#DejaVuSans-111"/>
      <use x="158.597656" xlink:href="#DejaVuSans-98"/>
      <use x="222.074219" xlink:href="#DejaVuSans-46"/>
      <use x="253.861328" xlink:href="#DejaVuSans-32"/>
      <use x="285.648438" xlink:href="#DejaVuSans-111"/>
      <use x="346.830078" xlink:href="#DejaVuSans-102"/>
      <use x="382.035156" xlink:href="#DejaVuSans-32"/>
      <use x="413.822266" xlink:href="#DejaVuSans-70"/>
      <use x="464.091797" xlink:href="#DejaVuSans-105"/>
      <use x="491.875" xlink:href="#DejaVuSans-114"/>
      <use x="532.988281" xlink:href="#DejaVuSans-115"/>
      <use x="585.087891" xlink:href="#DejaVuSans-116"/>
      <use x="624.296875" xlink:href="#DejaVuSans-32"/>
      <use x="656.083984" xlink:href="#DejaVuSans-82"/>
      <use x="721.066406" xlink:href="#DejaVuSans-101"/>
      <use x="782.589844" xlink:href="#DejaVuSans-99"/>
      <use x="837.570312" xlink:href="#DejaVuSans-97"/>
      <use x="898.849609" xlink:href="#DejaVuSans-108"/>
      <use x="926.632812" xlink:href="#DejaVuSans-108"/>
     </g>
    </g>
   </g>
   <g id="line2d_29">
    <path clip-path="url(#p68c46ab579)" d="M 508.951364 130.856075 
L 538.008388 192.587214 
L 567.065413 205.583087 
L 596.122438 209.154653 
L 625.179463 209.988216 
L 654.236488 209.590716 
L 683.293512 207.351071 
L 712.350537 204.334225 
L 741.407562 196.04309 
L 770.464587 181.813187 
L 799.521612 156.74103 
L 828.578636 112.304102 
" style="fill:none;stroke:#011f5b;stroke-linecap:square;stroke-width:1.5;"/>
   </g>
   <g id="line2d_30">
    <path clip-path="url(#p68c46ab579)" d="M 508.951364 169.081325 
L 538.008388 204.150307 
L 567.065413 210.237395 
L 596.122438 211.827395 
L 625.179463 211.981649 
L 654.236488 211.696872 
L 683.293512 209.961518 
L 712.350537 206.650997 
L 741.407562 197.644955 
L 770.464587 179.095949 
L 799.521612 140.277415 
L 828.578636 63.740889 
" style="fill:none;stroke:#990000;stroke-linecap:square;stroke-width:1.5;"/>
   </g>
   <g id="patch_7">
    <path d="M 492.97 213.746667 
L 492.97 39.44 
" style="fill:none;stroke:#000000;stroke-linecap:square;stroke-linejoin:miter;stroke-width:0.8;"/>
   </g>
   <g id="patch_8">
    <path d="M 492.97 213.746667 
L 844.56 213.746667 
" style="fill:none;stroke:#000000;stroke-linecap:square;stroke-linejoin:miter;stroke-width:0.8;"/>
   </g>
   <g id="text_30">
    <!-- Model -->
    <g transform="translate(641.741094 33.44)scale(0.18 -0.18)">
     <defs>
      <path d="M 9.8125 72.90625 
L 24.515625 72.90625 
L 43.109375 23.296875 
L 61.8125 72.90625 
L 76.515625 72.90625 
L 76.515625 0 
L 66.890625 0 
L 66.890625 64.015625 
L 48.09375 14.015625 
L 38.1875 14.015625 
L 19.390625 64.015625 
L 19.390625 0 
L 9.8125 0 
z
" id="DejaVuSans-77"/>
     </defs>
     <use xlink:href="#DejaVuSans-77"/>
     <use x="86.279297" xlink:href="#DejaVuSans-111"/>
     <use x="147.460938" xlink:href="#DejaVuSans-100"/>
     <use x="210.9375" xlink:href="#DejaVuSans-101"/>
     <use x="272.460938" xlink:href="#DejaVuSans-108"/>
    </g>
   </g>
   <g id="legend_2">
    <g id="patch_9">
     <path d="M 501.37 84.2675 
L 590.618125 84.2675 
Q 593.018125 84.2675 593.018125 81.8675 
L 593.018125 47.84 
Q 593.018125 45.44 590.618125 45.44 
L 501.37 45.44 
Q 498.97 45.44 498.97 47.84 
L 498.97 81.8675 
Q 498.97 84.2675 501.37 84.2675 
z
" style="fill:#ffffff;opacity:0.8;stroke:#cccccc;stroke-linejoin:miter;"/>
    </g>
    <g id="line2d_31">
     <path d="M 503.77 55.158125 
L 527.77 55.158125 
" style="fill:none;stroke:#011f5b;stroke-linecap:square;stroke-width:1.5;"/>
    </g>
    <g id="line2d_32"/>
    <g id="text_31">
     <!-- Visual -->
     <g transform="translate(537.37 59.358125)scale(0.12 -0.12)">
      <use xlink:href="#DejaVuSans-86"/>
      <use x="66.158203" xlink:href="#DejaVuSans-105"/>
      <use x="93.941406" xlink:href="#DejaVuSans-115"/>
      <use x="146.041016" xlink:href="#DejaVuSans-117"/>
      <use x="209.419922" xlink:href="#DejaVuSans-97"/>
      <use x="270.699219" xlink:href="#DejaVuSans-108"/>
     </g>
    </g>
    <g id="line2d_33">
     <path d="M 503.77 72.771875 
L 527.77 72.771875 
" style="fill:none;stroke:#990000;stroke-linecap:square;stroke-width:1.5;"/>
    </g>
    <g id="line2d_34"/>
    <g id="text_32">
     <!-- Auditory -->
     <g transform="translate(537.37 76.971875)scale(0.12 -0.12)">
      <use xlink:href="#DejaVuSans-65"/>
      <use x="68.408203" xlink:href="#DejaVuSans-117"/>
      <use x="131.787109" xlink:href="#DejaVuSans-100"/>
      <use x="195.263672" xlink:href="#DejaVuSans-105"/>
      <use x="223.046875" xlink:href="#DejaVuSans-116"/>
      <use x="262.255859" xlink:href="#DejaVuSans-111"/>
      <use x="323.4375" xlink:href="#DejaVuSans-114"/>
      <use x="364.550781" xlink:href="#DejaVuSans-121"/>
     </g>
    </g>
   </g>
  </g>
  <g id="axes_3">
   <g id="patch_10">
    <path d="M 70.69 435.653333 
L 422.28 435.653333 
L 422.28 261.346667 
L 70.69 261.346667 
z
" style="fill:#ffffff;"/>
   </g>
   <g id="patch_11">
    <path clip-path="url(#p6e261359f3)" d="M 120.917143 435.653333 
L 221.371429 435.653333 
L 221.371429 375.687775 
L 120.917143 375.687775 
z
" style="fill:#011f5b;opacity:0.5;stroke:#000000;stroke-linejoin:miter;"/>
   </g>
   <g id="patch_12">
    <path clip-path="url(#p6e261359f3)" d="M 271.598571 435.653333 
L 372.052857 435.653333 
L 372.052857 379.790161 
L 271.598571 379.790161 
z
" style="fill:#990000;opacity:0.5;stroke:#000000;stroke-linejoin:miter;"/>
   </g>
   <g id="matplotlib.axis_5">
    <g id="xtick_11">
     <g id="line2d_35">
      <g>
       <use style="stroke:#000000;stroke-width:0.8;" x="171.144286" xlink:href="#mf53752da1b" y="435.653333"/>
      </g>
     </g>
     <g id="text_33">
      <!-- Visual -->
      <g transform="translate(150.251473 453.291146)scale(0.14 -0.14)">
       <use xlink:href="#DejaVuSans-86"/>
       <use x="66.158203" xlink:href="#DejaVuSans-105"/>
       <use x="93.941406" xlink:href="#DejaVuSans-115"/>
       <use x="146.041016" xlink:href="#DejaVuSans-117"/>
       <use x="209.419922" xlink:href="#DejaVuSans-97"/>
       <use x="270.699219" xlink:href="#DejaVuSans-108"/>
      </g>
     </g>
    </g>
    <g id="xtick_12">
     <g id="line2d_36">
      <g>
       <use style="stroke:#000000;stroke-width:0.8;" x="321.825714" xlink:href="#mf53752da1b" y="435.653333"/>
      </g>
     </g>
     <g id="text_34">
      <!-- Auditory -->
      <g transform="translate(292.164308 453.291146)scale(0.14 -0.14)">
       <use xlink:href="#DejaVuSans-65"/>
       <use x="68.408203" xlink:href="#DejaVuSans-117"/>
       <use x="131.787109" xlink:href="#DejaVuSans-100"/>
       <use x="195.263672" xlink:href="#DejaVuSans-105"/>
       <use x="223.046875" xlink:href="#DejaVuSans-116"/>
       <use x="262.255859" xlink:href="#DejaVuSans-111"/>
       <use x="323.4375" xlink:href="#DejaVuSans-114"/>
       <use x="364.550781" xlink:href="#DejaVuSans-121"/>
      </g>
     </g>
    </g>
    <g id="text_35">
     <!-- Modality -->
     <g transform="translate(208.128125 473.879896)scale(0.18 -0.18)">
      <use xlink:href="#DejaVuSans-77"/>
      <use x="86.279297" xlink:href="#DejaVuSans-111"/>
      <use x="147.460938" xlink:href="#DejaVuSans-100"/>
      <use x="210.9375" xlink:href="#DejaVuSans-97"/>
      <use x="272.216797" xlink:href="#DejaVuSans-108"/>
      <use x="300" xlink:href="#DejaVuSans-105"/>
      <use x="327.783203" xlink:href="#DejaVuSans-116"/>
      <use x="366.992188" xlink:href="#DejaVuSans-121"/>
     </g>
    </g>
   </g>
   <g id="matplotlib.axis_6">
    <g id="ytick_13">
     <g id="line2d_37">
      <g>
       <use style="stroke:#000000;stroke-width:0.8;" x="70.69" xlink:href="#m5255d0014b" y="435.653333"/>
      </g>
     </g>
     <g id="text_36">
      <!-- 0.00 -->
      <g transform="translate(32.518125 440.97224)scale(0.14 -0.14)">
       <use xlink:href="#DejaVuSans-48"/>
       <use x="63.623047" xlink:href="#DejaVuSans-46"/>
       <use x="95.410156" xlink:href="#DejaVuSans-48"/>
       <use x="159.033203" xlink:href="#DejaVuSans-48"/>
      </g>
     </g>
    </g>
    <g id="ytick_14">
     <g id="line2d_38">
      <g>
       <use style="stroke:#000000;stroke-width:0.8;" x="70.69" xlink:href="#m5255d0014b" y="406.602222"/>
      </g>
     </g>
     <g id="text_37">
      <!-- 0.05 -->
      <g transform="translate(32.518125 411.921128)scale(0.14 -0.14)">
       <use xlink:href="#DejaVuSans-48"/>
       <use x="63.623047" xlink:href="#DejaVuSans-46"/>
       <use x="95.410156" xlink:href="#DejaVuSans-48"/>
       <use x="159.033203" xlink:href="#DejaVuSans-53"/>
      </g>
     </g>
    </g>
    <g id="ytick_15">
     <g id="line2d_39">
      <g>
       <use style="stroke:#000000;stroke-width:0.8;" x="70.69" xlink:href="#m5255d0014b" y="377.551111"/>
      </g>
     </g>
     <g id="text_38">
      <!-- 0.10 -->
      <g transform="translate(32.518125 382.870017)scale(0.14 -0.14)">
       <use xlink:href="#DejaVuSans-48"/>
       <use x="63.623047" xlink:href="#DejaVuSans-46"/>
       <use x="95.410156" xlink:href="#DejaVuSans-49"/>
       <use x="159.033203" xlink:href="#DejaVuSans-48"/>
      </g>
     </g>
    </g>
    <g id="ytick_16">
     <g id="line2d_40">
      <g>
       <use style="stroke:#000000;stroke-width:0.8;" x="70.69" xlink:href="#m5255d0014b" y="348.5"/>
      </g>
     </g>
     <g id="text_39">
      <!-- 0.15 -->
      <g transform="translate(32.518125 353.818906)scale(0.14 -0.14)">
       <use xlink:href="#DejaVuSans-48"/>
       <use x="63.623047" xlink:href="#DejaVuSans-46"/>
       <use x="95.410156" xlink:href="#DejaVuSans-49"/>
       <use x="159.033203" xlink:href="#DejaVuSans-53"/>
      </g>
     </g>
    </g>
    <g id="ytick_17">
     <g id="line2d_41">
      <g>
       <use style="stroke:#000000;stroke-width:0.8;" x="70.69" xlink:href="#m5255d0014b" y="319.448889"/>
      </g>
     </g>
     <g id="text_40">
      <!-- 0.20 -->
      <g transform="translate(32.518125 324.767795)scale(0.14 -0.14)">
       <use xlink:href="#DejaVuSans-48"/>
       <use x="63.623047" xlink:href="#DejaVuSans-46"/>
       <use x="95.410156" xlink:href="#DejaVuSans-50"/>
       <use x="159.033203" xlink:href="#DejaVuSans-48"/>
      </g>
     </g>
    </g>
    <g id="ytick_18">
     <g id="line2d_42">
      <g>
       <use style="stroke:#000000;stroke-width:0.8;" x="70.69" xlink:href="#m5255d0014b" y="290.397778"/>
      </g>
     </g>
     <g id="text_41">
      <!-- 0.25 -->
      <g transform="translate(32.518125 295.716684)scale(0.14 -0.14)">
       <use xlink:href="#DejaVuSans-48"/>
       <use x="63.623047" xlink:href="#DejaVuSans-46"/>
       <use x="95.410156" xlink:href="#DejaVuSans-50"/>
       <use x="159.033203" xlink:href="#DejaVuSans-53"/>
      </g>
     </g>
    </g>
    <g id="ytick_19">
     <g id="line2d_43">
      <g>
       <use style="stroke:#000000;stroke-width:0.8;" x="70.69" xlink:href="#m5255d0014b" y="261.346667"/>
      </g>
     </g>
     <g id="text_42">
      <!-- 0.30 -->
      <g transform="translate(32.518125 266.665573)scale(0.14 -0.14)">
       <use xlink:href="#DejaVuSans-48"/>
       <use x="63.623047" xlink:href="#DejaVuSans-46"/>
       <use x="95.410156" xlink:href="#DejaVuSans-51"/>
       <use x="159.033203" xlink:href="#DejaVuSans-48"/>
      </g>
     </g>
    </g>
    <g id="text_43">
     <!-- PLIs per Trial -->
     <g transform="translate(24.774688 405.342031)rotate(-90)scale(0.18 -0.18)">
      <defs>
       <path d="M 9.8125 72.90625 
L 19.671875 72.90625 
L 19.671875 8.296875 
L 55.171875 8.296875 
L 55.171875 0 
L 9.8125 0 
z
" id="DejaVuSans-76"/>
       <path d="M 9.8125 72.90625 
L 19.671875 72.90625 
L 19.671875 0 
L 9.8125 0 
z
" id="DejaVuSans-73"/>
       <path d="M 18.109375 8.203125 
L 18.109375 -20.796875 
L 9.078125 -20.796875 
L 9.078125 54.6875 
L 18.109375 54.6875 
L 18.109375 46.390625 
Q 20.953125 51.265625 25.265625 53.625 
Q 29.59375 56 35.59375 56 
Q 45.5625 56 51.78125 48.09375 
Q 58.015625 40.1875 58.015625 27.296875 
Q 58.015625 14.40625 51.78125 6.484375 
Q 45.5625 -1.421875 35.59375 -1.421875 
Q 29.59375 -1.421875 25.265625 0.953125 
Q 20.953125 3.328125 18.109375 8.203125 
z
M 48.6875 27.296875 
Q 48.6875 37.203125 44.609375 42.84375 
Q 40.53125 48.484375 33.40625 48.484375 
Q 26.265625 48.484375 22.1875 42.84375 
Q 18.109375 37.203125 18.109375 27.296875 
Q 18.109375 17.390625 22.1875 11.75 
Q 26.265625 6.109375 33.40625 6.109375 
Q 40.53125 6.109375 44.609375 11.75 
Q 48.6875 17.390625 48.6875 27.296875 
z
" id="DejaVuSans-112"/>
       <path d="M -0.296875 72.90625 
L 61.375 72.90625 
L 61.375 64.59375 
L 35.5 64.59375 
L 35.5 0 
L 25.59375 0 
L 25.59375 64.59375 
L -0.296875 64.59375 
z
" id="DejaVuSans-84"/>
      </defs>
      <use xlink:href="#DejaVuSans-80"/>
      <use x="60.302734" xlink:href="#DejaVuSans-76"/>
      <use x="116.015625" xlink:href="#DejaVuSans-73"/>
      <use x="145.507812" xlink:href="#DejaVuSans-115"/>
      <use x="197.607422" xlink:href="#DejaVuSans-32"/>
      <use x="229.394531" xlink:href="#DejaVuSans-112"/>
      <use x="292.871094" xlink:href="#DejaVuSans-101"/>
      <use x="354.394531" xlink:href="#DejaVuSans-114"/>
      <use x="395.507812" xlink:href="#DejaVuSans-32"/>
      <use x="427.294922" xlink:href="#DejaVuSans-84"/>
      <use x="473.628906" xlink:href="#DejaVuSans-114"/>
      <use x="514.742188" xlink:href="#DejaVuSans-105"/>
      <use x="542.525391" xlink:href="#DejaVuSans-97"/>
      <use x="603.804688" xlink:href="#DejaVuSans-108"/>
     </g>
    </g>
   </g>
   <g id="LineCollection_1">
    <path clip-path="url(#p6e261359f3)" d="M 171.144286 384.050048 
L 171.144286 367.325502 
" style="fill:none;stroke:#000000;stroke-width:1.5;"/>
    <path clip-path="url(#p6e261359f3)" d="M 321.825714 388.010111 
L 321.825714 371.570211 
" style="fill:none;stroke:#000000;stroke-width:1.5;"/>
   </g>
   <g id="line2d_44">
    <defs>
     <path d="M 3 0 
L -3 -0 
" id="m1d327878cf" style="stroke:#000000;"/>
    </defs>
    <g clip-path="url(#p6e261359f3)">
     <use style="stroke:#000000;" x="171.144286" xlink:href="#m1d327878cf" y="384.050048"/>
     <use style="stroke:#000000;" x="321.825714" xlink:href="#m1d327878cf" y="388.010111"/>
    </g>
   </g>
   <g id="line2d_45">
    <g clip-path="url(#p6e261359f3)">
     <use style="stroke:#000000;" x="171.144286" xlink:href="#m1d327878cf" y="367.325502"/>
     <use style="stroke:#000000;" x="321.825714" xlink:href="#m1d327878cf" y="371.570211"/>
    </g>
   </g>
   <g id="patch_13">
    <path d="M 70.69 435.653333 
L 70.69 261.346667 
" style="fill:none;stroke:#000000;stroke-linecap:square;stroke-linejoin:miter;stroke-width:0.8;"/>
   </g>
   <g id="patch_14">
    <path d="M 70.69 435.653333 
L 422.28 435.653333 
" style="fill:none;stroke:#000000;stroke-linecap:square;stroke-linejoin:miter;stroke-width:0.8;"/>
   </g>
  </g>
  <g id="axes_4">
   <g id="patch_15">
    <path d="M 492.97 435.653333 
L 844.56 435.653333 
L 844.56 261.346667 
L 492.97 261.346667 
z
" style="fill:#ffffff;"/>
   </g>
   <g id="patch_16">
    <path clip-path="url(#p3bb3bab78f)" d="M 543.197143 435.653333 
L 643.651429 435.653333 
L 643.651429 349.033955 
L 543.197143 349.033955 
z
" style="fill:#011f5b;opacity:0.5;stroke:#000000;stroke-linejoin:miter;"/>
   </g>
   <g id="patch_17">
    <path clip-path="url(#p3bb3bab78f)" d="M 693.878571 435.653333 
L 794.332857 435.653333 
L 794.332857 418.977125 
L 693.878571 418.977125 
z
" style="fill:#990000;opacity:0.5;stroke:#000000;stroke-linejoin:miter;"/>
   </g>
   <g id="matplotlib.axis_7">
    <g id="xtick_13">
     <g id="line2d_46">
      <g>
       <use style="stroke:#000000;stroke-width:0.8;" x="593.424286" xlink:href="#mf53752da1b" y="435.653333"/>
      </g>
     </g>
     <g id="text_44">
      <!-- Visual -->
      <g transform="translate(572.531473 453.291146)scale(0.14 -0.14)">
       <use xlink:href="#DejaVuSans-86"/>
       <use x="66.158203" xlink:href="#DejaVuSans-105"/>
       <use x="93.941406" xlink:href="#DejaVuSans-115"/>
       <use x="146.041016" xlink:href="#DejaVuSans-117"/>
       <use x="209.419922" xlink:href="#DejaVuSans-97"/>
       <use x="270.699219" xlink:href="#DejaVuSans-108"/>
      </g>
     </g>
    </g>
    <g id="xtick_14">
     <g id="line2d_47">
      <g>
       <use style="stroke:#000000;stroke-width:0.8;" x="744.105714" xlink:href="#mf53752da1b" y="435.653333"/>
      </g>
     </g>
     <g id="text_45">
      <!-- Auditory -->
      <g transform="translate(714.444308 453.291146)scale(0.14 -0.14)">
       <use xlink:href="#DejaVuSans-65"/>
       <use x="68.408203" xlink:href="#DejaVuSans-117"/>
       <use x="131.787109" xlink:href="#DejaVuSans-100"/>
       <use x="195.263672" xlink:href="#DejaVuSans-105"/>
       <use x="223.046875" xlink:href="#DejaVuSans-116"/>
       <use x="262.255859" xlink:href="#DejaVuSans-111"/>
       <use x="323.4375" xlink:href="#DejaVuSans-114"/>
       <use x="364.550781" xlink:href="#DejaVuSans-121"/>
      </g>
     </g>
    </g>
    <g id="text_46">
     <!-- Modality -->
     <g transform="translate(630.408125 473.879896)scale(0.18 -0.18)">
      <use xlink:href="#DejaVuSans-77"/>
      <use x="86.279297" xlink:href="#DejaVuSans-111"/>
      <use x="147.460938" xlink:href="#DejaVuSans-100"/>
      <use x="210.9375" xlink:href="#DejaVuSans-97"/>
      <use x="272.216797" xlink:href="#DejaVuSans-108"/>
      <use x="300" xlink:href="#DejaVuSans-105"/>
      <use x="327.783203" xlink:href="#DejaVuSans-116"/>
      <use x="366.992188" xlink:href="#DejaVuSans-121"/>
     </g>
    </g>
   </g>
   <g id="matplotlib.axis_8">
    <g id="ytick_20">
     <g id="line2d_48">
      <g>
       <use style="stroke:#000000;stroke-width:0.8;" x="492.97" xlink:href="#m5255d0014b" y="435.653333"/>
      </g>
     </g>
     <g id="text_47">
      <!-- 0.00 -->
      <g transform="translate(454.798125 440.97224)scale(0.14 -0.14)">
       <use xlink:href="#DejaVuSans-48"/>
       <use x="63.623047" xlink:href="#DejaVuSans-46"/>
       <use x="95.410156" xlink:href="#DejaVuSans-48"/>
       <use x="159.033203" xlink:href="#DejaVuSans-48"/>
      </g>
     </g>
    </g>
    <g id="ytick_21">
     <g id="line2d_49">
      <g>
       <use style="stroke:#000000;stroke-width:0.8;" x="492.97" xlink:href="#m5255d0014b" y="406.602222"/>
      </g>
     </g>
     <g id="text_48">
      <!-- 0.05 -->
      <g transform="translate(454.798125 411.921128)scale(0.14 -0.14)">
       <use xlink:href="#DejaVuSans-48"/>
       <use x="63.623047" xlink:href="#DejaVuSans-46"/>
       <use x="95.410156" xlink:href="#DejaVuSans-48"/>
       <use x="159.033203" xlink:href="#DejaVuSans-53"/>
      </g>
     </g>
    </g>
    <g id="ytick_22">
     <g id="line2d_50">
      <g>
       <use style="stroke:#000000;stroke-width:0.8;" x="492.97" xlink:href="#m5255d0014b" y="377.551111"/>
      </g>
     </g>
     <g id="text_49">
      <!-- 0.10 -->
      <g transform="translate(454.798125 382.870017)scale(0.14 -0.14)">
       <use xlink:href="#DejaVuSans-48"/>
       <use x="63.623047" xlink:href="#DejaVuSans-46"/>
       <use x="95.410156" xlink:href="#DejaVuSans-49"/>
       <use x="159.033203" xlink:href="#DejaVuSans-48"/>
      </g>
     </g>
    </g>
    <g id="ytick_23">
     <g id="line2d_51">
      <g>
       <use style="stroke:#000000;stroke-width:0.8;" x="492.97" xlink:href="#m5255d0014b" y="348.5"/>
      </g>
     </g>
     <g id="text_50">
      <!-- 0.15 -->
      <g transform="translate(454.798125 353.818906)scale(0.14 -0.14)">
       <use xlink:href="#DejaVuSans-48"/>
       <use x="63.623047" xlink:href="#DejaVuSans-46"/>
       <use x="95.410156" xlink:href="#DejaVuSans-49"/>
       <use x="159.033203" xlink:href="#DejaVuSans-53"/>
      </g>
     </g>
    </g>
    <g id="ytick_24">
     <g id="line2d_52">
      <g>
       <use style="stroke:#000000;stroke-width:0.8;" x="492.97" xlink:href="#m5255d0014b" y="319.448889"/>
      </g>
     </g>
     <g id="text_51">
      <!-- 0.20 -->
      <g transform="translate(454.798125 324.767795)scale(0.14 -0.14)">
       <use xlink:href="#DejaVuSans-48"/>
       <use x="63.623047" xlink:href="#DejaVuSans-46"/>
       <use x="95.410156" xlink:href="#DejaVuSans-50"/>
       <use x="159.033203" xlink:href="#DejaVuSans-48"/>
      </g>
     </g>
    </g>
    <g id="ytick_25">
     <g id="line2d_53">
      <g>
       <use style="stroke:#000000;stroke-width:0.8;" x="492.97" xlink:href="#m5255d0014b" y="290.397778"/>
      </g>
     </g>
     <g id="text_52">
      <!-- 0.25 -->
      <g transform="translate(454.798125 295.716684)scale(0.14 -0.14)">
       <use xlink:href="#DejaVuSans-48"/>
       <use x="63.623047" xlink:href="#DejaVuSans-46"/>
       <use x="95.410156" xlink:href="#DejaVuSans-50"/>
       <use x="159.033203" xlink:href="#DejaVuSans-53"/>
      </g>
     </g>
    </g>
    <g id="ytick_26">
     <g id="line2d_54">
      <g>
       <use style="stroke:#000000;stroke-width:0.8;" x="492.97" xlink:href="#m5255d0014b" y="261.346667"/>
      </g>
     </g>
     <g id="text_53">
      <!-- 0.30 -->
      <g transform="translate(454.798125 266.665573)scale(0.14 -0.14)">
       <use xlink:href="#DejaVuSans-48"/>
       <use x="63.623047" xlink:href="#DejaVuSans-46"/>
       <use x="95.410156" xlink:href="#DejaVuSans-51"/>
       <use x="159.033203" xlink:href="#DejaVuSans-48"/>
      </g>
     </g>
    </g>
    <g id="text_54">
     <!-- PLIs per Trial -->
     <g transform="translate(447.054688 405.342031)rotate(-90)scale(0.18 -0.18)">
      <use xlink:href="#DejaVuSans-80"/>
      <use x="60.302734" xlink:href="#DejaVuSans-76"/>
      <use x="116.015625" xlink:href="#DejaVuSans-73"/>
      <use x="145.507812" xlink:href="#DejaVuSans-115"/>
      <use x="197.607422" xlink:href="#DejaVuSans-32"/>
      <use x="229.394531" xlink:href="#DejaVuSans-112"/>
      <use x="292.871094" xlink:href="#DejaVuSans-101"/>
      <use x="354.394531" xlink:href="#DejaVuSans-114"/>
      <use x="395.507812" xlink:href="#DejaVuSans-32"/>
      <use x="427.294922" xlink:href="#DejaVuSans-84"/>
      <use x="473.628906" xlink:href="#DejaVuSans-114"/>
      <use x="514.742188" xlink:href="#DejaVuSans-105"/>
      <use x="542.525391" xlink:href="#DejaVuSans-97"/>
      <use x="603.804688" xlink:href="#DejaVuSans-108"/>
     </g>
    </g>
   </g>
   <g id="LineCollection_2">
    <path clip-path="url(#p3bb3bab78f)" d="M 593.424286 351.522505 
L 593.424286 346.545405 
" style="fill:none;stroke:#000000;stroke-width:1.5;"/>
    <path clip-path="url(#p3bb3bab78f)" d="M 744.105714 419.816501 
L 744.105714 418.13775 
" style="fill:none;stroke:#000000;stroke-width:1.5;"/>
   </g>
   <g id="line2d_55">
    <g clip-path="url(#p3bb3bab78f)">
     <use style="stroke:#000000;" x="593.424286" xlink:href="#m1d327878cf" y="351.522505"/>
     <use style="stroke:#000000;" x="744.105714" xlink:href="#m1d327878cf" y="419.816501"/>
    </g>
   </g>
   <g id="line2d_56">
    <g clip-path="url(#p3bb3bab78f)">
     <use style="stroke:#000000;" x="593.424286" xlink:href="#m1d327878cf" y="346.545405"/>
     <use style="stroke:#000000;" x="744.105714" xlink:href="#m1d327878cf" y="418.13775"/>
    </g>
   </g>
   <g id="patch_18">
    <path d="M 492.97 435.653333 
L 492.97 261.346667 
" style="fill:none;stroke:#000000;stroke-linecap:square;stroke-linejoin:miter;stroke-width:0.8;"/>
   </g>
   <g id="patch_19">
    <path d="M 492.97 435.653333 
L 844.56 435.653333 
" style="fill:none;stroke:#000000;stroke-linecap:square;stroke-linejoin:miter;stroke-width:0.8;"/>
   </g>
  </g>
  <g id="axes_5">
   <g id="patch_20">
    <path d="M 70.69 657.56 
L 422.28 657.56 
L 422.28 483.253333 
L 70.69 483.253333 
z
" style="fill:#ffffff;"/>
   </g>
   <g id="PolyCollection_5">
    <defs>
     <path d="M 86.671364 -187.437489 
L 86.671364 -202.41303 
L 166.578182 -105.27718 
L 246.485 -95.834814 
L 326.391818 -94.707708 
L 406.298636 -80.526882 
L 406.298636 -74.543188 
L 406.298636 -74.543188 
L 326.391818 -85.929421 
L 246.485 -87.110671 
L 166.578182 -95.89399 
L 86.671364 -187.437489 
z
" id="m8a7a5a917d" style="stroke:#011f5b;stroke-opacity:0.3;"/>
    </defs>
    <g clip-path="url(#p6dc5a65acf)">
     <use style="fill:#011f5b;fill-opacity:0.3;stroke:#011f5b;stroke-opacity:0.3;" x="0" xlink:href="#m8a7a5a917d" y="720"/>
    </g>
   </g>
   <g id="PolyCollection_6">
    <defs>
     <path d="M 86.671364 -160.69944 
L 86.671364 -174.606622 
L 166.578182 -105.411989 
L 246.485 -99.705463 
L 326.391818 -91.172619 
L 406.298636 -85.929373 
L 406.298636 -78.983079 
L 406.298636 -78.983079 
L 326.391818 -83.539992 
L 246.485 -90.939099 
L 166.578182 -95.998903 
L 86.671364 -160.69944 
z
" id="mb2f221edb6" style="stroke:#990000;stroke-opacity:0.3;"/>
    </defs>
    <g clip-path="url(#p6dc5a65acf)">
     <use style="fill:#990000;fill-opacity:0.3;stroke:#990000;stroke-opacity:0.3;" x="0" xlink:href="#mb2f221edb6" y="720"/>
    </g>
   </g>
   <g id="matplotlib.axis_9">
    <g id="xtick_15">
     <g id="line2d_57">
      <g>
       <use style="stroke:#000000;stroke-width:0.8;" x="86.671364" xlink:href="#mf53752da1b" y="657.56"/>
      </g>
     </g>
     <g id="text_55">
      <!-- 1 -->
      <g transform="translate(82.217614 675.197813)scale(0.14 -0.14)">
       <use xlink:href="#DejaVuSans-49"/>
      </g>
     </g>
    </g>
    <g id="xtick_16">
     <g id="line2d_58">
      <g>
       <use style="stroke:#000000;stroke-width:0.8;" x="166.578182" xlink:href="#mf53752da1b" y="657.56"/>
      </g>
     </g>
     <g id="text_56">
      <!-- 2 -->
      <g transform="translate(162.124432 675.197813)scale(0.14 -0.14)">
       <use xlink:href="#DejaVuSans-50"/>
      </g>
     </g>
    </g>
    <g id="xtick_17">
     <g id="line2d_59">
      <g>
       <use style="stroke:#000000;stroke-width:0.8;" x="246.485" xlink:href="#mf53752da1b" y="657.56"/>
      </g>
     </g>
     <g id="text_57">
      <!-- 3 -->
      <g transform="translate(242.03125 675.197813)scale(0.14 -0.14)">
       <use xlink:href="#DejaVuSans-51"/>
      </g>
     </g>
    </g>
    <g id="xtick_18">
     <g id="line2d_60">
      <g>
       <use style="stroke:#000000;stroke-width:0.8;" x="326.391818" xlink:href="#mf53752da1b" y="657.56"/>
      </g>
     </g>
     <g id="text_58">
      <!-- 4 -->
      <g transform="translate(321.938068 675.197813)scale(0.14 -0.14)">
       <use xlink:href="#DejaVuSans-52"/>
      </g>
     </g>
    </g>
    <g id="xtick_19">
     <g id="line2d_61">
      <g>
       <use style="stroke:#000000;stroke-width:0.8;" x="406.298636" xlink:href="#mf53752da1b" y="657.56"/>
      </g>
     </g>
     <g id="text_59">
      <!-- 5 -->
      <g transform="translate(401.844886 675.197813)scale(0.14 -0.14)">
       <use xlink:href="#DejaVuSans-53"/>
      </g>
     </g>
    </g>
    <g id="text_60">
     <!-- List Recency -->
     <g transform="translate(190.040938 695.786563)scale(0.18 -0.18)">
      <use xlink:href="#DejaVuSans-76"/>
      <use x="55.712891" xlink:href="#DejaVuSans-105"/>
      <use x="83.496094" xlink:href="#DejaVuSans-115"/>
      <use x="135.595703" xlink:href="#DejaVuSans-116"/>
      <use x="174.804688" xlink:href="#DejaVuSans-32"/>
      <use x="206.591797" xlink:href="#DejaVuSans-82"/>
      <use x="271.574219" xlink:href="#DejaVuSans-101"/>
      <use x="333.097656" xlink:href="#DejaVuSans-99"/>
      <use x="388.078125" xlink:href="#DejaVuSans-101"/>
      <use x="449.601562" xlink:href="#DejaVuSans-110"/>
      <use x="512.980469" xlink:href="#DejaVuSans-99"/>
      <use x="567.960938" xlink:href="#DejaVuSans-121"/>
     </g>
    </g>
   </g>
   <g id="matplotlib.axis_10">
    <g id="ytick_27">
     <g id="line2d_62">
      <g>
       <use style="stroke:#000000;stroke-width:0.8;" x="70.69" xlink:href="#m5255d0014b" y="657.56"/>
      </g>
     </g>
     <g id="text_61">
      <!-- 0.0 -->
      <g transform="translate(41.425625 662.878906)scale(0.14 -0.14)">
       <use xlink:href="#DejaVuSans-48"/>
       <use x="63.623047" xlink:href="#DejaVuSans-46"/>
       <use x="95.410156" xlink:href="#DejaVuSans-48"/>
      </g>
     </g>
    </g>
    <g id="ytick_28">
     <g id="line2d_63">
      <g>
       <use style="stroke:#000000;stroke-width:0.8;" x="70.69" xlink:href="#m5255d0014b" y="622.698667"/>
      </g>
     </g>
     <g id="text_62">
      <!-- 0.1 -->
      <g transform="translate(41.425625 628.017573)scale(0.14 -0.14)">
       <use xlink:href="#DejaVuSans-48"/>
       <use x="63.623047" xlink:href="#DejaVuSans-46"/>
       <use x="95.410156" xlink:href="#DejaVuSans-49"/>
      </g>
     </g>
    </g>
    <g id="ytick_29">
     <g id="line2d_64">
      <g>
       <use style="stroke:#000000;stroke-width:0.8;" x="70.69" xlink:href="#m5255d0014b" y="587.837333"/>
      </g>
     </g>
     <g id="text_63">
      <!-- 0.2 -->
      <g transform="translate(41.425625 593.15624)scale(0.14 -0.14)">
       <use xlink:href="#DejaVuSans-48"/>
       <use x="63.623047" xlink:href="#DejaVuSans-46"/>
       <use x="95.410156" xlink:href="#DejaVuSans-50"/>
      </g>
     </g>
    </g>
    <g id="ytick_30">
     <g id="line2d_65">
      <g>
       <use style="stroke:#000000;stroke-width:0.8;" x="70.69" xlink:href="#m5255d0014b" y="552.976"/>
      </g>
     </g>
     <g id="text_64">
      <!-- 0.3 -->
      <g transform="translate(41.425625 558.294906)scale(0.14 -0.14)">
       <use xlink:href="#DejaVuSans-48"/>
       <use x="63.623047" xlink:href="#DejaVuSans-46"/>
       <use x="95.410156" xlink:href="#DejaVuSans-51"/>
      </g>
     </g>
    </g>
    <g id="ytick_31">
     <g id="line2d_66">
      <g>
       <use style="stroke:#000000;stroke-width:0.8;" x="70.69" xlink:href="#m5255d0014b" y="518.114667"/>
      </g>
     </g>
     <g id="text_65">
      <!-- 0.4 -->
      <g transform="translate(41.425625 523.433573)scale(0.14 -0.14)">
       <use xlink:href="#DejaVuSans-48"/>
       <use x="63.623047" xlink:href="#DejaVuSans-46"/>
       <use x="95.410156" xlink:href="#DejaVuSans-52"/>
      </g>
     </g>
    </g>
    <g id="ytick_32">
     <g id="line2d_67">
      <g>
       <use style="stroke:#000000;stroke-width:0.8;" x="70.69" xlink:href="#m5255d0014b" y="483.253333"/>
      </g>
     </g>
     <g id="text_66">
      <!-- 0.5 -->
      <g transform="translate(41.425625 488.57224)scale(0.14 -0.14)">
       <use xlink:href="#DejaVuSans-48"/>
       <use x="63.623047" xlink:href="#DejaVuSans-46"/>
       <use x="95.410156" xlink:href="#DejaVuSans-53"/>
      </g>
     </g>
    </g>
    <g id="text_67">
     <!-- Proportion of PLIs -->
     <g transform="translate(33.682188 649.02026)rotate(-90)scale(0.18 -0.18)">
      <use xlink:href="#DejaVuSans-80"/>
      <use x="58.552734" xlink:href="#DejaVuSans-114"/>
      <use x="97.416016" xlink:href="#DejaVuSans-111"/>
      <use x="158.597656" xlink:href="#DejaVuSans-112"/>
      <use x="222.074219" xlink:href="#DejaVuSans-111"/>
      <use x="283.255859" xlink:href="#DejaVuSans-114"/>
      <use x="324.369141" xlink:href="#DejaVuSans-116"/>
      <use x="363.578125" xlink:href="#DejaVuSans-105"/>
      <use x="391.361328" xlink:href="#DejaVuSans-111"/>
      <use x="452.542969" xlink:href="#DejaVuSans-110"/>
      <use x="515.921875" xlink:href="#DejaVuSans-32"/>
      <use x="547.708984" xlink:href="#DejaVuSans-111"/>
      <use x="608.890625" xlink:href="#DejaVuSans-102"/>
      <use x="644.095703" xlink:href="#DejaVuSans-32"/>
      <use x="675.882812" xlink:href="#DejaVuSans-80"/>
      <use x="736.185547" xlink:href="#DejaVuSans-76"/>
      <use x="791.898438" xlink:href="#DejaVuSans-73"/>
      <use x="821.390625" xlink:href="#DejaVuSans-115"/>
     </g>
    </g>
   </g>
   <g id="line2d_68">
    <path clip-path="url(#p6dc5a65acf)" d="M 86.671364 525.07474 
L 166.578182 619.414415 
L 246.485 628.527257 
L 326.391818 629.681435 
L 406.298636 642.464965 
" style="fill:none;stroke:#011f5b;stroke-linecap:square;stroke-width:1.5;"/>
   </g>
   <g id="line2d_69">
    <path clip-path="url(#p6dc5a65acf)" d="M 86.671364 552.346969 
L 166.578182 619.294554 
L 246.485 624.677719 
L 326.391818 632.643695 
L 406.298636 637.543774 
" style="fill:none;stroke:#990000;stroke-linecap:square;stroke-width:1.5;"/>
   </g>
   <g id="patch_21">
    <path d="M 70.69 657.56 
L 70.69 483.253333 
" style="fill:none;stroke:#000000;stroke-linecap:square;stroke-linejoin:miter;stroke-width:0.8;"/>
   </g>
   <g id="patch_22">
    <path d="M 70.69 657.56 
L 422.28 657.56 
" style="fill:none;stroke:#000000;stroke-linecap:square;stroke-linejoin:miter;stroke-width:0.8;"/>
   </g>
   <g id="legend_3">
    <g id="patch_23">
     <path d="M 324.631875 528.080833 
L 413.88 528.080833 
Q 416.28 528.080833 416.28 525.680833 
L 416.28 491.653333 
Q 416.28 489.253333 413.88 489.253333 
L 324.631875 489.253333 
Q 322.231875 489.253333 322.231875 491.653333 
L 322.231875 525.680833 
Q 322.231875 528.080833 324.631875 528.080833 
z
" style="fill:#ffffff;opacity:0.8;stroke:#cccccc;stroke-linejoin:miter;"/>
    </g>
    <g id="line2d_70">
     <path d="M 327.031875 498.971458 
L 351.031875 498.971458 
" style="fill:none;stroke:#011f5b;stroke-linecap:square;stroke-width:1.5;"/>
    </g>
    <g id="line2d_71"/>
    <g id="text_68">
     <!-- Visual -->
     <g transform="translate(360.631875 503.171458)scale(0.12 -0.12)">
      <use xlink:href="#DejaVuSans-86"/>
      <use x="66.158203" xlink:href="#DejaVuSans-105"/>
      <use x="93.941406" xlink:href="#DejaVuSans-115"/>
      <use x="146.041016" xlink:href="#DejaVuSans-117"/>
      <use x="209.419922" xlink:href="#DejaVuSans-97"/>
      <use x="270.699219" xlink:href="#DejaVuSans-108"/>
     </g>
    </g>
    <g id="line2d_72">
     <path d="M 327.031875 516.585208 
L 351.031875 516.585208 
" style="fill:none;stroke:#990000;stroke-linecap:square;stroke-width:1.5;"/>
    </g>
    <g id="line2d_73"/>
    <g id="text_69">
     <!-- Auditory -->
     <g transform="translate(360.631875 520.785208)scale(0.12 -0.12)">
      <use xlink:href="#DejaVuSans-65"/>
      <use x="68.408203" xlink:href="#DejaVuSans-117"/>
      <use x="131.787109" xlink:href="#DejaVuSans-100"/>
      <use x="195.263672" xlink:href="#DejaVuSans-105"/>
      <use x="223.046875" xlink:href="#DejaVuSans-116"/>
      <use x="262.255859" xlink:href="#DejaVuSans-111"/>
      <use x="323.4375" xlink:href="#DejaVuSans-114"/>
      <use x="364.550781" xlink:href="#DejaVuSans-121"/>
     </g>
    </g>
   </g>
  </g>
  <g id="axes_6">
   <g id="patch_24">
    <path d="M 492.97 657.56 
L 844.56 657.56 
L 844.56 483.253333 
L 492.97 483.253333 
z
" style="fill:#ffffff;"/>
   </g>
   <g id="PolyCollection_7">
    <defs>
     <path d="M 508.951364 -168.837846 
L 508.951364 -172.682489 
L 588.858182 -109.093975 
L 668.765 -88.998608 
L 748.671818 -86.926426 
L 828.578636 -86.256788 
L 828.578636 -84.398083 
L 828.578636 -84.398083 
L 748.671818 -85.085075 
L 668.765 -87.064552 
L 588.858182 -106.470066 
L 508.951364 -168.837846 
z
" id="mc4ca9604be" style="stroke:#011f5b;stroke-opacity:0.3;"/>
    </defs>
    <g clip-path="url(#p030464c762)">
     <use style="fill:#011f5b;fill-opacity:0.3;stroke:#011f5b;stroke-opacity:0.3;" x="0" xlink:href="#mc4ca9604be" y="720"/>
    </g>
   </g>
   <g id="PolyCollection_8">
    <defs>
     <path d="M 508.951364 -184.621069 
L 508.951364 -191.853011 
L 588.858182 -93.122503 
L 668.765 -86.780352 
L 748.671818 -87.55745 
L 828.578636 -87.958722 
L 828.578636 -84.396985 
L 828.578636 -84.396985 
L 748.671818 -84.098703 
L 668.765 -83.26687 
L 588.858182 -89.16174 
L 508.951364 -184.621069 
z
" id="m2f722f5872" style="stroke:#990000;stroke-opacity:0.3;"/>
    </defs>
    <g clip-path="url(#p030464c762)">
     <use style="fill:#990000;fill-opacity:0.3;stroke:#990000;stroke-opacity:0.3;" x="0" xlink:href="#m2f722f5872" y="720"/>
    </g>
   </g>
   <g id="matplotlib.axis_11">
    <g id="xtick_20">
     <g id="line2d_74">
      <g>
       <use style="stroke:#000000;stroke-width:0.8;" x="508.951364" xlink:href="#mf53752da1b" y="657.56"/>
      </g>
     </g>
     <g id="text_70">
      <!-- 1 -->
      <g transform="translate(504.497614 675.197813)scale(0.14 -0.14)">
       <use xlink:href="#DejaVuSans-49"/>
      </g>
     </g>
    </g>
    <g id="xtick_21">
     <g id="line2d_75">
      <g>
       <use style="stroke:#000000;stroke-width:0.8;" x="588.858182" xlink:href="#mf53752da1b" y="657.56"/>
      </g>
     </g>
     <g id="text_71">
      <!-- 2 -->
      <g transform="translate(584.404432 675.197813)scale(0.14 -0.14)">
       <use xlink:href="#DejaVuSans-50"/>
      </g>
     </g>
    </g>
    <g id="xtick_22">
     <g id="line2d_76">
      <g>
       <use style="stroke:#000000;stroke-width:0.8;" x="668.765" xlink:href="#mf53752da1b" y="657.56"/>
      </g>
     </g>
     <g id="text_72">
      <!-- 3 -->
      <g transform="translate(664.31125 675.197813)scale(0.14 -0.14)">
       <use xlink:href="#DejaVuSans-51"/>
      </g>
     </g>
    </g>
    <g id="xtick_23">
     <g id="line2d_77">
      <g>
       <use style="stroke:#000000;stroke-width:0.8;" x="748.671818" xlink:href="#mf53752da1b" y="657.56"/>
      </g>
     </g>
     <g id="text_73">
      <!-- 4 -->
      <g transform="translate(744.218068 675.197813)scale(0.14 -0.14)">
       <use xlink:href="#DejaVuSans-52"/>
      </g>
     </g>
    </g>
    <g id="xtick_24">
     <g id="line2d_78">
      <g>
       <use style="stroke:#000000;stroke-width:0.8;" x="828.578636" xlink:href="#mf53752da1b" y="657.56"/>
      </g>
     </g>
     <g id="text_74">
      <!-- 5 -->
      <g transform="translate(824.124886 675.197813)scale(0.14 -0.14)">
       <use xlink:href="#DejaVuSans-53"/>
      </g>
     </g>
    </g>
    <g id="text_75">
     <!-- List Recency -->
     <g transform="translate(612.320938 695.786563)scale(0.18 -0.18)">
      <use xlink:href="#DejaVuSans-76"/>
      <use x="55.712891" xlink:href="#DejaVuSans-105"/>
      <use x="83.496094" xlink:href="#DejaVuSans-115"/>
      <use x="135.595703" xlink:href="#DejaVuSans-116"/>
      <use x="174.804688" xlink:href="#DejaVuSans-32"/>
      <use x="206.591797" xlink:href="#DejaVuSans-82"/>
      <use x="271.574219" xlink:href="#DejaVuSans-101"/>
      <use x="333.097656" xlink:href="#DejaVuSans-99"/>
      <use x="388.078125" xlink:href="#DejaVuSans-101"/>
      <use x="449.601562" xlink:href="#DejaVuSans-110"/>
      <use x="512.980469" xlink:href="#DejaVuSans-99"/>
      <use x="567.960938" xlink:href="#DejaVuSans-121"/>
     </g>
    </g>
   </g>
   <g id="matplotlib.axis_12">
    <g id="ytick_33">
     <g id="line2d_79">
      <g>
       <use style="stroke:#000000;stroke-width:0.8;" x="492.97" xlink:href="#m5255d0014b" y="657.56"/>
      </g>
     </g>
     <g id="text_76">
      <!-- 0.0 -->
      <g transform="translate(463.705625 662.878906)scale(0.14 -0.14)">
       <use xlink:href="#DejaVuSans-48"/>
       <use x="63.623047" xlink:href="#DejaVuSans-46"/>
       <use x="95.410156" xlink:href="#DejaVuSans-48"/>
      </g>
     </g>
    </g>
    <g id="ytick_34">
     <g id="line2d_80">
      <g>
       <use style="stroke:#000000;stroke-width:0.8;" x="492.97" xlink:href="#m5255d0014b" y="622.698667"/>
      </g>
     </g>
     <g id="text_77">
      <!-- 0.1 -->
      <g transform="translate(463.705625 628.017573)scale(0.14 -0.14)">
       <use xlink:href="#DejaVuSans-48"/>
       <use x="63.623047" xlink:href="#DejaVuSans-46"/>
       <use x="95.410156" xlink:href="#DejaVuSans-49"/>
      </g>
     </g>
    </g>
    <g id="ytick_35">
     <g id="line2d_81">
      <g>
       <use style="stroke:#000000;stroke-width:0.8;" x="492.97" xlink:href="#m5255d0014b" y="587.837333"/>
      </g>
     </g>
     <g id="text_78">
      <!-- 0.2 -->
      <g transform="translate(463.705625 593.15624)scale(0.14 -0.14)">
       <use xlink:href="#DejaVuSans-48"/>
       <use x="63.623047" xlink:href="#DejaVuSans-46"/>
       <use x="95.410156" xlink:href="#DejaVuSans-50"/>
      </g>
     </g>
    </g>
    <g id="ytick_36">
     <g id="line2d_82">
      <g>
       <use style="stroke:#000000;stroke-width:0.8;" x="492.97" xlink:href="#m5255d0014b" y="552.976"/>
      </g>
     </g>
     <g id="text_79">
      <!-- 0.3 -->
      <g transform="translate(463.705625 558.294906)scale(0.14 -0.14)">
       <use xlink:href="#DejaVuSans-48"/>
       <use x="63.623047" xlink:href="#DejaVuSans-46"/>
       <use x="95.410156" xlink:href="#DejaVuSans-51"/>
      </g>
     </g>
    </g>
    <g id="ytick_37">
     <g id="line2d_83">
      <g>
       <use style="stroke:#000000;stroke-width:0.8;" x="492.97" xlink:href="#m5255d0014b" y="518.114667"/>
      </g>
     </g>
     <g id="text_80">
      <!-- 0.4 -->
      <g transform="translate(463.705625 523.433573)scale(0.14 -0.14)">
       <use xlink:href="#DejaVuSans-48"/>
       <use x="63.623047" xlink:href="#DejaVuSans-46"/>
       <use x="95.410156" xlink:href="#DejaVuSans-52"/>
      </g>
     </g>
    </g>
    <g id="ytick_38">
     <g id="line2d_84">
      <g>
       <use style="stroke:#000000;stroke-width:0.8;" x="492.97" xlink:href="#m5255d0014b" y="483.253333"/>
      </g>
     </g>
     <g id="text_81">
      <!-- 0.5 -->
      <g transform="translate(463.705625 488.57224)scale(0.14 -0.14)">
       <use xlink:href="#DejaVuSans-48"/>
       <use x="63.623047" xlink:href="#DejaVuSans-46"/>
       <use x="95.410156" xlink:href="#DejaVuSans-53"/>
      </g>
     </g>
    </g>
    <g id="text_82">
     <!-- Proportion of PLIs -->
     <g transform="translate(455.962188 649.02026)rotate(-90)scale(0.18 -0.18)">
      <use xlink:href="#DejaVuSans-80"/>
      <use x="58.552734" xlink:href="#DejaVuSans-114"/>
      <use x="97.416016" xlink:href="#DejaVuSans-111"/>
      <use x="158.597656" xlink:href="#DejaVuSans-112"/>
      <use x="222.074219" xlink:href="#DejaVuSans-111"/>
      <use x="283.255859" xlink:href="#DejaVuSans-114"/>
      <use x="324.369141" xlink:href="#DejaVuSans-116"/>
      <use x="363.578125" xlink:href="#DejaVuSans-105"/>
      <use x="391.361328" xlink:href="#DejaVuSans-111"/>
      <use x="452.542969" xlink:href="#DejaVuSans-110"/>
      <use x="515.921875" xlink:href="#DejaVuSans-32"/>
      <use x="547.708984" xlink:href="#DejaVuSans-111"/>
      <use x="608.890625" xlink:href="#DejaVuSans-102"/>
      <use x="644.095703" xlink:href="#DejaVuSans-32"/>
      <use x="675.882812" xlink:href="#DejaVuSans-80"/>
      <use x="736.185547" xlink:href="#DejaVuSans-76"/>
      <use x="791.898438" xlink:href="#DejaVuSans-73"/>
      <use x="821.390625" xlink:href="#DejaVuSans-115"/>
     </g>
    </g>
   </g>
   <g id="line2d_85">
    <path clip-path="url(#p030464c762)" d="M 508.951364 549.239832 
L 588.858182 612.21798 
L 668.765 631.96842 
L 748.671818 633.99425 
L 828.578636 634.672564 
" style="fill:none;stroke:#011f5b;stroke-linecap:square;stroke-width:1.5;"/>
   </g>
   <g id="line2d_86">
    <path clip-path="url(#p030464c762)" d="M 508.951364 531.76296 
L 588.858182 628.857879 
L 668.765 634.976389 
L 748.671818 634.171924 
L 828.578636 633.822147 
" style="fill:none;stroke:#990000;stroke-linecap:square;stroke-width:1.5;"/>
   </g>
   <g id="patch_25">
    <path d="M 492.97 657.56 
L 492.97 483.253333 
" style="fill:none;stroke:#000000;stroke-linecap:square;stroke-linejoin:miter;stroke-width:0.8;"/>
   </g>
   <g id="patch_26">
    <path d="M 492.97 657.56 
L 844.56 657.56 
" style="fill:none;stroke:#000000;stroke-linecap:square;stroke-linejoin:miter;stroke-width:0.8;"/>
   </g>
   <g id="legend_4">
    <g id="patch_27">
     <path d="M 746.911875 528.080833 
L 836.16 528.080833 
Q 838.56 528.080833 838.56 525.680833 
L 838.56 491.653333 
Q 838.56 489.253333 836.16 489.253333 
L 746.911875 489.253333 
Q 744.511875 489.253333 744.511875 491.653333 
L 744.511875 525.680833 
Q 744.511875 528.080833 746.911875 528.080833 
z
" style="fill:#ffffff;opacity:0.8;stroke:#cccccc;stroke-linejoin:miter;"/>
    </g>
    <g id="line2d_87">
     <path d="M 749.311875 498.971458 
L 773.311875 498.971458 
" style="fill:none;stroke:#011f5b;stroke-linecap:square;stroke-width:1.5;"/>
    </g>
    <g id="line2d_88"/>
    <g id="text_83">
     <!-- Visual -->
     <g transform="translate(782.911875 503.171458)scale(0.12 -0.12)">
      <use xlink:href="#DejaVuSans-86"/>
      <use x="66.158203" xlink:href="#DejaVuSans-105"/>
      <use x="93.941406" xlink:href="#DejaVuSans-115"/>
      <use x="146.041016" xlink:href="#DejaVuSans-117"/>
      <use x="209.419922" xlink:href="#DejaVuSans-97"/>
      <use x="270.699219" xlink:href="#DejaVuSans-108"/>
     </g>
    </g>
    <g id="line2d_89">
     <path d="M 749.311875 516.585208 
L 773.311875 516.585208 
" style="fill:none;stroke:#990000;stroke-linecap:square;stroke-width:1.5;"/>
    </g>
    <g id="line2d_90"/>
    <g id="text_84">
     <!-- Auditory -->
     <g transform="translate(782.911875 520.785208)scale(0.12 -0.12)">
      <use xlink:href="#DejaVuSans-65"/>
      <use x="68.408203" xlink:href="#DejaVuSans-117"/>
      <use x="131.787109" xlink:href="#DejaVuSans-100"/>
      <use x="195.263672" xlink:href="#DejaVuSans-105"/>
      <use x="223.046875" xlink:href="#DejaVuSans-116"/>
      <use x="262.255859" xlink:href="#DejaVuSans-111"/>
      <use x="323.4375" xlink:href="#DejaVuSans-114"/>
      <use x="364.550781" xlink:href="#DejaVuSans-121"/>
     </g>
    </g>
   </g>
  </g>
 </g>
 <defs>
  <clipPath id="pe676107576">
   <rect height="174.306667" width="351.59" x="70.69" y="39.44"/>
  </clipPath>
  <clipPath id="p68c46ab579">
   <rect height="174.306667" width="351.59" x="492.97" y="39.44"/>
  </clipPath>
  <clipPath id="p6e261359f3">
   <rect height="174.306667" width="351.59" x="70.69" y="261.346667"/>
  </clipPath>
  <clipPath id="p3bb3bab78f">
   <rect height="174.306667" width="351.59" x="492.97" y="261.346667"/>
  </clipPath>
  <clipPath id="p6dc5a65acf">
   <rect height="174.306667" width="351.59" x="70.69" y="483.253333"/>
  </clipPath>
  <clipPath id="p030464c762">
   <rect height="174.306667" width="351.59" x="492.97" y="483.253333"/>
  </clipPath>
 </defs>
</svg>
