<?xml version="1.0" encoding="utf-8" standalone="no"?>
<!DOCTYPE svg PUBLIC "-//W3C//DTD SVG 1.1//EN"
  "http://www.w3.org/Graphics/SVG/1.1/DTD/svg11.dtd">
<!-- Created with matplotlib (https://matplotlib.org/) -->
<svg height="396pt" version="1.1" viewBox="0 0 648 396" width="648pt" xmlns="http://www.w3.org/2000/svg" xmlns:xlink="http://www.w3.org/1999/xlink">
 <metadata>
  <rdf:RDF xmlns:cc="http://creativecommons.org/ns#" xmlns:dc="http://purl.org/dc/elements/1.1/" xmlns:rdf="http://www.w3.org/1999/02/22-rdf-syntax-ns#">
   <cc:Work>
    <dc:type rdf:resource="http://purl.org/dc/dcmitype/StillImage"/>
    <dc:date>2022-05-09T17:38:42.149997</dc:date>
    <dc:format>image/svg+xml</dc:format>
    <dc:creator>
     <cc:Agent>
      <dc:title>Matplotlib v3.3.2, https://matplotlib.org/</dc:title>
     </cc:Agent>
    </dc:creator>
   </cc:Work>
  </rdf:RDF>
 </metadata>
 <defs>
  <style type="text/css">*{stroke-linecap:butt;stroke-linejoin:round;}</style>
 </defs>
 <g id="figure_1">
  <g id="patch_1">
   <path d="M 0 396 
L 648 396 
L 648 0 
L 0 0 
z
" style="fill:none;"/>
  </g>
  <g id="axes_1">
   <g id="patch_2">
    <path d="M 70.69 333.56 
L 628.56 333.56 
L 628.56 24.94 
L 70.69 24.94 
z
" style="fill:#ffffff;"/>
   </g>
   <g id="PolyCollection_1">
    <defs>
     <path d="M 93.0048 -260.662273 
L 93.0048 -264.824742 
L 115.3196 -238.264097 
L 137.6344 -219.364188 
L 159.9492 -205.801552 
L 182.264 -202.346803 
L 204.5788 -200.413443 
L 226.8936 -202.137478 
L 249.2084 -207.101536 
L 271.5232 -219.175349 
L 293.838 -237.886151 
L 316.1528 -272.063051 
L 338.4676 -310.166746 
L 338.4676 -306.45159 
L 338.4676 -306.45159 
L 316.1528 -268.160902 
L 293.838 -233.787271 
L 271.5232 -215.085267 
L 249.2084 -203.009517 
L 226.8936 -197.94295 
L 204.5788 -196.244213 
L 182.264 -198.113934 
L 159.9492 -201.599807 
L 137.6344 -215.086582 
L 115.3196 -234.122404 
L 93.0048 -260.662273 
z
" id="m31b2ab4e19" style="stroke:#011f5b;stroke-opacity:0.3;"/>
    </defs>
    <g clip-path="url(#p0d283ecaa8)">
     <use style="fill:#011f5b;fill-opacity:0.3;stroke:#011f5b;stroke-opacity:0.3;" x="0" xlink:href="#m31b2ab4e19" y="396"/>
    </g>
   </g>
   <g id="PolyCollection_2">
    <defs>
     <path d="M 93.0048 -239.266302 
L 93.0048 -243.65666 
L 115.3196 -224.76692 
L 137.6344 -207.468318 
L 159.9492 -201.828352 
L 182.264 -197.31879 
L 204.5788 -197.941173 
L 226.8936 -203.805141 
L 249.2084 -212.84229 
L 271.5232 -232.287957 
L 293.838 -258.496158 
L 316.1528 -300.591147 
L 338.4676 -337.068529 
L 338.4676 -334.365694 
L 338.4676 -334.365694 
L 316.1528 -297.112959 
L 293.838 -254.537233 
L 271.5232 -228.230564 
L 249.2084 -208.718187 
L 226.8936 -199.679566 
L 204.5788 -193.746715 
L 182.264 -193.084768 
L 159.9492 -197.517955 
L 137.6344 -203.056426 
L 115.3196 -220.339627 
L 93.0048 -239.266302 
z
" id="m6d00251960" style="stroke:#990000;stroke-opacity:0.3;"/>
    </defs>
    <g clip-path="url(#p0d283ecaa8)">
     <use style="fill:#990000;fill-opacity:0.3;stroke:#990000;stroke-opacity:0.3;" x="0" xlink:href="#m6d00251960" y="396"/>
    </g>
   </g>
   <g id="PolyCollection_3">
    <defs>
     <path d="M 93.0048 -227.774198 
L 93.0048 -232.062136 
L 115.3196 -205.949488 
L 137.6344 -190.391723 
L 159.9492 -177.303403 
L 182.264 -171.24058 
L 204.5788 -167.164692 
L 226.8936 -165.556473 
L 249.2084 -165.681547 
L 271.5232 -163.966305 
L 293.838 -162.270643 
L 316.1528 -162.337801 
L 338.4676 -157.861409 
L 360.7824 -160.277611 
L 383.0972 -161.558078 
L 405.412 -161.940068 
L 427.7268 -162.115615 
L 450.0416 -163.632674 
L 472.3564 -165.603092 
L 494.6712 -169.432136 
L 516.986 -171.992006 
L 539.3008 -186.708805 
L 561.6156 -210.097569 
L 583.9304 -250.300119 
L 606.2452 -286.577884 
L 606.2452 -282.359328 
L 606.2452 -282.359328 
L 583.9304 -245.998251 
L 561.6156 -205.955798 
L 539.3008 -182.8519 
L 516.986 -168.189901 
L 494.6712 -165.66315 
L 472.3564 -161.886033 
L 450.0416 -159.815677 
L 427.7268 -158.432887 
L 405.412 -158.180588 
L 383.0972 -157.801962 
L 360.7824 -156.51535 
L 338.4676 -154.225239 
L 316.1528 -158.495933 
L 293.838 -158.420475 
L 271.5232 -160.147586 
L 249.2084 -161.712501 
L 226.8936 -161.647421 
L 204.5788 -163.224282 
L 182.264 -167.420094 
L 159.9492 -173.241899 
L 137.6344 -186.347298 
L 115.3196 -201.832179 
L 93.0048 -227.774198 
z
" id="m4456337ebe" style="stroke:#011f5b;stroke-opacity:0.3;"/>
    </defs>
    <g clip-path="url(#p0d283ecaa8)">
     <use style="fill:#011f5b;fill-opacity:0.3;stroke:#011f5b;stroke-opacity:0.3;" x="0" xlink:href="#m4456337ebe" y="396"/>
    </g>
   </g>
   <g id="PolyCollection_4">
    <defs>
     <path d="M 93.0048 -204.009306 
L 93.0048 -208.465719 
L 115.3196 -192.550427 
L 137.6344 -181.701105 
L 159.9492 -170.285635 
L 182.264 -168.723009 
L 204.5788 -165.238469 
L 226.8936 -161.924575 
L 249.2084 -165.388878 
L 271.5232 -163.777337 
L 293.838 -160.783605 
L 316.1528 -158.487596 
L 338.4676 -156.07476 
L 360.7824 -157.043725 
L 383.0972 -160.485427 
L 405.412 -161.598913 
L 427.7268 -159.909769 
L 450.0416 -160.609148 
L 472.3564 -165.6646 
L 494.6712 -171.25476 
L 516.986 -177.890215 
L 539.3008 -198.197686 
L 561.6156 -230.525452 
L 583.9304 -280.204022 
L 606.2452 -320.696602 
L 606.2452 -317.249877 
L 606.2452 -317.249877 
L 583.9304 -276.211218 
L 561.6156 -226.520618 
L 539.3008 -194.298855 
L 516.986 -174.126114 
L 494.6712 -167.490147 
L 472.3564 -161.90187 
L 450.0416 -156.920513 
L 427.7268 -156.240425 
L 405.412 -157.738325 
L 383.0972 -156.711259 
L 360.7824 -153.20806 
L 338.4676 -152.274313 
L 316.1528 -154.760962 
L 293.838 -156.793624 
L 271.5232 -159.745869 
L 249.2084 -161.368939 
L 226.8936 -157.983477 
L 204.5788 -161.233942 
L 182.264 -164.74187 
L 159.9492 -166.223585 
L 137.6344 -177.593099 
L 115.3196 -188.291999 
L 93.0048 -204.009306 
z
" id="m83666f7e17" style="stroke:#990000;stroke-opacity:0.3;"/>
    </defs>
    <g clip-path="url(#p0d283ecaa8)">
     <use style="fill:#990000;fill-opacity:0.3;stroke:#990000;stroke-opacity:0.3;" x="0" xlink:href="#m83666f7e17" y="396"/>
    </g>
   </g>
   <g id="matplotlib.axis_1">
    <g id="xtick_1">
     <g id="line2d_1">
      <defs>
       <path d="M 0 0 
L 0 3.5 
" id="m9ff9f62f59" style="stroke:#000000;stroke-width:0.8;"/>
      </defs>
      <g>
       <use style="stroke:#000000;stroke-width:0.8;" x="93.0048" xlink:href="#m9ff9f62f59" y="333.56"/>
      </g>
     </g>
     <g id="text_1">
      <!-- 1 -->
      <g transform="translate(88.55105 351.197812)scale(0.14 -0.14)">
       <defs>
        <path d="M 12.40625 8.296875 
L 28.515625 8.296875 
L 28.515625 63.921875 
L 10.984375 60.40625 
L 10.984375 69.390625 
L 28.421875 72.90625 
L 38.28125 72.90625 
L 38.28125 8.296875 
L 54.390625 8.296875 
L 54.390625 0 
L 12.40625 0 
z
" id="DejaVuSans-49"/>
       </defs>
       <use xlink:href="#DejaVuSans-49"/>
      </g>
     </g>
    </g>
    <g id="xtick_2">
     <g id="line2d_2">
      <g>
       <use style="stroke:#000000;stroke-width:0.8;" x="159.9492" xlink:href="#m9ff9f62f59" y="333.56"/>
      </g>
     </g>
     <g id="text_2">
      <!-- 4 -->
      <g transform="translate(155.49545 351.197812)scale(0.14 -0.14)">
       <defs>
        <path d="M 37.796875 64.3125 
L 12.890625 25.390625 
L 37.796875 25.390625 
z
M 35.203125 72.90625 
L 47.609375 72.90625 
L 47.609375 25.390625 
L 58.015625 25.390625 
L 58.015625 17.1875 
L 47.609375 17.1875 
L 47.609375 0 
L 37.796875 0 
L 37.796875 17.1875 
L 4.890625 17.1875 
L 4.890625 26.703125 
z
" id="DejaVuSans-52"/>
       </defs>
       <use xlink:href="#DejaVuSans-52"/>
      </g>
     </g>
    </g>
    <g id="xtick_3">
     <g id="line2d_3">
      <g>
       <use style="stroke:#000000;stroke-width:0.8;" x="249.2084" xlink:href="#m9ff9f62f59" y="333.56"/>
      </g>
     </g>
     <g id="text_3">
      <!-- 8 -->
      <g transform="translate(244.75465 351.197812)scale(0.14 -0.14)">
       <defs>
        <path d="M 31.78125 34.625 
Q 24.75 34.625 20.71875 30.859375 
Q 16.703125 27.09375 16.703125 20.515625 
Q 16.703125 13.921875 20.71875 10.15625 
Q 24.75 6.390625 31.78125 6.390625 
Q 38.8125 6.390625 42.859375 10.171875 
Q 46.921875 13.96875 46.921875 20.515625 
Q 46.921875 27.09375 42.890625 30.859375 
Q 38.875 34.625 31.78125 34.625 
z
M 21.921875 38.8125 
Q 15.578125 40.375 12.03125 44.71875 
Q 8.5 49.078125 8.5 55.328125 
Q 8.5 64.0625 14.71875 69.140625 
Q 20.953125 74.21875 31.78125 74.21875 
Q 42.671875 74.21875 48.875 69.140625 
Q 55.078125 64.0625 55.078125 55.328125 
Q 55.078125 49.078125 51.53125 44.71875 
Q 48 40.375 41.703125 38.8125 
Q 48.828125 37.15625 52.796875 32.3125 
Q 56.78125 27.484375 56.78125 20.515625 
Q 56.78125 9.90625 50.3125 4.234375 
Q 43.84375 -1.421875 31.78125 -1.421875 
Q 19.734375 -1.421875 13.25 4.234375 
Q 6.78125 9.90625 6.78125 20.515625 
Q 6.78125 27.484375 10.78125 32.3125 
Q 14.796875 37.15625 21.921875 38.8125 
z
M 18.3125 54.390625 
Q 18.3125 48.734375 21.84375 45.5625 
Q 25.390625 42.390625 31.78125 42.390625 
Q 38.140625 42.390625 41.71875 45.5625 
Q 45.3125 48.734375 45.3125 54.390625 
Q 45.3125 60.0625 41.71875 63.234375 
Q 38.140625 66.40625 31.78125 66.40625 
Q 25.390625 66.40625 21.84375 63.234375 
Q 18.3125 60.0625 18.3125 54.390625 
z
" id="DejaVuSans-56"/>
       </defs>
       <use xlink:href="#DejaVuSans-56"/>
      </g>
     </g>
    </g>
    <g id="xtick_4">
     <g id="line2d_4">
      <g>
       <use style="stroke:#000000;stroke-width:0.8;" x="338.4676" xlink:href="#m9ff9f62f59" y="333.56"/>
      </g>
     </g>
     <g id="text_4">
      <!-- 12 -->
      <g transform="translate(329.5601 351.197812)scale(0.14 -0.14)">
       <defs>
        <path d="M 19.1875 8.296875 
L 53.609375 8.296875 
L 53.609375 0 
L 7.328125 0 
L 7.328125 8.296875 
Q 12.9375 14.109375 22.625 23.890625 
Q 32.328125 33.6875 34.8125 36.53125 
Q 39.546875 41.84375 41.421875 45.53125 
Q 43.3125 49.21875 43.3125 52.78125 
Q 43.3125 58.59375 39.234375 62.25 
Q 35.15625 65.921875 28.609375 65.921875 
Q 23.96875 65.921875 18.8125 64.3125 
Q 13.671875 62.703125 7.8125 59.421875 
L 7.8125 69.390625 
Q 13.765625 71.78125 18.9375 73 
Q 24.125 74.21875 28.421875 74.21875 
Q 39.75 74.21875 46.484375 68.546875 
Q 53.21875 62.890625 53.21875 53.421875 
Q 53.21875 48.921875 51.53125 44.890625 
Q 49.859375 40.875 45.40625 35.40625 
Q 44.1875 33.984375 37.640625 27.21875 
Q 31.109375 20.453125 19.1875 8.296875 
z
" id="DejaVuSans-50"/>
       </defs>
       <use xlink:href="#DejaVuSans-49"/>
       <use x="63.623047" xlink:href="#DejaVuSans-50"/>
      </g>
     </g>
    </g>
    <g id="xtick_5">
     <g id="line2d_5">
      <g>
       <use style="stroke:#000000;stroke-width:0.8;" x="427.7268" xlink:href="#m9ff9f62f59" y="333.56"/>
      </g>
     </g>
     <g id="text_5">
      <!-- 16 -->
      <g transform="translate(418.8193 351.197812)scale(0.14 -0.14)">
       <defs>
        <path d="M 33.015625 40.375 
Q 26.375 40.375 22.484375 35.828125 
Q 18.609375 31.296875 18.609375 23.390625 
Q 18.609375 15.53125 22.484375 10.953125 
Q 26.375 6.390625 33.015625 6.390625 
Q 39.65625 6.390625 43.53125 10.953125 
Q 47.40625 15.53125 47.40625 23.390625 
Q 47.40625 31.296875 43.53125 35.828125 
Q 39.65625 40.375 33.015625 40.375 
z
M 52.59375 71.296875 
L 52.59375 62.3125 
Q 48.875 64.0625 45.09375 64.984375 
Q 41.3125 65.921875 37.59375 65.921875 
Q 27.828125 65.921875 22.671875 59.328125 
Q 17.53125 52.734375 16.796875 39.40625 
Q 19.671875 43.65625 24.015625 45.921875 
Q 28.375 48.1875 33.59375 48.1875 
Q 44.578125 48.1875 50.953125 41.515625 
Q 57.328125 34.859375 57.328125 23.390625 
Q 57.328125 12.15625 50.6875 5.359375 
Q 44.046875 -1.421875 33.015625 -1.421875 
Q 20.359375 -1.421875 13.671875 8.265625 
Q 6.984375 17.96875 6.984375 36.375 
Q 6.984375 53.65625 15.1875 63.9375 
Q 23.390625 74.21875 37.203125 74.21875 
Q 40.921875 74.21875 44.703125 73.484375 
Q 48.484375 72.75 52.59375 71.296875 
z
" id="DejaVuSans-54"/>
       </defs>
       <use xlink:href="#DejaVuSans-49"/>
       <use x="63.623047" xlink:href="#DejaVuSans-54"/>
      </g>
     </g>
    </g>
    <g id="xtick_6">
     <g id="line2d_6">
      <g>
       <use style="stroke:#000000;stroke-width:0.8;" x="516.986" xlink:href="#m9ff9f62f59" y="333.56"/>
      </g>
     </g>
     <g id="text_6">
      <!-- 20 -->
      <g transform="translate(508.0785 351.197812)scale(0.14 -0.14)">
       <defs>
        <path d="M 31.78125 66.40625 
Q 24.171875 66.40625 20.328125 58.90625 
Q 16.5 51.421875 16.5 36.375 
Q 16.5 21.390625 20.328125 13.890625 
Q 24.171875 6.390625 31.78125 6.390625 
Q 39.453125 6.390625 43.28125 13.890625 
Q 47.125 21.390625 47.125 36.375 
Q 47.125 51.421875 43.28125 58.90625 
Q 39.453125 66.40625 31.78125 66.40625 
z
M 31.78125 74.21875 
Q 44.046875 74.21875 50.515625 64.515625 
Q 56.984375 54.828125 56.984375 36.375 
Q 56.984375 17.96875 50.515625 8.265625 
Q 44.046875 -1.421875 31.78125 -1.421875 
Q 19.53125 -1.421875 13.0625 8.265625 
Q 6.59375 17.96875 6.59375 36.375 
Q 6.59375 54.828125 13.0625 64.515625 
Q 19.53125 74.21875 31.78125 74.21875 
z
" id="DejaVuSans-48"/>
       </defs>
       <use xlink:href="#DejaVuSans-50"/>
       <use x="63.623047" xlink:href="#DejaVuSans-48"/>
      </g>
     </g>
    </g>
    <g id="xtick_7">
     <g id="line2d_7">
      <g>
       <use style="stroke:#000000;stroke-width:0.8;" x="606.2452" xlink:href="#m9ff9f62f59" y="333.56"/>
      </g>
     </g>
     <g id="text_7">
      <!-- 24 -->
      <g transform="translate(597.3377 351.197812)scale(0.14 -0.14)">
       <use xlink:href="#DejaVuSans-50"/>
       <use x="63.623047" xlink:href="#DejaVuSans-52"/>
      </g>
     </g>
    </g>
    <g id="text_8">
     <!-- Serial Position -->
     <g transform="translate(286.262187 371.786563)scale(0.18 -0.18)">
      <defs>
       <path d="M 53.515625 70.515625 
L 53.515625 60.890625 
Q 47.90625 63.578125 42.921875 64.890625 
Q 37.9375 66.21875 33.296875 66.21875 
Q 25.25 66.21875 20.875 63.09375 
Q 16.5 59.96875 16.5 54.203125 
Q 16.5 49.359375 19.40625 46.890625 
Q 22.3125 44.4375 30.421875 42.921875 
L 36.375 41.703125 
Q 47.40625 39.59375 52.65625 34.296875 
Q 57.90625 29 57.90625 20.125 
Q 57.90625 9.515625 50.796875 4.046875 
Q 43.703125 -1.421875 29.984375 -1.421875 
Q 24.8125 -1.421875 18.96875 -0.25 
Q 13.140625 0.921875 6.890625 3.21875 
L 6.890625 13.375 
Q 12.890625 10.015625 18.65625 8.296875 
Q 24.421875 6.59375 29.984375 6.59375 
Q 38.421875 6.59375 43.015625 9.90625 
Q 47.609375 13.234375 47.609375 19.390625 
Q 47.609375 24.75 44.3125 27.78125 
Q 41.015625 30.8125 33.5 32.328125 
L 27.484375 33.5 
Q 16.453125 35.6875 11.515625 40.375 
Q 6.59375 45.0625 6.59375 53.421875 
Q 6.59375 63.09375 13.40625 68.65625 
Q 20.21875 74.21875 32.171875 74.21875 
Q 37.3125 74.21875 42.625 73.28125 
Q 47.953125 72.359375 53.515625 70.515625 
z
" id="DejaVuSans-83"/>
       <path d="M 56.203125 29.59375 
L 56.203125 25.203125 
L 14.890625 25.203125 
Q 15.484375 15.921875 20.484375 11.0625 
Q 25.484375 6.203125 34.421875 6.203125 
Q 39.59375 6.203125 44.453125 7.46875 
Q 49.3125 8.734375 54.109375 11.28125 
L 54.109375 2.78125 
Q 49.265625 0.734375 44.1875 -0.34375 
Q 39.109375 -1.421875 33.890625 -1.421875 
Q 20.796875 -1.421875 13.15625 6.1875 
Q 5.515625 13.8125 5.515625 26.8125 
Q 5.515625 40.234375 12.765625 48.109375 
Q 20.015625 56 32.328125 56 
Q 43.359375 56 49.78125 48.890625 
Q 56.203125 41.796875 56.203125 29.59375 
z
M 47.21875 32.234375 
Q 47.125 39.59375 43.09375 43.984375 
Q 39.0625 48.390625 32.421875 48.390625 
Q 24.90625 48.390625 20.390625 44.140625 
Q 15.875 39.890625 15.1875 32.171875 
z
" id="DejaVuSans-101"/>
       <path d="M 41.109375 46.296875 
Q 39.59375 47.171875 37.8125 47.578125 
Q 36.03125 48 33.890625 48 
Q 26.265625 48 22.1875 43.046875 
Q 18.109375 38.09375 18.109375 28.8125 
L 18.109375 0 
L 9.078125 0 
L 9.078125 54.6875 
L 18.109375 54.6875 
L 18.109375 46.1875 
Q 20.953125 51.171875 25.484375 53.578125 
Q 30.03125 56 36.53125 56 
Q 37.453125 56 38.578125 55.875 
Q 39.703125 55.765625 41.0625 55.515625 
z
" id="DejaVuSans-114"/>
       <path d="M 9.421875 54.6875 
L 18.40625 54.6875 
L 18.40625 0 
L 9.421875 0 
z
M 9.421875 75.984375 
L 18.40625 75.984375 
L 18.40625 64.59375 
L 9.421875 64.59375 
z
" id="DejaVuSans-105"/>
       <path d="M 34.28125 27.484375 
Q 23.390625 27.484375 19.1875 25 
Q 14.984375 22.515625 14.984375 16.5 
Q 14.984375 11.71875 18.140625 8.90625 
Q 21.296875 6.109375 26.703125 6.109375 
Q 34.1875 6.109375 38.703125 11.40625 
Q 43.21875 16.703125 43.21875 25.484375 
L 43.21875 27.484375 
z
M 52.203125 31.203125 
L 52.203125 0 
L 43.21875 0 
L 43.21875 8.296875 
Q 40.140625 3.328125 35.546875 0.953125 
Q 30.953125 -1.421875 24.3125 -1.421875 
Q 15.921875 -1.421875 10.953125 3.296875 
Q 6 8.015625 6 15.921875 
Q 6 25.140625 12.171875 29.828125 
Q 18.359375 34.515625 30.609375 34.515625 
L 43.21875 34.515625 
L 43.21875 35.40625 
Q 43.21875 41.609375 39.140625 45 
Q 35.0625 48.390625 27.6875 48.390625 
Q 23 48.390625 18.546875 47.265625 
Q 14.109375 46.140625 10.015625 43.890625 
L 10.015625 52.203125 
Q 14.9375 54.109375 19.578125 55.046875 
Q 24.21875 56 28.609375 56 
Q 40.484375 56 46.34375 49.84375 
Q 52.203125 43.703125 52.203125 31.203125 
z
" id="DejaVuSans-97"/>
       <path d="M 9.421875 75.984375 
L 18.40625 75.984375 
L 18.40625 0 
L 9.421875 0 
z
" id="DejaVuSans-108"/>
       <path id="DejaVuSans-32"/>
       <path d="M 19.671875 64.796875 
L 19.671875 37.40625 
L 32.078125 37.40625 
Q 38.96875 37.40625 42.71875 40.96875 
Q 46.484375 44.53125 46.484375 51.125 
Q 46.484375 57.671875 42.71875 61.234375 
Q 38.96875 64.796875 32.078125 64.796875 
z
M 9.8125 72.90625 
L 32.078125 72.90625 
Q 44.34375 72.90625 50.609375 67.359375 
Q 56.890625 61.8125 56.890625 51.125 
Q 56.890625 40.328125 50.609375 34.8125 
Q 44.34375 29.296875 32.078125 29.296875 
L 19.671875 29.296875 
L 19.671875 0 
L 9.8125 0 
z
" id="DejaVuSans-80"/>
       <path d="M 30.609375 48.390625 
Q 23.390625 48.390625 19.1875 42.75 
Q 14.984375 37.109375 14.984375 27.296875 
Q 14.984375 17.484375 19.15625 11.84375 
Q 23.34375 6.203125 30.609375 6.203125 
Q 37.796875 6.203125 41.984375 11.859375 
Q 46.1875 17.53125 46.1875 27.296875 
Q 46.1875 37.015625 41.984375 42.703125 
Q 37.796875 48.390625 30.609375 48.390625 
z
M 30.609375 56 
Q 42.328125 56 49.015625 48.375 
Q 55.71875 40.765625 55.71875 27.296875 
Q 55.71875 13.875 49.015625 6.21875 
Q 42.328125 -1.421875 30.609375 -1.421875 
Q 18.84375 -1.421875 12.171875 6.21875 
Q 5.515625 13.875 5.515625 27.296875 
Q 5.515625 40.765625 12.171875 48.375 
Q 18.84375 56 30.609375 56 
z
" id="DejaVuSans-111"/>
       <path d="M 44.28125 53.078125 
L 44.28125 44.578125 
Q 40.484375 46.53125 36.375 47.5 
Q 32.28125 48.484375 27.875 48.484375 
Q 21.1875 48.484375 17.84375 46.4375 
Q 14.5 44.390625 14.5 40.28125 
Q 14.5 37.15625 16.890625 35.375 
Q 19.28125 33.59375 26.515625 31.984375 
L 29.59375 31.296875 
Q 39.15625 29.25 43.1875 25.515625 
Q 47.21875 21.78125 47.21875 15.09375 
Q 47.21875 7.46875 41.1875 3.015625 
Q 35.15625 -1.421875 24.609375 -1.421875 
Q 20.21875 -1.421875 15.453125 -0.5625 
Q 10.6875 0.296875 5.421875 2 
L 5.421875 11.28125 
Q 10.40625 8.6875 15.234375 7.390625 
Q 20.0625 6.109375 24.8125 6.109375 
Q 31.15625 6.109375 34.5625 8.28125 
Q 37.984375 10.453125 37.984375 14.40625 
Q 37.984375 18.0625 35.515625 20.015625 
Q 33.0625 21.96875 24.703125 23.78125 
L 21.578125 24.515625 
Q 13.234375 26.265625 9.515625 29.90625 
Q 5.8125 33.546875 5.8125 39.890625 
Q 5.8125 47.609375 11.28125 51.796875 
Q 16.75 56 26.8125 56 
Q 31.78125 56 36.171875 55.265625 
Q 40.578125 54.546875 44.28125 53.078125 
z
" id="DejaVuSans-115"/>
       <path d="M 18.3125 70.21875 
L 18.3125 54.6875 
L 36.8125 54.6875 
L 36.8125 47.703125 
L 18.3125 47.703125 
L 18.3125 18.015625 
Q 18.3125 11.328125 20.140625 9.421875 
Q 21.96875 7.515625 27.59375 7.515625 
L 36.8125 7.515625 
L 36.8125 0 
L 27.59375 0 
Q 17.1875 0 13.234375 3.875 
Q 9.28125 7.765625 9.28125 18.015625 
L 9.28125 47.703125 
L 2.6875 47.703125 
L 2.6875 54.6875 
L 9.28125 54.6875 
L 9.28125 70.21875 
z
" id="DejaVuSans-116"/>
       <path d="M 54.890625 33.015625 
L 54.890625 0 
L 45.90625 0 
L 45.90625 32.71875 
Q 45.90625 40.484375 42.875 44.328125 
Q 39.84375 48.1875 33.796875 48.1875 
Q 26.515625 48.1875 22.3125 43.546875 
Q 18.109375 38.921875 18.109375 30.90625 
L 18.109375 0 
L 9.078125 0 
L 9.078125 54.6875 
L 18.109375 54.6875 
L 18.109375 46.1875 
Q 21.34375 51.125 25.703125 53.5625 
Q 30.078125 56 35.796875 56 
Q 45.21875 56 50.046875 50.171875 
Q 54.890625 44.34375 54.890625 33.015625 
z
" id="DejaVuSans-110"/>
      </defs>
      <use xlink:href="#DejaVuSans-83"/>
      <use x="63.476562" xlink:href="#DejaVuSans-101"/>
      <use x="125" xlink:href="#DejaVuSans-114"/>
      <use x="166.113281" xlink:href="#DejaVuSans-105"/>
      <use x="193.896484" xlink:href="#DejaVuSans-97"/>
      <use x="255.175781" xlink:href="#DejaVuSans-108"/>
      <use x="282.958984" xlink:href="#DejaVuSans-32"/>
      <use x="314.746094" xlink:href="#DejaVuSans-80"/>
      <use x="371.423828" xlink:href="#DejaVuSans-111"/>
      <use x="432.605469" xlink:href="#DejaVuSans-115"/>
      <use x="484.705078" xlink:href="#DejaVuSans-105"/>
      <use x="512.488281" xlink:href="#DejaVuSans-116"/>
      <use x="551.697266" xlink:href="#DejaVuSans-105"/>
      <use x="579.480469" xlink:href="#DejaVuSans-111"/>
      <use x="640.662109" xlink:href="#DejaVuSans-110"/>
     </g>
    </g>
   </g>
   <g id="matplotlib.axis_2">
    <g id="ytick_1">
     <g id="line2d_8">
      <defs>
       <path d="M 0 0 
L -3.5 0 
" id="m802c8ae25c" style="stroke:#000000;stroke-width:0.8;"/>
      </defs>
      <g>
       <use style="stroke:#000000;stroke-width:0.8;" x="70.69" xlink:href="#m802c8ae25c" y="333.56"/>
      </g>
     </g>
     <g id="text_9">
      <!-- 0.0 -->
      <g transform="translate(41.425625 338.878906)scale(0.14 -0.14)">
       <defs>
        <path d="M 10.6875 12.40625 
L 21 12.40625 
L 21 0 
L 10.6875 0 
z
" id="DejaVuSans-46"/>
       </defs>
       <use xlink:href="#DejaVuSans-48"/>
       <use x="63.623047" xlink:href="#DejaVuSans-46"/>
       <use x="95.410156" xlink:href="#DejaVuSans-48"/>
      </g>
     </g>
    </g>
    <g id="ytick_2">
     <g id="line2d_9">
      <g>
       <use style="stroke:#000000;stroke-width:0.8;" x="70.69" xlink:href="#m802c8ae25c" y="271.836"/>
      </g>
     </g>
     <g id="text_10">
      <!-- 0.2 -->
      <g transform="translate(41.425625 277.154906)scale(0.14 -0.14)">
       <use xlink:href="#DejaVuSans-48"/>
       <use x="63.623047" xlink:href="#DejaVuSans-46"/>
       <use x="95.410156" xlink:href="#DejaVuSans-50"/>
      </g>
     </g>
    </g>
    <g id="ytick_3">
     <g id="line2d_10">
      <g>
       <use style="stroke:#000000;stroke-width:0.8;" x="70.69" xlink:href="#m802c8ae25c" y="210.112"/>
      </g>
     </g>
     <g id="text_11">
      <!-- 0.4 -->
      <g transform="translate(41.425625 215.430906)scale(0.14 -0.14)">
       <use xlink:href="#DejaVuSans-48"/>
       <use x="63.623047" xlink:href="#DejaVuSans-46"/>
       <use x="95.410156" xlink:href="#DejaVuSans-52"/>
      </g>
     </g>
    </g>
    <g id="ytick_4">
     <g id="line2d_11">
      <g>
       <use style="stroke:#000000;stroke-width:0.8;" x="70.69" xlink:href="#m802c8ae25c" y="148.388"/>
      </g>
     </g>
     <g id="text_12">
      <!-- 0.6 -->
      <g transform="translate(41.425625 153.706906)scale(0.14 -0.14)">
       <use xlink:href="#DejaVuSans-48"/>
       <use x="63.623047" xlink:href="#DejaVuSans-46"/>
       <use x="95.410156" xlink:href="#DejaVuSans-54"/>
      </g>
     </g>
    </g>
    <g id="ytick_5">
     <g id="line2d_12">
      <g>
       <use style="stroke:#000000;stroke-width:0.8;" x="70.69" xlink:href="#m802c8ae25c" y="86.664"/>
      </g>
     </g>
     <g id="text_13">
      <!-- 0.8 -->
      <g transform="translate(41.425625 91.982906)scale(0.14 -0.14)">
       <use xlink:href="#DejaVuSans-48"/>
       <use x="63.623047" xlink:href="#DejaVuSans-46"/>
       <use x="95.410156" xlink:href="#DejaVuSans-56"/>
      </g>
     </g>
    </g>
    <g id="ytick_6">
     <g id="line2d_13">
      <g>
       <use style="stroke:#000000;stroke-width:0.8;" x="70.69" xlink:href="#m802c8ae25c" y="24.94"/>
      </g>
     </g>
     <g id="text_14">
      <!-- 1.0 -->
      <g transform="translate(41.425625 30.258906)scale(0.14 -0.14)">
       <use xlink:href="#DejaVuSans-49"/>
       <use x="63.623047" xlink:href="#DejaVuSans-46"/>
       <use x="95.410156" xlink:href="#DejaVuSans-48"/>
      </g>
     </g>
    </g>
    <g id="text_15">
     <!-- Recall Probability -->
     <g transform="translate(33.682188 256.533281)rotate(-90)scale(0.18 -0.18)">
      <defs>
       <path d="M 44.390625 34.1875 
Q 47.5625 33.109375 50.5625 29.59375 
Q 53.5625 26.078125 56.59375 19.921875 
L 66.609375 0 
L 56 0 
L 46.6875 18.703125 
Q 43.0625 26.03125 39.671875 28.421875 
Q 36.28125 30.8125 30.421875 30.8125 
L 19.671875 30.8125 
L 19.671875 0 
L 9.8125 0 
L 9.8125 72.90625 
L 32.078125 72.90625 
Q 44.578125 72.90625 50.734375 67.671875 
Q 56.890625 62.453125 56.890625 51.90625 
Q 56.890625 45.015625 53.6875 40.46875 
Q 50.484375 35.9375 44.390625 34.1875 
z
M 19.671875 64.796875 
L 19.671875 38.921875 
L 32.078125 38.921875 
Q 39.203125 38.921875 42.84375 42.21875 
Q 46.484375 45.515625 46.484375 51.90625 
Q 46.484375 58.296875 42.84375 61.546875 
Q 39.203125 64.796875 32.078125 64.796875 
z
" id="DejaVuSans-82"/>
       <path d="M 48.78125 52.59375 
L 48.78125 44.1875 
Q 44.96875 46.296875 41.140625 47.34375 
Q 37.3125 48.390625 33.40625 48.390625 
Q 24.65625 48.390625 19.8125 42.84375 
Q 14.984375 37.3125 14.984375 27.296875 
Q 14.984375 17.28125 19.8125 11.734375 
Q 24.65625 6.203125 33.40625 6.203125 
Q 37.3125 6.203125 41.140625 7.25 
Q 44.96875 8.296875 48.78125 10.40625 
L 48.78125 2.09375 
Q 45.015625 0.34375 40.984375 -0.53125 
Q 36.96875 -1.421875 32.421875 -1.421875 
Q 20.0625 -1.421875 12.78125 6.34375 
Q 5.515625 14.109375 5.515625 27.296875 
Q 5.515625 40.671875 12.859375 48.328125 
Q 20.21875 56 33.015625 56 
Q 37.15625 56 41.109375 55.140625 
Q 45.0625 54.296875 48.78125 52.59375 
z
" id="DejaVuSans-99"/>
       <path d="M 48.6875 27.296875 
Q 48.6875 37.203125 44.609375 42.84375 
Q 40.53125 48.484375 33.40625 48.484375 
Q 26.265625 48.484375 22.1875 42.84375 
Q 18.109375 37.203125 18.109375 27.296875 
Q 18.109375 17.390625 22.1875 11.75 
Q 26.265625 6.109375 33.40625 6.109375 
Q 40.53125 6.109375 44.609375 11.75 
Q 48.6875 17.390625 48.6875 27.296875 
z
M 18.109375 46.390625 
Q 20.953125 51.265625 25.265625 53.625 
Q 29.59375 56 35.59375 56 
Q 45.5625 56 51.78125 48.09375 
Q 58.015625 40.1875 58.015625 27.296875 
Q 58.015625 14.40625 51.78125 6.484375 
Q 45.5625 -1.421875 35.59375 -1.421875 
Q 29.59375 -1.421875 25.265625 0.953125 
Q 20.953125 3.328125 18.109375 8.203125 
L 18.109375 0 
L 9.078125 0 
L 9.078125 75.984375 
L 18.109375 75.984375 
z
" id="DejaVuSans-98"/>
       <path d="M 32.171875 -5.078125 
Q 28.375 -14.84375 24.75 -17.8125 
Q 21.140625 -20.796875 15.09375 -20.796875 
L 7.90625 -20.796875 
L 7.90625 -13.28125 
L 13.1875 -13.28125 
Q 16.890625 -13.28125 18.9375 -11.515625 
Q 21 -9.765625 23.484375 -3.21875 
L 25.09375 0.875 
L 2.984375 54.6875 
L 12.5 54.6875 
L 29.59375 11.921875 
L 46.6875 54.6875 
L 56.203125 54.6875 
z
" id="DejaVuSans-121"/>
      </defs>
      <use xlink:href="#DejaVuSans-82"/>
      <use x="64.982422" xlink:href="#DejaVuSans-101"/>
      <use x="126.505859" xlink:href="#DejaVuSans-99"/>
      <use x="181.486328" xlink:href="#DejaVuSans-97"/>
      <use x="242.765625" xlink:href="#DejaVuSans-108"/>
      <use x="270.548828" xlink:href="#DejaVuSans-108"/>
      <use x="298.332031" xlink:href="#DejaVuSans-32"/>
      <use x="330.119141" xlink:href="#DejaVuSans-80"/>
      <use x="388.671875" xlink:href="#DejaVuSans-114"/>
      <use x="427.535156" xlink:href="#DejaVuSans-111"/>
      <use x="488.716797" xlink:href="#DejaVuSans-98"/>
      <use x="552.193359" xlink:href="#DejaVuSans-97"/>
      <use x="613.472656" xlink:href="#DejaVuSans-98"/>
      <use x="676.949219" xlink:href="#DejaVuSans-105"/>
      <use x="704.732422" xlink:href="#DejaVuSans-108"/>
      <use x="732.515625" xlink:href="#DejaVuSans-105"/>
      <use x="760.298828" xlink:href="#DejaVuSans-116"/>
      <use x="799.507812" xlink:href="#DejaVuSans-121"/>
     </g>
    </g>
   </g>
   <g id="patch_3">
    <path d="M 70.69 333.56 
L 70.69 24.94 
" style="fill:none;stroke:#000000;stroke-linecap:square;stroke-linejoin:miter;stroke-width:0.8;"/>
   </g>
   <g id="patch_4">
    <path d="M 70.69 333.56 
L 628.56 333.56 
" style="fill:none;stroke:#000000;stroke-linecap:square;stroke-linejoin:miter;stroke-width:0.8;"/>
   </g>
   <g id="line2d_14">
    <path clip-path="url(#p0d283ecaa8)" d="M 93.0048 154.538519 
L 115.3196 173.446726 
L 137.6344 190.737628 
L 159.9492 196.326846 
L 182.264 200.798221 
L 204.5788 200.156056 
L 226.8936 194.257646 
L 249.2084 185.219761 
L 271.5232 165.74074 
L 293.838 139.483305 
L 316.1528 97.147947 
L 338.4676 60.282888 
" style="fill:none;stroke:#990000;stroke-linecap:square;stroke-width:1.5;"/>
    <defs>
     <path d="M 0 3 
C 0.795609 3 1.55874 2.683901 2.12132 2.12132 
C 2.683901 1.55874 3 0.795609 3 0 
C 3 -0.795609 2.683901 -1.55874 2.12132 -2.12132 
C 1.55874 -2.683901 0.795609 -3 0 -3 
C -0.795609 -3 -1.55874 -2.683901 -2.12132 -2.12132 
C -2.683901 -1.55874 -3 -0.795609 -3 0 
C -3 0.795609 -2.683901 1.55874 -2.12132 2.12132 
C -1.55874 2.683901 -0.795609 3 0 3 
z
" id="m987918b532" style="stroke:#990000;"/>
    </defs>
    <g clip-path="url(#p0d283ecaa8)">
     <use style="fill:#990000;stroke:#990000;" x="93.0048" xlink:href="#m987918b532" y="154.538519"/>
     <use style="fill:#990000;stroke:#990000;" x="115.3196" xlink:href="#m987918b532" y="173.446726"/>
     <use style="fill:#990000;stroke:#990000;" x="137.6344" xlink:href="#m987918b532" y="190.737628"/>
     <use style="fill:#990000;stroke:#990000;" x="159.9492" xlink:href="#m987918b532" y="196.326846"/>
     <use style="fill:#990000;stroke:#990000;" x="182.264" xlink:href="#m987918b532" y="200.798221"/>
     <use style="fill:#990000;stroke:#990000;" x="204.5788" xlink:href="#m987918b532" y="200.156056"/>
     <use style="fill:#990000;stroke:#990000;" x="226.8936" xlink:href="#m987918b532" y="194.257646"/>
     <use style="fill:#990000;stroke:#990000;" x="249.2084" xlink:href="#m987918b532" y="185.219761"/>
     <use style="fill:#990000;stroke:#990000;" x="271.5232" xlink:href="#m987918b532" y="165.74074"/>
     <use style="fill:#990000;stroke:#990000;" x="293.838" xlink:href="#m987918b532" y="139.483305"/>
     <use style="fill:#990000;stroke:#990000;" x="316.1528" xlink:href="#m987918b532" y="97.147947"/>
     <use style="fill:#990000;stroke:#990000;" x="338.4676" xlink:href="#m987918b532" y="60.282888"/>
    </g>
   </g>
   <g id="line2d_15">
    <path clip-path="url(#p0d283ecaa8)" d="M 93.0048 189.762488 
L 115.3196 205.578787 
L 137.6344 216.352898 
L 159.9492 227.74539 
L 182.264 229.26756 
L 204.5788 232.763795 
L 226.8936 236.045974 
L 249.2084 232.621091 
L 271.5232 234.238397 
L 293.838 237.211386 
L 316.1528 239.375721 
L 338.4676 241.825464 
L 360.7824 240.874108 
L 383.0972 237.401657 
L 405.412 236.331381 
L 427.7268 237.924903 
L 450.0416 237.23517 
L 472.3564 232.216765 
L 494.6712 226.627546 
L 516.986 219.991836 
L 539.3008 199.751729 
L 561.6156 167.476965 
L 583.9304 117.79238 
L 606.2452 77.02676 
" style="fill:none;stroke:#990000;stroke-linecap:square;stroke-width:1.5;"/>
    <defs>
     <path d="M 0 -3 
L -3 3 
L 3 3 
z
" id="mbf58672e91" style="stroke:#990000;stroke-linejoin:miter;"/>
    </defs>
    <g clip-path="url(#p0d283ecaa8)">
     <use style="fill:#990000;stroke:#990000;stroke-linejoin:miter;" x="93.0048" xlink:href="#mbf58672e91" y="189.762488"/>
     <use style="fill:#990000;stroke:#990000;stroke-linejoin:miter;" x="115.3196" xlink:href="#mbf58672e91" y="205.578787"/>
     <use style="fill:#990000;stroke:#990000;stroke-linejoin:miter;" x="137.6344" xlink:href="#mbf58672e91" y="216.352898"/>
     <use style="fill:#990000;stroke:#990000;stroke-linejoin:miter;" x="159.9492" xlink:href="#mbf58672e91" y="227.74539"/>
     <use style="fill:#990000;stroke:#990000;stroke-linejoin:miter;" x="182.264" xlink:href="#mbf58672e91" y="229.26756"/>
     <use style="fill:#990000;stroke:#990000;stroke-linejoin:miter;" x="204.5788" xlink:href="#mbf58672e91" y="232.763795"/>
     <use style="fill:#990000;stroke:#990000;stroke-linejoin:miter;" x="226.8936" xlink:href="#mbf58672e91" y="236.045974"/>
     <use style="fill:#990000;stroke:#990000;stroke-linejoin:miter;" x="249.2084" xlink:href="#mbf58672e91" y="232.621091"/>
     <use style="fill:#990000;stroke:#990000;stroke-linejoin:miter;" x="271.5232" xlink:href="#mbf58672e91" y="234.238397"/>
     <use style="fill:#990000;stroke:#990000;stroke-linejoin:miter;" x="293.838" xlink:href="#mbf58672e91" y="237.211386"/>
     <use style="fill:#990000;stroke:#990000;stroke-linejoin:miter;" x="316.1528" xlink:href="#mbf58672e91" y="239.375721"/>
     <use style="fill:#990000;stroke:#990000;stroke-linejoin:miter;" x="338.4676" xlink:href="#mbf58672e91" y="241.825464"/>
     <use style="fill:#990000;stroke:#990000;stroke-linejoin:miter;" x="360.7824" xlink:href="#mbf58672e91" y="240.874108"/>
     <use style="fill:#990000;stroke:#990000;stroke-linejoin:miter;" x="383.0972" xlink:href="#mbf58672e91" y="237.401657"/>
     <use style="fill:#990000;stroke:#990000;stroke-linejoin:miter;" x="405.412" xlink:href="#mbf58672e91" y="236.331381"/>
     <use style="fill:#990000;stroke:#990000;stroke-linejoin:miter;" x="427.7268" xlink:href="#mbf58672e91" y="237.924903"/>
     <use style="fill:#990000;stroke:#990000;stroke-linejoin:miter;" x="450.0416" xlink:href="#mbf58672e91" y="237.23517"/>
     <use style="fill:#990000;stroke:#990000;stroke-linejoin:miter;" x="472.3564" xlink:href="#mbf58672e91" y="232.216765"/>
     <use style="fill:#990000;stroke:#990000;stroke-linejoin:miter;" x="494.6712" xlink:href="#mbf58672e91" y="226.627546"/>
     <use style="fill:#990000;stroke:#990000;stroke-linejoin:miter;" x="516.986" xlink:href="#mbf58672e91" y="219.991836"/>
     <use style="fill:#990000;stroke:#990000;stroke-linejoin:miter;" x="539.3008" xlink:href="#mbf58672e91" y="199.751729"/>
     <use style="fill:#990000;stroke:#990000;stroke-linejoin:miter;" x="561.6156" xlink:href="#mbf58672e91" y="167.476965"/>
     <use style="fill:#990000;stroke:#990000;stroke-linejoin:miter;" x="583.9304" xlink:href="#mbf58672e91" y="117.79238"/>
     <use style="fill:#990000;stroke:#990000;stroke-linejoin:miter;" x="606.2452" xlink:href="#mbf58672e91" y="77.02676"/>
    </g>
   </g>
   <g id="line2d_16">
    <path clip-path="url(#p0d283ecaa8)" d="M 93.0048 133.256493 
L 115.3196 159.80675 
L 137.6344 178.774615 
L 159.9492 192.299321 
L 182.264 195.769632 
L 204.5788 197.671172 
L 226.8936 195.959786 
L 249.2084 190.944473 
L 271.5232 178.869692 
L 293.838 160.163289 
L 316.1528 125.888024 
L 338.4676 87.690832 
" style="fill:none;stroke:#011f5b;stroke-linecap:square;stroke-width:1.5;"/>
    <defs>
     <path d="M 0 3 
C 0.795609 3 1.55874 2.683901 2.12132 2.12132 
C 2.683901 1.55874 3 0.795609 3 0 
C 3 -0.795609 2.683901 -1.55874 2.12132 -2.12132 
C 1.55874 -2.683901 0.795609 -3 0 -3 
C -0.795609 -3 -1.55874 -2.683901 -2.12132 -2.12132 
C -2.683901 -1.55874 -3 -0.795609 -3 0 
C -3 0.795609 -2.683901 1.55874 -2.12132 2.12132 
C -1.55874 2.683901 -0.795609 3 0 3 
z
" id="m6a85e3d96b" style="stroke:#011f5b;"/>
    </defs>
    <g clip-path="url(#p0d283ecaa8)">
     <use style="fill:#011f5b;stroke:#011f5b;" x="93.0048" xlink:href="#m6a85e3d96b" y="133.256493"/>
     <use style="fill:#011f5b;stroke:#011f5b;" x="115.3196" xlink:href="#m6a85e3d96b" y="159.80675"/>
     <use style="fill:#011f5b;stroke:#011f5b;" x="137.6344" xlink:href="#m6a85e3d96b" y="178.774615"/>
     <use style="fill:#011f5b;stroke:#011f5b;" x="159.9492" xlink:href="#m6a85e3d96b" y="192.299321"/>
     <use style="fill:#011f5b;stroke:#011f5b;" x="182.264" xlink:href="#m6a85e3d96b" y="195.769632"/>
     <use style="fill:#011f5b;stroke:#011f5b;" x="204.5788" xlink:href="#m6a85e3d96b" y="197.671172"/>
     <use style="fill:#011f5b;stroke:#011f5b;" x="226.8936" xlink:href="#m6a85e3d96b" y="195.959786"/>
     <use style="fill:#011f5b;stroke:#011f5b;" x="249.2084" xlink:href="#m6a85e3d96b" y="190.944473"/>
     <use style="fill:#011f5b;stroke:#011f5b;" x="271.5232" xlink:href="#m6a85e3d96b" y="178.869692"/>
     <use style="fill:#011f5b;stroke:#011f5b;" x="293.838" xlink:href="#m6a85e3d96b" y="160.163289"/>
     <use style="fill:#011f5b;stroke:#011f5b;" x="316.1528" xlink:href="#m6a85e3d96b" y="125.888024"/>
     <use style="fill:#011f5b;stroke:#011f5b;" x="338.4676" xlink:href="#m6a85e3d96b" y="87.690832"/>
    </g>
   </g>
   <g id="line2d_17">
    <path clip-path="url(#p0d283ecaa8)" d="M 93.0048 166.081833 
L 115.3196 192.109167 
L 137.6344 207.63049 
L 159.9492 220.727349 
L 182.264 226.669663 
L 204.5788 230.805513 
L 226.8936 232.398053 
L 249.2084 232.302976 
L 271.5232 233.943055 
L 293.838 235.654441 
L 316.1528 235.583133 
L 338.4676 239.956676 
L 360.7824 237.60352 
L 383.0972 236.31998 
L 405.412 235.939672 
L 427.7268 235.725749 
L 450.0416 234.275824 
L 472.3564 232.255437 
L 494.6712 228.452357 
L 516.986 225.909047 
L 539.3008 211.219647 
L 561.6156 187.973316 
L 583.9304 147.850815 
L 606.2452 111.531394 
" style="fill:none;stroke:#011f5b;stroke-linecap:square;stroke-width:1.5;"/>
    <defs>
     <path d="M 0 -3 
L -3 3 
L 3 3 
z
" id="m6dc23f4818" style="stroke:#011f5b;stroke-linejoin:miter;"/>
    </defs>
    <g clip-path="url(#p0d283ecaa8)">
     <use style="fill:#011f5b;stroke:#011f5b;stroke-linejoin:miter;" x="93.0048" xlink:href="#m6dc23f4818" y="166.081833"/>
     <use style="fill:#011f5b;stroke:#011f5b;stroke-linejoin:miter;" x="115.3196" xlink:href="#m6dc23f4818" y="192.109167"/>
     <use style="fill:#011f5b;stroke:#011f5b;stroke-linejoin:miter;" x="137.6344" xlink:href="#m6dc23f4818" y="207.63049"/>
     <use style="fill:#011f5b;stroke:#011f5b;stroke-linejoin:miter;" x="159.9492" xlink:href="#m6dc23f4818" y="220.727349"/>
     <use style="fill:#011f5b;stroke:#011f5b;stroke-linejoin:miter;" x="182.264" xlink:href="#m6dc23f4818" y="226.669663"/>
     <use style="fill:#011f5b;stroke:#011f5b;stroke-linejoin:miter;" x="204.5788" xlink:href="#m6dc23f4818" y="230.805513"/>
     <use style="fill:#011f5b;stroke:#011f5b;stroke-linejoin:miter;" x="226.8936" xlink:href="#m6dc23f4818" y="232.398053"/>
     <use style="fill:#011f5b;stroke:#011f5b;stroke-linejoin:miter;" x="249.2084" xlink:href="#m6dc23f4818" y="232.302976"/>
     <use style="fill:#011f5b;stroke:#011f5b;stroke-linejoin:miter;" x="271.5232" xlink:href="#m6dc23f4818" y="233.943055"/>
     <use style="fill:#011f5b;stroke:#011f5b;stroke-linejoin:miter;" x="293.838" xlink:href="#m6dc23f4818" y="235.654441"/>
     <use style="fill:#011f5b;stroke:#011f5b;stroke-linejoin:miter;" x="316.1528" xlink:href="#m6dc23f4818" y="235.583133"/>
     <use style="fill:#011f5b;stroke:#011f5b;stroke-linejoin:miter;" x="338.4676" xlink:href="#m6dc23f4818" y="239.956676"/>
     <use style="fill:#011f5b;stroke:#011f5b;stroke-linejoin:miter;" x="360.7824" xlink:href="#m6dc23f4818" y="237.60352"/>
     <use style="fill:#011f5b;stroke:#011f5b;stroke-linejoin:miter;" x="383.0972" xlink:href="#m6dc23f4818" y="236.31998"/>
     <use style="fill:#011f5b;stroke:#011f5b;stroke-linejoin:miter;" x="405.412" xlink:href="#m6dc23f4818" y="235.939672"/>
     <use style="fill:#011f5b;stroke:#011f5b;stroke-linejoin:miter;" x="427.7268" xlink:href="#m6dc23f4818" y="235.725749"/>
     <use style="fill:#011f5b;stroke:#011f5b;stroke-linejoin:miter;" x="450.0416" xlink:href="#m6dc23f4818" y="234.275824"/>
     <use style="fill:#011f5b;stroke:#011f5b;stroke-linejoin:miter;" x="472.3564" xlink:href="#m6dc23f4818" y="232.255437"/>
     <use style="fill:#011f5b;stroke:#011f5b;stroke-linejoin:miter;" x="494.6712" xlink:href="#m6dc23f4818" y="228.452357"/>
     <use style="fill:#011f5b;stroke:#011f5b;stroke-linejoin:miter;" x="516.986" xlink:href="#m6dc23f4818" y="225.909047"/>
     <use style="fill:#011f5b;stroke:#011f5b;stroke-linejoin:miter;" x="539.3008" xlink:href="#m6dc23f4818" y="211.219647"/>
     <use style="fill:#011f5b;stroke:#011f5b;stroke-linejoin:miter;" x="561.6156" xlink:href="#m6dc23f4818" y="187.973316"/>
     <use style="fill:#011f5b;stroke:#011f5b;stroke-linejoin:miter;" x="583.9304" xlink:href="#m6dc23f4818" y="147.850815"/>
     <use style="fill:#011f5b;stroke:#011f5b;stroke-linejoin:miter;" x="606.2452" xlink:href="#m6dc23f4818" y="111.531394"/>
    </g>
   </g>
   <g id="legend_1">
    <g id="patch_5">
     <path d="M 79.09 69.7675 
L 168.338125 69.7675 
Q 170.738125 69.7675 170.738125 67.3675 
L 170.738125 33.34 
Q 170.738125 30.94 168.338125 30.94 
L 79.09 30.94 
Q 76.69 30.94 76.69 33.34 
L 76.69 67.3675 
Q 76.69 69.7675 79.09 69.7675 
z
" style="fill:#ffffff;opacity:0.8;stroke:#cccccc;stroke-linejoin:miter;"/>
    </g>
    <g id="line2d_18">
     <path d="M 81.49 40.658125 
L 105.49 40.658125 
" style="fill:none;stroke:#011f5b;stroke-linecap:square;stroke-width:1.5;"/>
    </g>
    <g id="line2d_19">
     <g>
      <use style="fill:#011f5b;stroke:#011f5b;" x="93.49" xlink:href="#m6a85e3d96b" y="40.658125"/>
     </g>
    </g>
    <g id="text_16">
     <!-- Visual -->
     <g transform="translate(115.09 44.858125)scale(0.12 -0.12)">
      <defs>
       <path d="M 28.609375 0 
L 0.78125 72.90625 
L 11.078125 72.90625 
L 34.1875 11.53125 
L 57.328125 72.90625 
L 67.578125 72.90625 
L 39.796875 0 
z
" id="DejaVuSans-86"/>
       <path d="M 8.5 21.578125 
L 8.5 54.6875 
L 17.484375 54.6875 
L 17.484375 21.921875 
Q 17.484375 14.15625 20.5 10.265625 
Q 23.53125 6.390625 29.59375 6.390625 
Q 36.859375 6.390625 41.078125 11.03125 
Q 45.3125 15.671875 45.3125 23.6875 
L 45.3125 54.6875 
L 54.296875 54.6875 
L 54.296875 0 
L 45.3125 0 
L 45.3125 8.40625 
Q 42.046875 3.421875 37.71875 1 
Q 33.40625 -1.421875 27.6875 -1.421875 
Q 18.265625 -1.421875 13.375 4.4375 
Q 8.5 10.296875 8.5 21.578125 
z
M 31.109375 56 
z
" id="DejaVuSans-117"/>
      </defs>
      <use xlink:href="#DejaVuSans-86"/>
      <use x="66.158203" xlink:href="#DejaVuSans-105"/>
      <use x="93.941406" xlink:href="#DejaVuSans-115"/>
      <use x="146.041016" xlink:href="#DejaVuSans-117"/>
      <use x="209.419922" xlink:href="#DejaVuSans-97"/>
      <use x="270.699219" xlink:href="#DejaVuSans-108"/>
     </g>
    </g>
    <g id="line2d_20">
     <path d="M 81.49 58.271875 
L 105.49 58.271875 
" style="fill:none;stroke:#990000;stroke-linecap:square;stroke-width:1.5;"/>
    </g>
    <g id="line2d_21">
     <g>
      <use style="fill:#990000;stroke:#990000;" x="93.49" xlink:href="#m987918b532" y="58.271875"/>
     </g>
    </g>
    <g id="text_17">
     <!-- Auditory -->
     <g transform="translate(115.09 62.471875)scale(0.12 -0.12)">
      <defs>
       <path d="M 34.1875 63.1875 
L 20.796875 26.90625 
L 47.609375 26.90625 
z
M 28.609375 72.90625 
L 39.796875 72.90625 
L 67.578125 0 
L 57.328125 0 
L 50.6875 18.703125 
L 17.828125 18.703125 
L 11.1875 0 
L 0.78125 0 
z
" id="DejaVuSans-65"/>
       <path d="M 45.40625 46.390625 
L 45.40625 75.984375 
L 54.390625 75.984375 
L 54.390625 0 
L 45.40625 0 
L 45.40625 8.203125 
Q 42.578125 3.328125 38.25 0.953125 
Q 33.9375 -1.421875 27.875 -1.421875 
Q 17.96875 -1.421875 11.734375 6.484375 
Q 5.515625 14.40625 5.515625 27.296875 
Q 5.515625 40.1875 11.734375 48.09375 
Q 17.96875 56 27.875 56 
Q 33.9375 56 38.25 53.625 
Q 42.578125 51.265625 45.40625 46.390625 
z
M 14.796875 27.296875 
Q 14.796875 17.390625 18.875 11.75 
Q 22.953125 6.109375 30.078125 6.109375 
Q 37.203125 6.109375 41.296875 11.75 
Q 45.40625 17.390625 45.40625 27.296875 
Q 45.40625 37.203125 41.296875 42.84375 
Q 37.203125 48.484375 30.078125 48.484375 
Q 22.953125 48.484375 18.875 42.84375 
Q 14.796875 37.203125 14.796875 27.296875 
z
" id="DejaVuSans-100"/>
      </defs>
      <use xlink:href="#DejaVuSans-65"/>
      <use x="68.408203" xlink:href="#DejaVuSans-117"/>
      <use x="131.787109" xlink:href="#DejaVuSans-100"/>
      <use x="195.263672" xlink:href="#DejaVuSans-105"/>
      <use x="223.046875" xlink:href="#DejaVuSans-116"/>
      <use x="262.255859" xlink:href="#DejaVuSans-111"/>
      <use x="323.4375" xlink:href="#DejaVuSans-114"/>
      <use x="364.550781" xlink:href="#DejaVuSans-121"/>
     </g>
    </g>
   </g>
  </g>
 </g>
 <defs>
  <clipPath id="p0d283ecaa8">
   <rect height="308.62" width="557.87" x="70.69" y="24.94"/>
  </clipPath>
 </defs>
</svg>
