<?xml version="1.0" encoding="utf-8" standalone="no"?>
<!DOCTYPE svg PUBLIC "-//W3C//DTD SVG 1.1//EN"
  "http://www.w3.org/Graphics/SVG/1.1/DTD/svg11.dtd">
<!-- Created with matplotlib (https://matplotlib.org/) -->
<svg height="396pt" version="1.1" viewBox="0 0 1152 396" width="1152pt" xmlns="http://www.w3.org/2000/svg" xmlns:xlink="http://www.w3.org/1999/xlink">
 <metadata>
  <rdf:RDF xmlns:cc="http://creativecommons.org/ns#" xmlns:dc="http://purl.org/dc/elements/1.1/" xmlns:rdf="http://www.w3.org/1999/02/22-rdf-syntax-ns#">
   <cc:Work>
    <dc:type rdf:resource="http://purl.org/dc/dcmitype/StillImage"/>
    <dc:date>2022-05-10T12:49:14.173044</dc:date>
    <dc:format>image/svg+xml</dc:format>
    <dc:creator>
     <cc:Agent>
      <dc:title>Matplotlib v3.3.2, https://matplotlib.org/</dc:title>
     </cc:Agent>
    </dc:creator>
   </cc:Work>
  </rdf:RDF>
 </metadata>
 <defs>
  <style type="text/css">*{stroke-linecap:butt;stroke-linejoin:round;}</style>
 </defs>
 <g id="figure_1">
  <g id="patch_1">
   <path d="M 0 396 
L 1152 396 
L 1152 0 
L 0 0 
z
" style="fill:none;"/>
  </g>
  <g id="axes_1">
   <g id="patch_2">
    <path d="M 70.69 355.56 
L 595.375 355.56 
L 595.375 39.44 
L 70.69 39.44 
z
" style="fill:#ffffff;"/>
   </g>
   <g id="PolyCollection_1">
    <defs>
     <path d="M 91.6774 -353.460784 
L 91.6774 -353.460784 
L 112.6648 -264.914194 
L 133.6522 -241.290637 
L 154.6396 -207.340904 
L 175.627 -193.563602 
L 196.6144 -190.646169 
L 217.6018 -186.747291 
L 238.5892 -182.634076 
L 259.5766 -187.319132 
L 280.564 -197.191941 
L 301.5514 -209.286013 
L 322.5388 -222.187113 
L 322.5388 -212.558446 
L 322.5388 -212.558446 
L 301.5514 -199.816481 
L 280.564 -187.630086 
L 259.5766 -177.892207 
L 238.5892 -173.136404 
L 217.6018 -177.245456 
L 196.6144 -181.213298 
L 175.627 -183.960778 
L 154.6396 -197.784034 
L 133.6522 -232.068491 
L 112.6648 -256.12594 
L 91.6774 -353.460784 
z
" id="mdf32cd845f" style="stroke:#011f5b;stroke-opacity:0.3;"/>
    </defs>
    <g clip-path="url(#p3f93ff6d85)">
     <use style="fill:#011f5b;fill-opacity:0.3;stroke:#011f5b;stroke-opacity:0.3;" x="0" xlink:href="#mdf32cd845f" y="396"/>
    </g>
   </g>
   <g id="PolyCollection_2">
    <defs>
     <path d="M 91.6774 -353.460784 
L 91.6774 -353.460784 
L 112.6648 -258.851654 
L 133.6522 -225.939154 
L 154.6396 -207.061262 
L 175.627 -201.773859 
L 196.6144 -190.893892 
L 217.6018 -192.456084 
L 238.5892 -195.651208 
L 259.5766 -203.550394 
L 280.564 -222.347947 
L 301.5514 -244.94415 
L 322.5388 -291.431538 
L 322.5388 -282.850408 
L 322.5388 -282.850408 
L 301.5514 -234.840959 
L 280.564 -212.13118 
L 259.5766 -192.976705 
L 238.5892 -185.157069 
L 217.6018 -182.147365 
L 196.6144 -180.43466 
L 175.627 -191.280729 
L 154.6396 -196.560496 
L 133.6522 -215.490705 
L 112.6648 -249.051652 
L 91.6774 -353.460784 
z
" id="m568ea8083a" style="stroke:#990000;stroke-opacity:0.3;"/>
    </defs>
    <g clip-path="url(#p3f93ff6d85)">
     <use style="fill:#990000;fill-opacity:0.3;stroke:#990000;stroke-opacity:0.3;" x="0" xlink:href="#m568ea8083a" y="396"/>
    </g>
   </g>
   <g id="PolyCollection_3">
    <defs>
     <path d="M 91.6774 -353.460784 
L 91.6774 -353.460784 
L 112.6648 -259.7497 
L 133.6522 -215.985055 
L 154.6396 -194.135597 
L 175.627 -179.346674 
L 196.6144 -172.097598 
L 217.6018 -165.766171 
L 238.5892 -164.351264 
L 259.5766 -154.862411 
L 280.564 -159.262755 
L 301.5514 -154.069995 
L 322.5388 -149.26371 
L 343.5262 -155.348241 
L 364.5136 -154.144308 
L 385.501 -153.558776 
L 406.4884 -147.228318 
L 427.4758 -146.231499 
L 448.4632 -151.698919 
L 469.4506 -151.163397 
L 490.438 -151.530312 
L 511.4254 -156.464325 
L 532.4128 -156.420214 
L 553.4002 -157.978339 
L 574.3876 -163.780576 
L 574.3876 -152.791365 
L 574.3876 -152.791365 
L 553.4002 -147.370252 
L 532.4128 -145.601177 
L 511.4254 -145.916763 
L 490.438 -141.000094 
L 469.4506 -140.537854 
L 448.4632 -141.13432 
L 427.4758 -135.620393 
L 406.4884 -136.743407 
L 385.501 -142.719359 
L 364.5136 -143.372931 
L 343.5262 -144.501741 
L 322.5388 -138.867016 
L 301.5514 -143.47766 
L 280.564 -148.400065 
L 259.5766 -144.270822 
L 238.5892 -153.312994 
L 217.6018 -154.529696 
L 196.6144 -160.827348 
L 175.627 -168.333796 
L 154.6396 -182.895911 
L 133.6522 -204.667689 
L 112.6648 -249.256346 
L 91.6774 -353.460784 
z
" id="m8918a75d68" style="stroke:#011f5b;stroke-opacity:0.3;"/>
    </defs>
    <g clip-path="url(#p3f93ff6d85)">
     <use style="fill:#011f5b;fill-opacity:0.3;stroke:#011f5b;stroke-opacity:0.3;" x="0" xlink:href="#m8918a75d68" y="396"/>
    </g>
   </g>
   <g id="PolyCollection_4">
    <defs>
     <path d="M 91.6774 -353.460784 
L 91.6774 -353.460784 
L 112.6648 -250.666617 
L 133.6522 -222.966302 
L 154.6396 -190.724145 
L 175.627 -192.33394 
L 196.6144 -179.558076 
L 217.6018 -177.85576 
L 238.5892 -170.274882 
L 259.5766 -164.608882 
L 280.564 -163.644793 
L 301.5514 -164.298844 
L 322.5388 -167.367328 
L 343.5262 -160.006685 
L 364.5136 -157.944611 
L 385.501 -160.575885 
L 406.4884 -160.791762 
L 427.4758 -154.801901 
L 448.4632 -150.471486 
L 469.4506 -146.416842 
L 490.438 -155.452811 
L 511.4254 -159.821344 
L 532.4128 -169.288627 
L 553.4002 -196.702463 
L 574.3876 -242.023804 
L 574.3876 -229.748307 
L 574.3876 -229.748307 
L 553.4002 -184.267653 
L 532.4128 -157.10138 
L 511.4254 -148.06443 
L 490.438 -143.55294 
L 469.4506 -134.685993 
L 448.4632 -138.888075 
L 427.4758 -142.939986 
L 406.4884 -148.836732 
L 385.501 -148.369651 
L 364.5136 -146.22179 
L 343.5262 -147.866528 
L 322.5388 -155.135314 
L 301.5514 -152.196909 
L 280.564 -151.469344 
L 259.5766 -152.572968 
L 238.5892 -157.917506 
L 217.6018 -165.335011 
L 196.6144 -167.082024 
L 175.627 -179.639972 
L 154.6396 -178.247893 
L 133.6522 -210.519348 
L 112.6648 -238.540545 
L 91.6774 -353.460784 
z
" id="mba2f8eb92c" style="stroke:#990000;stroke-opacity:0.3;"/>
    </defs>
    <g clip-path="url(#p3f93ff6d85)">
     <use style="fill:#990000;fill-opacity:0.3;stroke:#990000;stroke-opacity:0.3;" x="0" xlink:href="#mba2f8eb92c" y="396"/>
    </g>
   </g>
   <g id="matplotlib.axis_1">
    <g id="xtick_1">
     <g id="line2d_1">
      <defs>
       <path d="M 0 0 
L 0 3.5 
" id="md000df604d" style="stroke:#000000;stroke-width:0.8;"/>
      </defs>
      <g>
       <use style="stroke:#000000;stroke-width:0.8;" x="91.6774" xlink:href="#md000df604d" y="355.56"/>
      </g>
     </g>
     <g id="text_1">
      <!-- 1 -->
      <g transform="translate(87.22365 373.197813)scale(0.14 -0.14)">
       <defs>
        <path d="M 12.40625 8.296875 
L 28.515625 8.296875 
L 28.515625 63.921875 
L 10.984375 60.40625 
L 10.984375 69.390625 
L 28.421875 72.90625 
L 38.28125 72.90625 
L 38.28125 8.296875 
L 54.390625 8.296875 
L 54.390625 0 
L 12.40625 0 
z
" id="DejaVuSans-49"/>
       </defs>
       <use xlink:href="#DejaVuSans-49"/>
      </g>
     </g>
    </g>
    <g id="xtick_2">
     <g id="line2d_2">
      <g>
       <use style="stroke:#000000;stroke-width:0.8;" x="154.6396" xlink:href="#md000df604d" y="355.56"/>
      </g>
     </g>
     <g id="text_2">
      <!-- 4 -->
      <g transform="translate(150.18585 373.197813)scale(0.14 -0.14)">
       <defs>
        <path d="M 37.796875 64.3125 
L 12.890625 25.390625 
L 37.796875 25.390625 
z
M 35.203125 72.90625 
L 47.609375 72.90625 
L 47.609375 25.390625 
L 58.015625 25.390625 
L 58.015625 17.1875 
L 47.609375 17.1875 
L 47.609375 0 
L 37.796875 0 
L 37.796875 17.1875 
L 4.890625 17.1875 
L 4.890625 26.703125 
z
" id="DejaVuSans-52"/>
       </defs>
       <use xlink:href="#DejaVuSans-52"/>
      </g>
     </g>
    </g>
    <g id="xtick_3">
     <g id="line2d_3">
      <g>
       <use style="stroke:#000000;stroke-width:0.8;" x="238.5892" xlink:href="#md000df604d" y="355.56"/>
      </g>
     </g>
     <g id="text_3">
      <!-- 8 -->
      <g transform="translate(234.13545 373.197813)scale(0.14 -0.14)">
       <defs>
        <path d="M 31.78125 34.625 
Q 24.75 34.625 20.71875 30.859375 
Q 16.703125 27.09375 16.703125 20.515625 
Q 16.703125 13.921875 20.71875 10.15625 
Q 24.75 6.390625 31.78125 6.390625 
Q 38.8125 6.390625 42.859375 10.171875 
Q 46.921875 13.96875 46.921875 20.515625 
Q 46.921875 27.09375 42.890625 30.859375 
Q 38.875 34.625 31.78125 34.625 
z
M 21.921875 38.8125 
Q 15.578125 40.375 12.03125 44.71875 
Q 8.5 49.078125 8.5 55.328125 
Q 8.5 64.0625 14.71875 69.140625 
Q 20.953125 74.21875 31.78125 74.21875 
Q 42.671875 74.21875 48.875 69.140625 
Q 55.078125 64.0625 55.078125 55.328125 
Q 55.078125 49.078125 51.53125 44.71875 
Q 48 40.375 41.703125 38.8125 
Q 48.828125 37.15625 52.796875 32.3125 
Q 56.78125 27.484375 56.78125 20.515625 
Q 56.78125 9.90625 50.3125 4.234375 
Q 43.84375 -1.421875 31.78125 -1.421875 
Q 19.734375 -1.421875 13.25 4.234375 
Q 6.78125 9.90625 6.78125 20.515625 
Q 6.78125 27.484375 10.78125 32.3125 
Q 14.796875 37.15625 21.921875 38.8125 
z
M 18.3125 54.390625 
Q 18.3125 48.734375 21.84375 45.5625 
Q 25.390625 42.390625 31.78125 42.390625 
Q 38.140625 42.390625 41.71875 45.5625 
Q 45.3125 48.734375 45.3125 54.390625 
Q 45.3125 60.0625 41.71875 63.234375 
Q 38.140625 66.40625 31.78125 66.40625 
Q 25.390625 66.40625 21.84375 63.234375 
Q 18.3125 60.0625 18.3125 54.390625 
z
" id="DejaVuSans-56"/>
       </defs>
       <use xlink:href="#DejaVuSans-56"/>
      </g>
     </g>
    </g>
    <g id="xtick_4">
     <g id="line2d_4">
      <g>
       <use style="stroke:#000000;stroke-width:0.8;" x="322.5388" xlink:href="#md000df604d" y="355.56"/>
      </g>
     </g>
     <g id="text_4">
      <!-- 12 -->
      <g transform="translate(313.6313 373.197813)scale(0.14 -0.14)">
       <defs>
        <path d="M 19.1875 8.296875 
L 53.609375 8.296875 
L 53.609375 0 
L 7.328125 0 
L 7.328125 8.296875 
Q 12.9375 14.109375 22.625 23.890625 
Q 32.328125 33.6875 34.8125 36.53125 
Q 39.546875 41.84375 41.421875 45.53125 
Q 43.3125 49.21875 43.3125 52.78125 
Q 43.3125 58.59375 39.234375 62.25 
Q 35.15625 65.921875 28.609375 65.921875 
Q 23.96875 65.921875 18.8125 64.3125 
Q 13.671875 62.703125 7.8125 59.421875 
L 7.8125 69.390625 
Q 13.765625 71.78125 18.9375 73 
Q 24.125 74.21875 28.421875 74.21875 
Q 39.75 74.21875 46.484375 68.546875 
Q 53.21875 62.890625 53.21875 53.421875 
Q 53.21875 48.921875 51.53125 44.890625 
Q 49.859375 40.875 45.40625 35.40625 
Q 44.1875 33.984375 37.640625 27.21875 
Q 31.109375 20.453125 19.1875 8.296875 
z
" id="DejaVuSans-50"/>
       </defs>
       <use xlink:href="#DejaVuSans-49"/>
       <use x="63.623047" xlink:href="#DejaVuSans-50"/>
      </g>
     </g>
    </g>
    <g id="xtick_5">
     <g id="line2d_5">
      <g>
       <use style="stroke:#000000;stroke-width:0.8;" x="406.4884" xlink:href="#md000df604d" y="355.56"/>
      </g>
     </g>
     <g id="text_5">
      <!-- 16 -->
      <g transform="translate(397.5809 373.197813)scale(0.14 -0.14)">
       <defs>
        <path d="M 33.015625 40.375 
Q 26.375 40.375 22.484375 35.828125 
Q 18.609375 31.296875 18.609375 23.390625 
Q 18.609375 15.53125 22.484375 10.953125 
Q 26.375 6.390625 33.015625 6.390625 
Q 39.65625 6.390625 43.53125 10.953125 
Q 47.40625 15.53125 47.40625 23.390625 
Q 47.40625 31.296875 43.53125 35.828125 
Q 39.65625 40.375 33.015625 40.375 
z
M 52.59375 71.296875 
L 52.59375 62.3125 
Q 48.875 64.0625 45.09375 64.984375 
Q 41.3125 65.921875 37.59375 65.921875 
Q 27.828125 65.921875 22.671875 59.328125 
Q 17.53125 52.734375 16.796875 39.40625 
Q 19.671875 43.65625 24.015625 45.921875 
Q 28.375 48.1875 33.59375 48.1875 
Q 44.578125 48.1875 50.953125 41.515625 
Q 57.328125 34.859375 57.328125 23.390625 
Q 57.328125 12.15625 50.6875 5.359375 
Q 44.046875 -1.421875 33.015625 -1.421875 
Q 20.359375 -1.421875 13.671875 8.265625 
Q 6.984375 17.96875 6.984375 36.375 
Q 6.984375 53.65625 15.1875 63.9375 
Q 23.390625 74.21875 37.203125 74.21875 
Q 40.921875 74.21875 44.703125 73.484375 
Q 48.484375 72.75 52.59375 71.296875 
z
" id="DejaVuSans-54"/>
       </defs>
       <use xlink:href="#DejaVuSans-49"/>
       <use x="63.623047" xlink:href="#DejaVuSans-54"/>
      </g>
     </g>
    </g>
    <g id="xtick_6">
     <g id="line2d_6">
      <g>
       <use style="stroke:#000000;stroke-width:0.8;" x="490.438" xlink:href="#md000df604d" y="355.56"/>
      </g>
     </g>
     <g id="text_6">
      <!-- 20 -->
      <g transform="translate(481.5305 373.197813)scale(0.14 -0.14)">
       <defs>
        <path d="M 31.78125 66.40625 
Q 24.171875 66.40625 20.328125 58.90625 
Q 16.5 51.421875 16.5 36.375 
Q 16.5 21.390625 20.328125 13.890625 
Q 24.171875 6.390625 31.78125 6.390625 
Q 39.453125 6.390625 43.28125 13.890625 
Q 47.125 21.390625 47.125 36.375 
Q 47.125 51.421875 43.28125 58.90625 
Q 39.453125 66.40625 31.78125 66.40625 
z
M 31.78125 74.21875 
Q 44.046875 74.21875 50.515625 64.515625 
Q 56.984375 54.828125 56.984375 36.375 
Q 56.984375 17.96875 50.515625 8.265625 
Q 44.046875 -1.421875 31.78125 -1.421875 
Q 19.53125 -1.421875 13.0625 8.265625 
Q 6.59375 17.96875 6.59375 36.375 
Q 6.59375 54.828125 13.0625 64.515625 
Q 19.53125 74.21875 31.78125 74.21875 
z
" id="DejaVuSans-48"/>
       </defs>
       <use xlink:href="#DejaVuSans-50"/>
       <use x="63.623047" xlink:href="#DejaVuSans-48"/>
      </g>
     </g>
    </g>
    <g id="xtick_7">
     <g id="line2d_7">
      <g>
       <use style="stroke:#000000;stroke-width:0.8;" x="574.3876" xlink:href="#md000df604d" y="355.56"/>
      </g>
     </g>
     <g id="text_7">
      <!-- 24 -->
      <g transform="translate(565.4801 373.197813)scale(0.14 -0.14)">
       <use xlink:href="#DejaVuSans-50"/>
       <use x="63.623047" xlink:href="#DejaVuSans-52"/>
      </g>
     </g>
    </g>
   </g>
   <g id="matplotlib.axis_2">
    <g id="ytick_1">
     <g id="line2d_8">
      <defs>
       <path d="M 0 0 
L -3.5 0 
" id="mdaa82bbc00" style="stroke:#000000;stroke-width:0.8;"/>
      </defs>
      <g>
       <use style="stroke:#000000;stroke-width:0.8;" x="70.69" xlink:href="#mdaa82bbc00" y="352.460784"/>
      </g>
     </g>
     <g id="text_8">
      <!-- 0.0 -->
      <g transform="translate(41.425625 357.779691)scale(0.14 -0.14)">
       <defs>
        <path d="M 10.6875 12.40625 
L 21 12.40625 
L 21 0 
L 10.6875 0 
z
" id="DejaVuSans-46"/>
       </defs>
       <use xlink:href="#DejaVuSans-48"/>
       <use x="63.623047" xlink:href="#DejaVuSans-46"/>
       <use x="95.410156" xlink:href="#DejaVuSans-48"/>
      </g>
     </g>
    </g>
    <g id="ytick_2">
     <g id="line2d_9">
      <g>
       <use style="stroke:#000000;stroke-width:0.8;" x="70.69" xlink:href="#mdaa82bbc00" y="290.476471"/>
      </g>
     </g>
     <g id="text_9">
      <!-- 0.2 -->
      <g transform="translate(41.425625 295.795377)scale(0.14 -0.14)">
       <use xlink:href="#DejaVuSans-48"/>
       <use x="63.623047" xlink:href="#DejaVuSans-46"/>
       <use x="95.410156" xlink:href="#DejaVuSans-50"/>
      </g>
     </g>
    </g>
    <g id="ytick_3">
     <g id="line2d_10">
      <g>
       <use style="stroke:#000000;stroke-width:0.8;" x="70.69" xlink:href="#mdaa82bbc00" y="228.492157"/>
      </g>
     </g>
     <g id="text_10">
      <!-- 0.4 -->
      <g transform="translate(41.425625 233.811063)scale(0.14 -0.14)">
       <use xlink:href="#DejaVuSans-48"/>
       <use x="63.623047" xlink:href="#DejaVuSans-46"/>
       <use x="95.410156" xlink:href="#DejaVuSans-52"/>
      </g>
     </g>
    </g>
    <g id="ytick_4">
     <g id="line2d_11">
      <g>
       <use style="stroke:#000000;stroke-width:0.8;" x="70.69" xlink:href="#mdaa82bbc00" y="166.507843"/>
      </g>
     </g>
     <g id="text_11">
      <!-- 0.6 -->
      <g transform="translate(41.425625 171.826749)scale(0.14 -0.14)">
       <use xlink:href="#DejaVuSans-48"/>
       <use x="63.623047" xlink:href="#DejaVuSans-46"/>
       <use x="95.410156" xlink:href="#DejaVuSans-54"/>
      </g>
     </g>
    </g>
    <g id="ytick_5">
     <g id="line2d_12">
      <g>
       <use style="stroke:#000000;stroke-width:0.8;" x="70.69" xlink:href="#mdaa82bbc00" y="104.523529"/>
      </g>
     </g>
     <g id="text_12">
      <!-- 0.8 -->
      <g transform="translate(41.425625 109.842436)scale(0.14 -0.14)">
       <use xlink:href="#DejaVuSans-48"/>
       <use x="63.623047" xlink:href="#DejaVuSans-46"/>
       <use x="95.410156" xlink:href="#DejaVuSans-56"/>
      </g>
     </g>
    </g>
    <g id="ytick_6">
     <g id="line2d_13">
      <g>
       <use style="stroke:#000000;stroke-width:0.8;" x="70.69" xlink:href="#mdaa82bbc00" y="42.539216"/>
      </g>
     </g>
     <g id="text_13">
      <!-- 1.0 -->
      <g transform="translate(41.425625 47.858122)scale(0.14 -0.14)">
       <use xlink:href="#DejaVuSans-49"/>
       <use x="63.623047" xlink:href="#DejaVuSans-46"/>
       <use x="95.410156" xlink:href="#DejaVuSans-48"/>
      </g>
     </g>
    </g>
    <g id="text_14">
     <!-- Recall Probability -->
     <g transform="translate(33.682187 274.783281)rotate(-90)scale(0.18 -0.18)">
      <defs>
       <path d="M 44.390625 34.1875 
Q 47.5625 33.109375 50.5625 29.59375 
Q 53.5625 26.078125 56.59375 19.921875 
L 66.609375 0 
L 56 0 
L 46.6875 18.703125 
Q 43.0625 26.03125 39.671875 28.421875 
Q 36.28125 30.8125 30.421875 30.8125 
L 19.671875 30.8125 
L 19.671875 0 
L 9.8125 0 
L 9.8125 72.90625 
L 32.078125 72.90625 
Q 44.578125 72.90625 50.734375 67.671875 
Q 56.890625 62.453125 56.890625 51.90625 
Q 56.890625 45.015625 53.6875 40.46875 
Q 50.484375 35.9375 44.390625 34.1875 
z
M 19.671875 64.796875 
L 19.671875 38.921875 
L 32.078125 38.921875 
Q 39.203125 38.921875 42.84375 42.21875 
Q 46.484375 45.515625 46.484375 51.90625 
Q 46.484375 58.296875 42.84375 61.546875 
Q 39.203125 64.796875 32.078125 64.796875 
z
" id="DejaVuSans-82"/>
       <path d="M 56.203125 29.59375 
L 56.203125 25.203125 
L 14.890625 25.203125 
Q 15.484375 15.921875 20.484375 11.0625 
Q 25.484375 6.203125 34.421875 6.203125 
Q 39.59375 6.203125 44.453125 7.46875 
Q 49.3125 8.734375 54.109375 11.28125 
L 54.109375 2.78125 
Q 49.265625 0.734375 44.1875 -0.34375 
Q 39.109375 -1.421875 33.890625 -1.421875 
Q 20.796875 -1.421875 13.15625 6.1875 
Q 5.515625 13.8125 5.515625 26.8125 
Q 5.515625 40.234375 12.765625 48.109375 
Q 20.015625 56 32.328125 56 
Q 43.359375 56 49.78125 48.890625 
Q 56.203125 41.796875 56.203125 29.59375 
z
M 47.21875 32.234375 
Q 47.125 39.59375 43.09375 43.984375 
Q 39.0625 48.390625 32.421875 48.390625 
Q 24.90625 48.390625 20.390625 44.140625 
Q 15.875 39.890625 15.1875 32.171875 
z
" id="DejaVuSans-101"/>
       <path d="M 48.78125 52.59375 
L 48.78125 44.1875 
Q 44.96875 46.296875 41.140625 47.34375 
Q 37.3125 48.390625 33.40625 48.390625 
Q 24.65625 48.390625 19.8125 42.84375 
Q 14.984375 37.3125 14.984375 27.296875 
Q 14.984375 17.28125 19.8125 11.734375 
Q 24.65625 6.203125 33.40625 6.203125 
Q 37.3125 6.203125 41.140625 7.25 
Q 44.96875 8.296875 48.78125 10.40625 
L 48.78125 2.09375 
Q 45.015625 0.34375 40.984375 -0.53125 
Q 36.96875 -1.421875 32.421875 -1.421875 
Q 20.0625 -1.421875 12.78125 6.34375 
Q 5.515625 14.109375 5.515625 27.296875 
Q 5.515625 40.671875 12.859375 48.328125 
Q 20.21875 56 33.015625 56 
Q 37.15625 56 41.109375 55.140625 
Q 45.0625 54.296875 48.78125 52.59375 
z
" id="DejaVuSans-99"/>
       <path d="M 34.28125 27.484375 
Q 23.390625 27.484375 19.1875 25 
Q 14.984375 22.515625 14.984375 16.5 
Q 14.984375 11.71875 18.140625 8.90625 
Q 21.296875 6.109375 26.703125 6.109375 
Q 34.1875 6.109375 38.703125 11.40625 
Q 43.21875 16.703125 43.21875 25.484375 
L 43.21875 27.484375 
z
M 52.203125 31.203125 
L 52.203125 0 
L 43.21875 0 
L 43.21875 8.296875 
Q 40.140625 3.328125 35.546875 0.953125 
Q 30.953125 -1.421875 24.3125 -1.421875 
Q 15.921875 -1.421875 10.953125 3.296875 
Q 6 8.015625 6 15.921875 
Q 6 25.140625 12.171875 29.828125 
Q 18.359375 34.515625 30.609375 34.515625 
L 43.21875 34.515625 
L 43.21875 35.40625 
Q 43.21875 41.609375 39.140625 45 
Q 35.0625 48.390625 27.6875 48.390625 
Q 23 48.390625 18.546875 47.265625 
Q 14.109375 46.140625 10.015625 43.890625 
L 10.015625 52.203125 
Q 14.9375 54.109375 19.578125 55.046875 
Q 24.21875 56 28.609375 56 
Q 40.484375 56 46.34375 49.84375 
Q 52.203125 43.703125 52.203125 31.203125 
z
" id="DejaVuSans-97"/>
       <path d="M 9.421875 75.984375 
L 18.40625 75.984375 
L 18.40625 0 
L 9.421875 0 
z
" id="DejaVuSans-108"/>
       <path id="DejaVuSans-32"/>
       <path d="M 19.671875 64.796875 
L 19.671875 37.40625 
L 32.078125 37.40625 
Q 38.96875 37.40625 42.71875 40.96875 
Q 46.484375 44.53125 46.484375 51.125 
Q 46.484375 57.671875 42.71875 61.234375 
Q 38.96875 64.796875 32.078125 64.796875 
z
M 9.8125 72.90625 
L 32.078125 72.90625 
Q 44.34375 72.90625 50.609375 67.359375 
Q 56.890625 61.8125 56.890625 51.125 
Q 56.890625 40.328125 50.609375 34.8125 
Q 44.34375 29.296875 32.078125 29.296875 
L 19.671875 29.296875 
L 19.671875 0 
L 9.8125 0 
z
" id="DejaVuSans-80"/>
       <path d="M 41.109375 46.296875 
Q 39.59375 47.171875 37.8125 47.578125 
Q 36.03125 48 33.890625 48 
Q 26.265625 48 22.1875 43.046875 
Q 18.109375 38.09375 18.109375 28.8125 
L 18.109375 0 
L 9.078125 0 
L 9.078125 54.6875 
L 18.109375 54.6875 
L 18.109375 46.1875 
Q 20.953125 51.171875 25.484375 53.578125 
Q 30.03125 56 36.53125 56 
Q 37.453125 56 38.578125 55.875 
Q 39.703125 55.765625 41.0625 55.515625 
z
" id="DejaVuSans-114"/>
       <path d="M 30.609375 48.390625 
Q 23.390625 48.390625 19.1875 42.75 
Q 14.984375 37.109375 14.984375 27.296875 
Q 14.984375 17.484375 19.15625 11.84375 
Q 23.34375 6.203125 30.609375 6.203125 
Q 37.796875 6.203125 41.984375 11.859375 
Q 46.1875 17.53125 46.1875 27.296875 
Q 46.1875 37.015625 41.984375 42.703125 
Q 37.796875 48.390625 30.609375 48.390625 
z
M 30.609375 56 
Q 42.328125 56 49.015625 48.375 
Q 55.71875 40.765625 55.71875 27.296875 
Q 55.71875 13.875 49.015625 6.21875 
Q 42.328125 -1.421875 30.609375 -1.421875 
Q 18.84375 -1.421875 12.171875 6.21875 
Q 5.515625 13.875 5.515625 27.296875 
Q 5.515625 40.765625 12.171875 48.375 
Q 18.84375 56 30.609375 56 
z
" id="DejaVuSans-111"/>
       <path d="M 48.6875 27.296875 
Q 48.6875 37.203125 44.609375 42.84375 
Q 40.53125 48.484375 33.40625 48.484375 
Q 26.265625 48.484375 22.1875 42.84375 
Q 18.109375 37.203125 18.109375 27.296875 
Q 18.109375 17.390625 22.1875 11.75 
Q 26.265625 6.109375 33.40625 6.109375 
Q 40.53125 6.109375 44.609375 11.75 
Q 48.6875 17.390625 48.6875 27.296875 
z
M 18.109375 46.390625 
Q 20.953125 51.265625 25.265625 53.625 
Q 29.59375 56 35.59375 56 
Q 45.5625 56 51.78125 48.09375 
Q 58.015625 40.1875 58.015625 27.296875 
Q 58.015625 14.40625 51.78125 6.484375 
Q 45.5625 -1.421875 35.59375 -1.421875 
Q 29.59375 -1.421875 25.265625 0.953125 
Q 20.953125 3.328125 18.109375 8.203125 
L 18.109375 0 
L 9.078125 0 
L 9.078125 75.984375 
L 18.109375 75.984375 
z
" id="DejaVuSans-98"/>
       <path d="M 9.421875 54.6875 
L 18.40625 54.6875 
L 18.40625 0 
L 9.421875 0 
z
M 9.421875 75.984375 
L 18.40625 75.984375 
L 18.40625 64.59375 
L 9.421875 64.59375 
z
" id="DejaVuSans-105"/>
       <path d="M 18.3125 70.21875 
L 18.3125 54.6875 
L 36.8125 54.6875 
L 36.8125 47.703125 
L 18.3125 47.703125 
L 18.3125 18.015625 
Q 18.3125 11.328125 20.140625 9.421875 
Q 21.96875 7.515625 27.59375 7.515625 
L 36.8125 7.515625 
L 36.8125 0 
L 27.59375 0 
Q 17.1875 0 13.234375 3.875 
Q 9.28125 7.765625 9.28125 18.015625 
L 9.28125 47.703125 
L 2.6875 47.703125 
L 2.6875 54.6875 
L 9.28125 54.6875 
L 9.28125 70.21875 
z
" id="DejaVuSans-116"/>
       <path d="M 32.171875 -5.078125 
Q 28.375 -14.84375 24.75 -17.8125 
Q 21.140625 -20.796875 15.09375 -20.796875 
L 7.90625 -20.796875 
L 7.90625 -13.28125 
L 13.1875 -13.28125 
Q 16.890625 -13.28125 18.9375 -11.515625 
Q 21 -9.765625 23.484375 -3.21875 
L 25.09375 0.875 
L 2.984375 54.6875 
L 12.5 54.6875 
L 29.59375 11.921875 
L 46.6875 54.6875 
L 56.203125 54.6875 
z
" id="DejaVuSans-121"/>
      </defs>
      <use xlink:href="#DejaVuSans-82"/>
      <use x="64.982422" xlink:href="#DejaVuSans-101"/>
      <use x="126.505859" xlink:href="#DejaVuSans-99"/>
      <use x="181.486328" xlink:href="#DejaVuSans-97"/>
      <use x="242.765625" xlink:href="#DejaVuSans-108"/>
      <use x="270.548828" xlink:href="#DejaVuSans-108"/>
      <use x="298.332031" xlink:href="#DejaVuSans-32"/>
      <use x="330.119141" xlink:href="#DejaVuSans-80"/>
      <use x="388.671875" xlink:href="#DejaVuSans-114"/>
      <use x="427.535156" xlink:href="#DejaVuSans-111"/>
      <use x="488.716797" xlink:href="#DejaVuSans-98"/>
      <use x="552.193359" xlink:href="#DejaVuSans-97"/>
      <use x="613.472656" xlink:href="#DejaVuSans-98"/>
      <use x="676.949219" xlink:href="#DejaVuSans-105"/>
      <use x="704.732422" xlink:href="#DejaVuSans-108"/>
      <use x="732.515625" xlink:href="#DejaVuSans-105"/>
      <use x="760.298828" xlink:href="#DejaVuSans-116"/>
      <use x="799.507812" xlink:href="#DejaVuSans-121"/>
     </g>
    </g>
   </g>
   <g id="patch_3">
    <path d="M 70.69 355.56 
L 70.69 39.44 
" style="fill:none;stroke:#000000;stroke-linecap:square;stroke-linejoin:miter;stroke-width:0.8;"/>
   </g>
   <g id="patch_4">
    <path d="M 70.69 355.56 
L 595.375 355.56 
" style="fill:none;stroke:#000000;stroke-linecap:square;stroke-linejoin:miter;stroke-width:0.8;"/>
   </g>
   <g id="line2d_14">
    <path clip-path="url(#p3f93ff6d85)" d="M 91.6774 42.539216 
L 112.6648 142.048347 
L 133.6522 175.285071 
L 154.6396 194.189121 
L 175.627 199.472706 
L 196.6144 210.335724 
L 217.6018 208.698275 
L 238.5892 205.595861 
L 259.5766 197.736451 
L 280.564 178.760437 
L 301.5514 156.107446 
L 322.5388 108.859027 
" style="fill:none;stroke:#990000;stroke-linecap:square;stroke-width:1.5;"/>
    <defs>
     <path d="M 0 3 
C 0.795609 3 1.55874 2.683901 2.12132 2.12132 
C 2.683901 1.55874 3 0.795609 3 0 
C 3 -0.795609 2.683901 -1.55874 2.12132 -2.12132 
C 1.55874 -2.683901 0.795609 -3 0 -3 
C -0.795609 -3 -1.55874 -2.683901 -2.12132 -2.12132 
C -2.683901 -1.55874 -3 -0.795609 -3 0 
C -3 0.795609 -2.683901 1.55874 -2.12132 2.12132 
C -1.55874 2.683901 -0.795609 3 0 3 
z
" id="m3eb1142d44" style="stroke:#990000;"/>
    </defs>
    <g clip-path="url(#p3f93ff6d85)">
     <use style="fill:#990000;stroke:#990000;" x="91.6774" xlink:href="#m3eb1142d44" y="42.539216"/>
     <use style="fill:#990000;stroke:#990000;" x="112.6648" xlink:href="#m3eb1142d44" y="142.048347"/>
     <use style="fill:#990000;stroke:#990000;" x="133.6522" xlink:href="#m3eb1142d44" y="175.285071"/>
     <use style="fill:#990000;stroke:#990000;" x="154.6396" xlink:href="#m3eb1142d44" y="194.189121"/>
     <use style="fill:#990000;stroke:#990000;" x="175.627" xlink:href="#m3eb1142d44" y="199.472706"/>
     <use style="fill:#990000;stroke:#990000;" x="196.6144" xlink:href="#m3eb1142d44" y="210.335724"/>
     <use style="fill:#990000;stroke:#990000;" x="217.6018" xlink:href="#m3eb1142d44" y="208.698275"/>
     <use style="fill:#990000;stroke:#990000;" x="238.5892" xlink:href="#m3eb1142d44" y="205.595861"/>
     <use style="fill:#990000;stroke:#990000;" x="259.5766" xlink:href="#m3eb1142d44" y="197.736451"/>
     <use style="fill:#990000;stroke:#990000;" x="280.564" xlink:href="#m3eb1142d44" y="178.760437"/>
     <use style="fill:#990000;stroke:#990000;" x="301.5514" xlink:href="#m3eb1142d44" y="156.107446"/>
     <use style="fill:#990000;stroke:#990000;" x="322.5388" xlink:href="#m3eb1142d44" y="108.859027"/>
    </g>
   </g>
   <g id="line2d_15">
    <path clip-path="url(#p3f93ff6d85)" d="M 91.6774 42.539216 
L 112.6648 151.396419 
L 133.6522 179.257175 
L 154.6396 211.513981 
L 175.627 210.013044 
L 196.6144 222.67995 
L 217.6018 224.404615 
L 238.5892 231.903806 
L 259.5766 237.409075 
L 280.564 238.442931 
L 301.5514 237.752123 
L 322.5388 234.748679 
L 343.5262 242.063393 
L 364.5136 243.916799 
L 385.501 241.527232 
L 406.4884 241.185753 
L 427.4758 247.129056 
L 448.4632 251.32022 
L 469.4506 255.448582 
L 490.438 246.497124 
L 511.4254 242.057113 
L 532.4128 232.804997 
L 553.4002 205.514942 
L 574.3876 160.113945 
" style="fill:none;stroke:#990000;stroke-linecap:square;stroke-width:1.5;"/>
    <defs>
     <path d="M 0 -3 
L -3 3 
L 3 3 
z
" id="m54594a81a3" style="stroke:#990000;stroke-linejoin:miter;"/>
    </defs>
    <g clip-path="url(#p3f93ff6d85)">
     <use style="fill:#990000;stroke:#990000;stroke-linejoin:miter;" x="91.6774" xlink:href="#m54594a81a3" y="42.539216"/>
     <use style="fill:#990000;stroke:#990000;stroke-linejoin:miter;" x="112.6648" xlink:href="#m54594a81a3" y="151.396419"/>
     <use style="fill:#990000;stroke:#990000;stroke-linejoin:miter;" x="133.6522" xlink:href="#m54594a81a3" y="179.257175"/>
     <use style="fill:#990000;stroke:#990000;stroke-linejoin:miter;" x="154.6396" xlink:href="#m54594a81a3" y="211.513981"/>
     <use style="fill:#990000;stroke:#990000;stroke-linejoin:miter;" x="175.627" xlink:href="#m54594a81a3" y="210.013044"/>
     <use style="fill:#990000;stroke:#990000;stroke-linejoin:miter;" x="196.6144" xlink:href="#m54594a81a3" y="222.67995"/>
     <use style="fill:#990000;stroke:#990000;stroke-linejoin:miter;" x="217.6018" xlink:href="#m54594a81a3" y="224.404615"/>
     <use style="fill:#990000;stroke:#990000;stroke-linejoin:miter;" x="238.5892" xlink:href="#m54594a81a3" y="231.903806"/>
     <use style="fill:#990000;stroke:#990000;stroke-linejoin:miter;" x="259.5766" xlink:href="#m54594a81a3" y="237.409075"/>
     <use style="fill:#990000;stroke:#990000;stroke-linejoin:miter;" x="280.564" xlink:href="#m54594a81a3" y="238.442931"/>
     <use style="fill:#990000;stroke:#990000;stroke-linejoin:miter;" x="301.5514" xlink:href="#m54594a81a3" y="237.752123"/>
     <use style="fill:#990000;stroke:#990000;stroke-linejoin:miter;" x="322.5388" xlink:href="#m54594a81a3" y="234.748679"/>
     <use style="fill:#990000;stroke:#990000;stroke-linejoin:miter;" x="343.5262" xlink:href="#m54594a81a3" y="242.063393"/>
     <use style="fill:#990000;stroke:#990000;stroke-linejoin:miter;" x="364.5136" xlink:href="#m54594a81a3" y="243.916799"/>
     <use style="fill:#990000;stroke:#990000;stroke-linejoin:miter;" x="385.501" xlink:href="#m54594a81a3" y="241.527232"/>
     <use style="fill:#990000;stroke:#990000;stroke-linejoin:miter;" x="406.4884" xlink:href="#m54594a81a3" y="241.185753"/>
     <use style="fill:#990000;stroke:#990000;stroke-linejoin:miter;" x="427.4758" xlink:href="#m54594a81a3" y="247.129056"/>
     <use style="fill:#990000;stroke:#990000;stroke-linejoin:miter;" x="448.4632" xlink:href="#m54594a81a3" y="251.32022"/>
     <use style="fill:#990000;stroke:#990000;stroke-linejoin:miter;" x="469.4506" xlink:href="#m54594a81a3" y="255.448582"/>
     <use style="fill:#990000;stroke:#990000;stroke-linejoin:miter;" x="490.438" xlink:href="#m54594a81a3" y="246.497124"/>
     <use style="fill:#990000;stroke:#990000;stroke-linejoin:miter;" x="511.4254" xlink:href="#m54594a81a3" y="242.057113"/>
     <use style="fill:#990000;stroke:#990000;stroke-linejoin:miter;" x="532.4128" xlink:href="#m54594a81a3" y="232.804997"/>
     <use style="fill:#990000;stroke:#990000;stroke-linejoin:miter;" x="553.4002" xlink:href="#m54594a81a3" y="205.514942"/>
     <use style="fill:#990000;stroke:#990000;stroke-linejoin:miter;" x="574.3876" xlink:href="#m54594a81a3" y="160.113945"/>
    </g>
   </g>
   <g id="text_15">
    <!-- Beginning Start -->
    <g transform="translate(262.935156 33.44)scale(0.18 -0.18)">
     <defs>
      <path d="M 19.671875 34.8125 
L 19.671875 8.109375 
L 35.5 8.109375 
Q 43.453125 8.109375 47.28125 11.40625 
Q 51.125 14.703125 51.125 21.484375 
Q 51.125 28.328125 47.28125 31.5625 
Q 43.453125 34.8125 35.5 34.8125 
z
M 19.671875 64.796875 
L 19.671875 42.828125 
L 34.28125 42.828125 
Q 41.5 42.828125 45.03125 45.53125 
Q 48.578125 48.25 48.578125 53.8125 
Q 48.578125 59.328125 45.03125 62.0625 
Q 41.5 64.796875 34.28125 64.796875 
z
M 9.8125 72.90625 
L 35.015625 72.90625 
Q 46.296875 72.90625 52.390625 68.21875 
Q 58.5 63.53125 58.5 54.890625 
Q 58.5 48.1875 55.375 44.234375 
Q 52.25 40.28125 46.1875 39.3125 
Q 53.46875 37.75 57.5 32.78125 
Q 61.53125 27.828125 61.53125 20.40625 
Q 61.53125 10.640625 54.890625 5.3125 
Q 48.25 0 35.984375 0 
L 9.8125 0 
z
" id="DejaVuSans-66"/>
      <path d="M 45.40625 27.984375 
Q 45.40625 37.75 41.375 43.109375 
Q 37.359375 48.484375 30.078125 48.484375 
Q 22.859375 48.484375 18.828125 43.109375 
Q 14.796875 37.75 14.796875 27.984375 
Q 14.796875 18.265625 18.828125 12.890625 
Q 22.859375 7.515625 30.078125 7.515625 
Q 37.359375 7.515625 41.375 12.890625 
Q 45.40625 18.265625 45.40625 27.984375 
z
M 54.390625 6.78125 
Q 54.390625 -7.171875 48.1875 -13.984375 
Q 42 -20.796875 29.203125 -20.796875 
Q 24.46875 -20.796875 20.265625 -20.09375 
Q 16.0625 -19.390625 12.109375 -17.921875 
L 12.109375 -9.1875 
Q 16.0625 -11.328125 19.921875 -12.34375 
Q 23.78125 -13.375 27.78125 -13.375 
Q 36.625 -13.375 41.015625 -8.765625 
Q 45.40625 -4.15625 45.40625 5.171875 
L 45.40625 9.625 
Q 42.625 4.78125 38.28125 2.390625 
Q 33.9375 0 27.875 0 
Q 17.828125 0 11.671875 7.65625 
Q 5.515625 15.328125 5.515625 27.984375 
Q 5.515625 40.671875 11.671875 48.328125 
Q 17.828125 56 27.875 56 
Q 33.9375 56 38.28125 53.609375 
Q 42.625 51.21875 45.40625 46.390625 
L 45.40625 54.6875 
L 54.390625 54.6875 
z
" id="DejaVuSans-103"/>
      <path d="M 54.890625 33.015625 
L 54.890625 0 
L 45.90625 0 
L 45.90625 32.71875 
Q 45.90625 40.484375 42.875 44.328125 
Q 39.84375 48.1875 33.796875 48.1875 
Q 26.515625 48.1875 22.3125 43.546875 
Q 18.109375 38.921875 18.109375 30.90625 
L 18.109375 0 
L 9.078125 0 
L 9.078125 54.6875 
L 18.109375 54.6875 
L 18.109375 46.1875 
Q 21.34375 51.125 25.703125 53.5625 
Q 30.078125 56 35.796875 56 
Q 45.21875 56 50.046875 50.171875 
Q 54.890625 44.34375 54.890625 33.015625 
z
" id="DejaVuSans-110"/>
      <path d="M 53.515625 70.515625 
L 53.515625 60.890625 
Q 47.90625 63.578125 42.921875 64.890625 
Q 37.9375 66.21875 33.296875 66.21875 
Q 25.25 66.21875 20.875 63.09375 
Q 16.5 59.96875 16.5 54.203125 
Q 16.5 49.359375 19.40625 46.890625 
Q 22.3125 44.4375 30.421875 42.921875 
L 36.375 41.703125 
Q 47.40625 39.59375 52.65625 34.296875 
Q 57.90625 29 57.90625 20.125 
Q 57.90625 9.515625 50.796875 4.046875 
Q 43.703125 -1.421875 29.984375 -1.421875 
Q 24.8125 -1.421875 18.96875 -0.25 
Q 13.140625 0.921875 6.890625 3.21875 
L 6.890625 13.375 
Q 12.890625 10.015625 18.65625 8.296875 
Q 24.421875 6.59375 29.984375 6.59375 
Q 38.421875 6.59375 43.015625 9.90625 
Q 47.609375 13.234375 47.609375 19.390625 
Q 47.609375 24.75 44.3125 27.78125 
Q 41.015625 30.8125 33.5 32.328125 
L 27.484375 33.5 
Q 16.453125 35.6875 11.515625 40.375 
Q 6.59375 45.0625 6.59375 53.421875 
Q 6.59375 63.09375 13.40625 68.65625 
Q 20.21875 74.21875 32.171875 74.21875 
Q 37.3125 74.21875 42.625 73.28125 
Q 47.953125 72.359375 53.515625 70.515625 
z
" id="DejaVuSans-83"/>
     </defs>
     <use xlink:href="#DejaVuSans-66"/>
     <use x="68.603516" xlink:href="#DejaVuSans-101"/>
     <use x="130.126953" xlink:href="#DejaVuSans-103"/>
     <use x="193.603516" xlink:href="#DejaVuSans-105"/>
     <use x="221.386719" xlink:href="#DejaVuSans-110"/>
     <use x="284.765625" xlink:href="#DejaVuSans-110"/>
     <use x="348.144531" xlink:href="#DejaVuSans-105"/>
     <use x="375.927734" xlink:href="#DejaVuSans-110"/>
     <use x="439.306641" xlink:href="#DejaVuSans-103"/>
     <use x="502.783203" xlink:href="#DejaVuSans-32"/>
     <use x="534.570312" xlink:href="#DejaVuSans-83"/>
     <use x="598.046875" xlink:href="#DejaVuSans-116"/>
     <use x="637.255859" xlink:href="#DejaVuSans-97"/>
     <use x="698.535156" xlink:href="#DejaVuSans-114"/>
     <use x="739.648438" xlink:href="#DejaVuSans-116"/>
    </g>
   </g>
   <g id="line2d_16">
    <path clip-path="url(#p3f93ff6d85)" d="M 91.6774 42.539216 
L 112.6648 135.479933 
L 133.6522 159.320436 
L 154.6396 193.437531 
L 175.627 207.23781 
L 196.6144 210.070266 
L 217.6018 214.003626 
L 238.5892 218.11476 
L 259.5766 213.394331 
L 280.564 203.588987 
L 301.5514 191.448753 
L 322.5388 178.627221 
" style="fill:none;stroke:#011f5b;stroke-linecap:square;stroke-width:1.5;"/>
    <defs>
     <path d="M 0 3 
C 0.795609 3 1.55874 2.683901 2.12132 2.12132 
C 2.683901 1.55874 3 0.795609 3 0 
C 3 -0.795609 2.683901 -1.55874 2.12132 -2.12132 
C 1.55874 -2.683901 0.795609 -3 0 -3 
C -0.795609 -3 -1.55874 -2.683901 -2.12132 -2.12132 
C -2.683901 -1.55874 -3 -0.795609 -3 0 
C -3 0.795609 -2.683901 1.55874 -2.12132 2.12132 
C -1.55874 2.683901 -0.795609 3 0 3 
z
" id="m530327a7b1" style="stroke:#011f5b;"/>
    </defs>
    <g clip-path="url(#p3f93ff6d85)">
     <use style="fill:#011f5b;stroke:#011f5b;" x="91.6774" xlink:href="#m530327a7b1" y="42.539216"/>
     <use style="fill:#011f5b;stroke:#011f5b;" x="112.6648" xlink:href="#m530327a7b1" y="135.479933"/>
     <use style="fill:#011f5b;stroke:#011f5b;" x="133.6522" xlink:href="#m530327a7b1" y="159.320436"/>
     <use style="fill:#011f5b;stroke:#011f5b;" x="154.6396" xlink:href="#m530327a7b1" y="193.437531"/>
     <use style="fill:#011f5b;stroke:#011f5b;" x="175.627" xlink:href="#m530327a7b1" y="207.23781"/>
     <use style="fill:#011f5b;stroke:#011f5b;" x="196.6144" xlink:href="#m530327a7b1" y="210.070266"/>
     <use style="fill:#011f5b;stroke:#011f5b;" x="217.6018" xlink:href="#m530327a7b1" y="214.003626"/>
     <use style="fill:#011f5b;stroke:#011f5b;" x="238.5892" xlink:href="#m530327a7b1" y="218.11476"/>
     <use style="fill:#011f5b;stroke:#011f5b;" x="259.5766" xlink:href="#m530327a7b1" y="213.394331"/>
     <use style="fill:#011f5b;stroke:#011f5b;" x="280.564" xlink:href="#m530327a7b1" y="203.588987"/>
     <use style="fill:#011f5b;stroke:#011f5b;" x="301.5514" xlink:href="#m530327a7b1" y="191.448753"/>
     <use style="fill:#011f5b;stroke:#011f5b;" x="322.5388" xlink:href="#m530327a7b1" y="178.627221"/>
    </g>
   </g>
   <g id="line2d_17">
    <path clip-path="url(#p3f93ff6d85)" d="M 91.6774 42.539216 
L 112.6648 141.496977 
L 133.6522 185.673628 
L 154.6396 207.484246 
L 175.627 222.159765 
L 196.6144 229.537527 
L 217.6018 235.852067 
L 238.5892 237.167871 
L 259.5766 246.433384 
L 280.564 242.16859 
L 301.5514 247.226172 
L 322.5388 251.934637 
L 343.5262 246.075009 
L 364.5136 247.24138 
L 385.501 247.860932 
L 406.4884 254.014137 
L 427.4758 255.074054 
L 448.4632 249.58338 
L 469.4506 250.149375 
L 490.438 249.734797 
L 511.4254 244.809456 
L 532.4128 244.989305 
L 553.4002 243.325705 
L 574.3876 237.714029 
" style="fill:none;stroke:#011f5b;stroke-linecap:square;stroke-width:1.5;"/>
    <defs>
     <path d="M 0 -3 
L -3 3 
L 3 3 
z
" id="md1ab6206de" style="stroke:#011f5b;stroke-linejoin:miter;"/>
    </defs>
    <g clip-path="url(#p3f93ff6d85)">
     <use style="fill:#011f5b;stroke:#011f5b;stroke-linejoin:miter;" x="91.6774" xlink:href="#md1ab6206de" y="42.539216"/>
     <use style="fill:#011f5b;stroke:#011f5b;stroke-linejoin:miter;" x="112.6648" xlink:href="#md1ab6206de" y="141.496977"/>
     <use style="fill:#011f5b;stroke:#011f5b;stroke-linejoin:miter;" x="133.6522" xlink:href="#md1ab6206de" y="185.673628"/>
     <use style="fill:#011f5b;stroke:#011f5b;stroke-linejoin:miter;" x="154.6396" xlink:href="#md1ab6206de" y="207.484246"/>
     <use style="fill:#011f5b;stroke:#011f5b;stroke-linejoin:miter;" x="175.627" xlink:href="#md1ab6206de" y="222.159765"/>
     <use style="fill:#011f5b;stroke:#011f5b;stroke-linejoin:miter;" x="196.6144" xlink:href="#md1ab6206de" y="229.537527"/>
     <use style="fill:#011f5b;stroke:#011f5b;stroke-linejoin:miter;" x="217.6018" xlink:href="#md1ab6206de" y="235.852067"/>
     <use style="fill:#011f5b;stroke:#011f5b;stroke-linejoin:miter;" x="238.5892" xlink:href="#md1ab6206de" y="237.167871"/>
     <use style="fill:#011f5b;stroke:#011f5b;stroke-linejoin:miter;" x="259.5766" xlink:href="#md1ab6206de" y="246.433384"/>
     <use style="fill:#011f5b;stroke:#011f5b;stroke-linejoin:miter;" x="280.564" xlink:href="#md1ab6206de" y="242.16859"/>
     <use style="fill:#011f5b;stroke:#011f5b;stroke-linejoin:miter;" x="301.5514" xlink:href="#md1ab6206de" y="247.226172"/>
     <use style="fill:#011f5b;stroke:#011f5b;stroke-linejoin:miter;" x="322.5388" xlink:href="#md1ab6206de" y="251.934637"/>
     <use style="fill:#011f5b;stroke:#011f5b;stroke-linejoin:miter;" x="343.5262" xlink:href="#md1ab6206de" y="246.075009"/>
     <use style="fill:#011f5b;stroke:#011f5b;stroke-linejoin:miter;" x="364.5136" xlink:href="#md1ab6206de" y="247.24138"/>
     <use style="fill:#011f5b;stroke:#011f5b;stroke-linejoin:miter;" x="385.501" xlink:href="#md1ab6206de" y="247.860932"/>
     <use style="fill:#011f5b;stroke:#011f5b;stroke-linejoin:miter;" x="406.4884" xlink:href="#md1ab6206de" y="254.014137"/>
     <use style="fill:#011f5b;stroke:#011f5b;stroke-linejoin:miter;" x="427.4758" xlink:href="#md1ab6206de" y="255.074054"/>
     <use style="fill:#011f5b;stroke:#011f5b;stroke-linejoin:miter;" x="448.4632" xlink:href="#md1ab6206de" y="249.58338"/>
     <use style="fill:#011f5b;stroke:#011f5b;stroke-linejoin:miter;" x="469.4506" xlink:href="#md1ab6206de" y="250.149375"/>
     <use style="fill:#011f5b;stroke:#011f5b;stroke-linejoin:miter;" x="490.438" xlink:href="#md1ab6206de" y="249.734797"/>
     <use style="fill:#011f5b;stroke:#011f5b;stroke-linejoin:miter;" x="511.4254" xlink:href="#md1ab6206de" y="244.809456"/>
     <use style="fill:#011f5b;stroke:#011f5b;stroke-linejoin:miter;" x="532.4128" xlink:href="#md1ab6206de" y="244.989305"/>
     <use style="fill:#011f5b;stroke:#011f5b;stroke-linejoin:miter;" x="553.4002" xlink:href="#md1ab6206de" y="243.325705"/>
     <use style="fill:#011f5b;stroke:#011f5b;stroke-linejoin:miter;" x="574.3876" xlink:href="#md1ab6206de" y="237.714029"/>
    </g>
   </g>
   <g id="legend_1">
    <g id="patch_5">
     <path d="M 497.726875 84.2675 
L 586.975 84.2675 
Q 589.375 84.2675 589.375 81.8675 
L 589.375 47.84 
Q 589.375 45.44 586.975 45.44 
L 497.726875 45.44 
Q 495.326875 45.44 495.326875 47.84 
L 495.326875 81.8675 
Q 495.326875 84.2675 497.726875 84.2675 
z
" style="fill:#ffffff;opacity:0.8;stroke:#cccccc;stroke-linejoin:miter;"/>
    </g>
    <g id="line2d_18">
     <path d="M 500.126875 55.158125 
L 524.126875 55.158125 
" style="fill:none;stroke:#011f5b;stroke-linecap:square;stroke-width:1.5;"/>
    </g>
    <g id="line2d_19">
     <g>
      <use style="fill:#011f5b;stroke:#011f5b;" x="512.126875" xlink:href="#m530327a7b1" y="55.158125"/>
     </g>
    </g>
    <g id="text_16">
     <!-- Visual -->
     <g transform="translate(533.726875 59.358125)scale(0.12 -0.12)">
      <defs>
       <path d="M 28.609375 0 
L 0.78125 72.90625 
L 11.078125 72.90625 
L 34.1875 11.53125 
L 57.328125 72.90625 
L 67.578125 72.90625 
L 39.796875 0 
z
" id="DejaVuSans-86"/>
       <path d="M 44.28125 53.078125 
L 44.28125 44.578125 
Q 40.484375 46.53125 36.375 47.5 
Q 32.28125 48.484375 27.875 48.484375 
Q 21.1875 48.484375 17.84375 46.4375 
Q 14.5 44.390625 14.5 40.28125 
Q 14.5 37.15625 16.890625 35.375 
Q 19.28125 33.59375 26.515625 31.984375 
L 29.59375 31.296875 
Q 39.15625 29.25 43.1875 25.515625 
Q 47.21875 21.78125 47.21875 15.09375 
Q 47.21875 7.46875 41.1875 3.015625 
Q 35.15625 -1.421875 24.609375 -1.421875 
Q 20.21875 -1.421875 15.453125 -0.5625 
Q 10.6875 0.296875 5.421875 2 
L 5.421875 11.28125 
Q 10.40625 8.6875 15.234375 7.390625 
Q 20.0625 6.109375 24.8125 6.109375 
Q 31.15625 6.109375 34.5625 8.28125 
Q 37.984375 10.453125 37.984375 14.40625 
Q 37.984375 18.0625 35.515625 20.015625 
Q 33.0625 21.96875 24.703125 23.78125 
L 21.578125 24.515625 
Q 13.234375 26.265625 9.515625 29.90625 
Q 5.8125 33.546875 5.8125 39.890625 
Q 5.8125 47.609375 11.28125 51.796875 
Q 16.75 56 26.8125 56 
Q 31.78125 56 36.171875 55.265625 
Q 40.578125 54.546875 44.28125 53.078125 
z
" id="DejaVuSans-115"/>
       <path d="M 8.5 21.578125 
L 8.5 54.6875 
L 17.484375 54.6875 
L 17.484375 21.921875 
Q 17.484375 14.15625 20.5 10.265625 
Q 23.53125 6.390625 29.59375 6.390625 
Q 36.859375 6.390625 41.078125 11.03125 
Q 45.3125 15.671875 45.3125 23.6875 
L 45.3125 54.6875 
L 54.296875 54.6875 
L 54.296875 0 
L 45.3125 0 
L 45.3125 8.40625 
Q 42.046875 3.421875 37.71875 1 
Q 33.40625 -1.421875 27.6875 -1.421875 
Q 18.265625 -1.421875 13.375 4.4375 
Q 8.5 10.296875 8.5 21.578125 
z
M 31.109375 56 
z
" id="DejaVuSans-117"/>
      </defs>
      <use xlink:href="#DejaVuSans-86"/>
      <use x="66.158203" xlink:href="#DejaVuSans-105"/>
      <use x="93.941406" xlink:href="#DejaVuSans-115"/>
      <use x="146.041016" xlink:href="#DejaVuSans-117"/>
      <use x="209.419922" xlink:href="#DejaVuSans-97"/>
      <use x="270.699219" xlink:href="#DejaVuSans-108"/>
     </g>
    </g>
    <g id="line2d_20">
     <path d="M 500.126875 72.771875 
L 524.126875 72.771875 
" style="fill:none;stroke:#990000;stroke-linecap:square;stroke-width:1.5;"/>
    </g>
    <g id="line2d_21">
     <g>
      <use style="fill:#990000;stroke:#990000;" x="512.126875" xlink:href="#m3eb1142d44" y="72.771875"/>
     </g>
    </g>
    <g id="text_17">
     <!-- Auditory -->
     <g transform="translate(533.726875 76.971875)scale(0.12 -0.12)">
      <defs>
       <path d="M 34.1875 63.1875 
L 20.796875 26.90625 
L 47.609375 26.90625 
z
M 28.609375 72.90625 
L 39.796875 72.90625 
L 67.578125 0 
L 57.328125 0 
L 50.6875 18.703125 
L 17.828125 18.703125 
L 11.1875 0 
L 0.78125 0 
z
" id="DejaVuSans-65"/>
       <path d="M 45.40625 46.390625 
L 45.40625 75.984375 
L 54.390625 75.984375 
L 54.390625 0 
L 45.40625 0 
L 45.40625 8.203125 
Q 42.578125 3.328125 38.25 0.953125 
Q 33.9375 -1.421875 27.875 -1.421875 
Q 17.96875 -1.421875 11.734375 6.484375 
Q 5.515625 14.40625 5.515625 27.296875 
Q 5.515625 40.1875 11.734375 48.09375 
Q 17.96875 56 27.875 56 
Q 33.9375 56 38.25 53.625 
Q 42.578125 51.265625 45.40625 46.390625 
z
M 14.796875 27.296875 
Q 14.796875 17.390625 18.875 11.75 
Q 22.953125 6.109375 30.078125 6.109375 
Q 37.203125 6.109375 41.296875 11.75 
Q 45.40625 17.390625 45.40625 27.296875 
Q 45.40625 37.203125 41.296875 42.84375 
Q 37.203125 48.484375 30.078125 48.484375 
Q 22.953125 48.484375 18.875 42.84375 
Q 14.796875 37.203125 14.796875 27.296875 
z
" id="DejaVuSans-100"/>
      </defs>
      <use xlink:href="#DejaVuSans-65"/>
      <use x="68.408203" xlink:href="#DejaVuSans-117"/>
      <use x="131.787109" xlink:href="#DejaVuSans-100"/>
      <use x="195.263672" xlink:href="#DejaVuSans-105"/>
      <use x="223.046875" xlink:href="#DejaVuSans-116"/>
      <use x="262.255859" xlink:href="#DejaVuSans-111"/>
      <use x="323.4375" xlink:href="#DejaVuSans-114"/>
      <use x="364.550781" xlink:href="#DejaVuSans-121"/>
     </g>
    </g>
   </g>
  </g>
  <g id="axes_2">
   <g id="patch_6">
    <path d="M 607.875 355.56 
L 1132.56 355.56 
L 1132.56 39.44 
L 607.875 39.44 
z
" style="fill:#ffffff;"/>
   </g>
   <g id="PolyCollection_5">
    <defs>
     <path d="M 628.8624 -229.611957 
L 628.8624 -234.916843 
L 649.8498 -205.898634 
L 670.8372 -189.520293 
L 691.8246 -176.890325 
L 712.812 -176.749796 
L 733.7994 -173.712282 
L 754.7868 -175.571614 
L 775.7742 -182.033369 
L 796.7616 -204.815957 
L 817.749 -232.388042 
L 838.7364 -276.204584 
L 859.7238 -329.050072 
L 859.7238 -326.060097 
L 859.7238 -326.060097 
L 838.7364 -271.65726 
L 817.749 -227.395714 
L 796.7616 -199.647489 
L 775.7742 -176.781479 
L 754.7868 -170.296339 
L 733.7994 -168.481512 
L 712.812 -171.555687 
L 691.8246 -171.706451 
L 670.8372 -184.192665 
L 649.8498 -200.590958 
L 628.8624 -229.611957 
z
" id="mb334cc6e51" style="stroke:#011f5b;stroke-opacity:0.3;"/>
    </defs>
    <g clip-path="url(#pa6c916d38a)">
     <use style="fill:#011f5b;fill-opacity:0.3;stroke:#011f5b;stroke-opacity:0.3;" x="0" xlink:href="#mb334cc6e51" y="396"/>
    </g>
   </g>
   <g id="PolyCollection_6">
    <defs>
     <path d="M 628.8624 -208.633066 
L 628.8624 -214.00656 
L 649.8498 -195.169702 
L 670.8372 -181.194448 
L 691.8246 -174.206893 
L 712.812 -172.120275 
L 733.7994 -173.030264 
L 754.7868 -180.04539 
L 775.7742 -186.998746 
L 796.7616 -219.044729 
L 817.749 -249.814606 
L 838.7364 -299.46152 
L 859.7238 -340.154004 
L 859.7238 -337.949934 
L 859.7238 -337.949934 
L 838.7364 -295.572835 
L 817.749 -245.013637 
L 796.7616 -214.04468 
L 775.7742 -181.846076 
L 754.7868 -174.991821 
L 733.7994 -167.972967 
L 712.812 -167.034264 
L 691.8246 -168.989974 
L 670.8372 -175.846778 
L 649.8498 -189.854229 
L 628.8624 -208.633066 
z
" id="m46782fb1d8" style="stroke:#990000;stroke-opacity:0.3;"/>
    </defs>
    <g clip-path="url(#pa6c916d38a)">
     <use style="fill:#990000;fill-opacity:0.3;stroke:#990000;stroke-opacity:0.3;" x="0" xlink:href="#m46782fb1d8" y="396"/>
    </g>
   </g>
   <g id="PolyCollection_7">
    <defs>
     <path d="M 628.8624 -197.534775 
L 628.8624 -202.977491 
L 649.8498 -175.465304 
L 670.8372 -162.557457 
L 691.8246 -150.872 
L 712.812 -146.238448 
L 733.7994 -143.286796 
L 754.7868 -140.389795 
L 775.7742 -141.503028 
L 796.7616 -140.448468 
L 817.749 -140.626539 
L 838.7364 -140.672368 
L 859.7238 -134.928784 
L 880.7112 -137.318504 
L 901.6986 -136.736612 
L 922.686 -136.252859 
L 943.6734 -137.388911 
L 964.6608 -140.020164 
L 985.6482 -140.470642 
L 1006.6356 -144.240502 
L 1027.623 -143.91696 
L 1048.6104 -174.175902 
L 1069.5978 -210.415489 
L 1090.5852 -265.598206 
L 1111.5726 -321.440044 
L 1111.5726 -317.905295 
L 1111.5726 -317.905295 
L 1090.5852 -260.724479 
L 1069.5978 -205.250716 
L 1048.6104 -169.205064 
L 1027.623 -139.202307 
L 1006.6356 -139.484584 
L 985.6482 -135.767107 
L 964.6608 -135.24877 
L 943.6734 -132.690331 
L 922.686 -131.491494 
L 901.6986 -132.035151 
L 880.7112 -132.55764 
L 859.7238 -130.35604 
L 838.7364 -135.785363 
L 817.749 -135.861979 
L 796.7616 -135.694435 
L 775.7742 -136.69718 
L 754.7868 -135.636414 
L 733.7994 -138.46888 
L 712.812 -141.544639 
L 691.8246 -145.82955 
L 670.8372 -157.455745 
L 649.8498 -170.242607 
L 628.8624 -197.534775 
z
" id="m01b0adb47f" style="stroke:#011f5b;stroke-opacity:0.3;"/>
    </defs>
    <g clip-path="url(#pa6c916d38a)">
     <use style="fill:#011f5b;fill-opacity:0.3;stroke:#011f5b;stroke-opacity:0.3;" x="0" xlink:href="#m01b0adb47f" y="396"/>
    </g>
   </g>
   <g id="PolyCollection_8">
    <defs>
     <path d="M 628.8624 -173.053564 
L 628.8624 -178.371123 
L 649.8498 -165.804981 
L 670.8372 -153.653782 
L 691.8246 -145.069903 
L 712.812 -143.014904 
L 733.7994 -142.099967 
L 754.7868 -138.669862 
L 775.7742 -142.987609 
L 796.7616 -140.415408 
L 817.749 -136.070527 
L 838.7364 -134.212828 
L 859.7238 -131.191537 
L 880.7112 -132.439827 
L 901.6986 -136.310153 
L 922.686 -138.396176 
L 943.6734 -137.576039 
L 964.6608 -136.932871 
L 985.6482 -142.693325 
L 1006.6356 -147.507171 
L 1027.623 -155.2896 
L 1048.6104 -185.707208 
L 1069.5978 -228.300283 
L 1090.5852 -288.572846 
L 1111.5726 -334.354048 
L 1111.5726 -331.740189 
L 1111.5726 -331.740189 
L 1090.5852 -284.254378 
L 1069.5978 -223.435715 
L 1048.6104 -180.823218 
L 1027.623 -150.526344 
L 1006.6356 -142.817611 
L 985.6482 -138.065685 
L 964.6608 -132.447796 
L 943.6734 -133.0135 
L 922.686 -133.739972 
L 901.6986 -131.673846 
L 880.7112 -127.87897 
L 859.7238 -126.700175 
L 838.7364 -129.790595 
L 817.749 -131.322064 
L 796.7616 -135.604469 
L 775.7742 -138.27432 
L 754.7868 -133.987886 
L 733.7994 -137.322351 
L 712.812 -138.292253 
L 691.8246 -140.23307 
L 670.8372 -148.76267 
L 649.8498 -160.77269 
L 628.8624 -173.053564 
z
" id="m00f150f8b2" style="stroke:#990000;stroke-opacity:0.3;"/>
    </defs>
    <g clip-path="url(#pa6c916d38a)">
     <use style="fill:#990000;fill-opacity:0.3;stroke:#990000;stroke-opacity:0.3;" x="0" xlink:href="#m00f150f8b2" y="396"/>
    </g>
   </g>
   <g id="matplotlib.axis_3">
    <g id="xtick_8">
     <g id="line2d_22">
      <g>
       <use style="stroke:#000000;stroke-width:0.8;" x="628.8624" xlink:href="#md000df604d" y="355.56"/>
      </g>
     </g>
     <g id="text_18">
      <!-- 1 -->
      <g transform="translate(624.40865 373.197813)scale(0.14 -0.14)">
       <use xlink:href="#DejaVuSans-49"/>
      </g>
     </g>
    </g>
    <g id="xtick_9">
     <g id="line2d_23">
      <g>
       <use style="stroke:#000000;stroke-width:0.8;" x="691.8246" xlink:href="#md000df604d" y="355.56"/>
      </g>
     </g>
     <g id="text_19">
      <!-- 4 -->
      <g transform="translate(687.37085 373.197813)scale(0.14 -0.14)">
       <use xlink:href="#DejaVuSans-52"/>
      </g>
     </g>
    </g>
    <g id="xtick_10">
     <g id="line2d_24">
      <g>
       <use style="stroke:#000000;stroke-width:0.8;" x="775.7742" xlink:href="#md000df604d" y="355.56"/>
      </g>
     </g>
     <g id="text_20">
      <!-- 8 -->
      <g transform="translate(771.32045 373.197813)scale(0.14 -0.14)">
       <use xlink:href="#DejaVuSans-56"/>
      </g>
     </g>
    </g>
    <g id="xtick_11">
     <g id="line2d_25">
      <g>
       <use style="stroke:#000000;stroke-width:0.8;" x="859.7238" xlink:href="#md000df604d" y="355.56"/>
      </g>
     </g>
     <g id="text_21">
      <!-- 12 -->
      <g transform="translate(850.8163 373.197813)scale(0.14 -0.14)">
       <use xlink:href="#DejaVuSans-49"/>
       <use x="63.623047" xlink:href="#DejaVuSans-50"/>
      </g>
     </g>
    </g>
    <g id="xtick_12">
     <g id="line2d_26">
      <g>
       <use style="stroke:#000000;stroke-width:0.8;" x="943.6734" xlink:href="#md000df604d" y="355.56"/>
      </g>
     </g>
     <g id="text_22">
      <!-- 16 -->
      <g transform="translate(934.7659 373.197813)scale(0.14 -0.14)">
       <use xlink:href="#DejaVuSans-49"/>
       <use x="63.623047" xlink:href="#DejaVuSans-54"/>
      </g>
     </g>
    </g>
    <g id="xtick_13">
     <g id="line2d_27">
      <g>
       <use style="stroke:#000000;stroke-width:0.8;" x="1027.623" xlink:href="#md000df604d" y="355.56"/>
      </g>
     </g>
     <g id="text_23">
      <!-- 20 -->
      <g transform="translate(1018.7155 373.197813)scale(0.14 -0.14)">
       <use xlink:href="#DejaVuSans-50"/>
       <use x="63.623047" xlink:href="#DejaVuSans-48"/>
      </g>
     </g>
    </g>
    <g id="xtick_14">
     <g id="line2d_28">
      <g>
       <use style="stroke:#000000;stroke-width:0.8;" x="1111.5726" xlink:href="#md000df604d" y="355.56"/>
      </g>
     </g>
     <g id="text_24">
      <!-- 24 -->
      <g transform="translate(1102.6651 373.197813)scale(0.14 -0.14)">
       <use xlink:href="#DejaVuSans-50"/>
       <use x="63.623047" xlink:href="#DejaVuSans-52"/>
      </g>
     </g>
    </g>
   </g>
   <g id="matplotlib.axis_4">
    <g id="ytick_7">
     <g id="line2d_29">
      <g>
       <use style="stroke:#000000;stroke-width:0.8;" x="607.875" xlink:href="#mdaa82bbc00" y="352.460784"/>
      </g>
     </g>
    </g>
    <g id="ytick_8">
     <g id="line2d_30">
      <g>
       <use style="stroke:#000000;stroke-width:0.8;" x="607.875" xlink:href="#mdaa82bbc00" y="290.476471"/>
      </g>
     </g>
    </g>
    <g id="ytick_9">
     <g id="line2d_31">
      <g>
       <use style="stroke:#000000;stroke-width:0.8;" x="607.875" xlink:href="#mdaa82bbc00" y="228.492157"/>
      </g>
     </g>
    </g>
    <g id="ytick_10">
     <g id="line2d_32">
      <g>
       <use style="stroke:#000000;stroke-width:0.8;" x="607.875" xlink:href="#mdaa82bbc00" y="166.507843"/>
      </g>
     </g>
    </g>
    <g id="ytick_11">
     <g id="line2d_33">
      <g>
       <use style="stroke:#000000;stroke-width:0.8;" x="607.875" xlink:href="#mdaa82bbc00" y="104.523529"/>
      </g>
     </g>
    </g>
    <g id="ytick_12">
     <g id="line2d_34">
      <g>
       <use style="stroke:#000000;stroke-width:0.8;" x="607.875" xlink:href="#mdaa82bbc00" y="42.539216"/>
      </g>
     </g>
    </g>
   </g>
   <g id="patch_7">
    <path d="M 607.875 355.56 
L 607.875 39.44 
" style="fill:none;stroke:#000000;stroke-linecap:square;stroke-linejoin:miter;stroke-width:0.8;"/>
   </g>
   <g id="patch_8">
    <path d="M 607.875 355.56 
L 1132.56 355.56 
" style="fill:none;stroke:#000000;stroke-linecap:square;stroke-linejoin:miter;stroke-width:0.8;"/>
   </g>
   <g id="line2d_35">
    <path clip-path="url(#pa6c916d38a)" d="M 628.8624 184.680187 
L 649.8498 203.488034 
L 670.8372 217.479387 
L 691.8246 224.401567 
L 712.812 226.42273 
L 733.7994 225.498385 
L 754.7868 218.481394 
L 775.7742 211.577589 
L 796.7616 179.455295 
L 817.749 148.585878 
L 838.7364 98.482822 
L 859.7238 56.948031 
" style="fill:none;stroke:#990000;stroke-linecap:square;stroke-width:1.5;"/>
    <g clip-path="url(#pa6c916d38a)">
     <use style="fill:#990000;stroke:#990000;" x="628.8624" xlink:href="#m3eb1142d44" y="184.680187"/>
     <use style="fill:#990000;stroke:#990000;" x="649.8498" xlink:href="#m3eb1142d44" y="203.488034"/>
     <use style="fill:#990000;stroke:#990000;" x="670.8372" xlink:href="#m3eb1142d44" y="217.479387"/>
     <use style="fill:#990000;stroke:#990000;" x="691.8246" xlink:href="#m3eb1142d44" y="224.401567"/>
     <use style="fill:#990000;stroke:#990000;" x="712.812" xlink:href="#m3eb1142d44" y="226.42273"/>
     <use style="fill:#990000;stroke:#990000;" x="733.7994" xlink:href="#m3eb1142d44" y="225.498385"/>
     <use style="fill:#990000;stroke:#990000;" x="754.7868" xlink:href="#m3eb1142d44" y="218.481394"/>
     <use style="fill:#990000;stroke:#990000;" x="775.7742" xlink:href="#m3eb1142d44" y="211.577589"/>
     <use style="fill:#990000;stroke:#990000;" x="796.7616" xlink:href="#m3eb1142d44" y="179.455295"/>
     <use style="fill:#990000;stroke:#990000;" x="817.749" xlink:href="#m3eb1142d44" y="148.585878"/>
     <use style="fill:#990000;stroke:#990000;" x="838.7364" xlink:href="#m3eb1142d44" y="98.482822"/>
     <use style="fill:#990000;stroke:#990000;" x="859.7238" xlink:href="#m3eb1142d44" y="56.948031"/>
    </g>
   </g>
   <g id="line2d_36">
    <path clip-path="url(#pa6c916d38a)" d="M 628.8624 220.287657 
L 649.8498 232.711165 
L 670.8372 244.791774 
L 691.8246 253.348514 
L 712.812 255.346422 
L 733.7994 256.288841 
L 754.7868 259.671126 
L 775.7742 255.369036 
L 796.7616 257.990061 
L 817.749 262.303704 
L 838.7364 263.998288 
L 859.7238 267.054144 
L 880.7112 265.840601 
L 901.6986 262.008 
L 922.686 259.931926 
L 943.6734 260.70523 
L 964.6608 261.309666 
L 985.6482 255.620495 
L 1006.6356 250.837609 
L 1027.623 243.092028 
L 1048.6104 212.734787 
L 1069.5978 170.132001 
L 1090.5852 109.586388 
L 1111.5726 62.952882 
" style="fill:none;stroke:#990000;stroke-linecap:square;stroke-width:1.5;"/>
    <g clip-path="url(#pa6c916d38a)">
     <use style="fill:#990000;stroke:#990000;stroke-linejoin:miter;" x="628.8624" xlink:href="#m54594a81a3" y="220.287657"/>
     <use style="fill:#990000;stroke:#990000;stroke-linejoin:miter;" x="649.8498" xlink:href="#m54594a81a3" y="232.711165"/>
     <use style="fill:#990000;stroke:#990000;stroke-linejoin:miter;" x="670.8372" xlink:href="#m54594a81a3" y="244.791774"/>
     <use style="fill:#990000;stroke:#990000;stroke-linejoin:miter;" x="691.8246" xlink:href="#m54594a81a3" y="253.348514"/>
     <use style="fill:#990000;stroke:#990000;stroke-linejoin:miter;" x="712.812" xlink:href="#m54594a81a3" y="255.346422"/>
     <use style="fill:#990000;stroke:#990000;stroke-linejoin:miter;" x="733.7994" xlink:href="#m54594a81a3" y="256.288841"/>
     <use style="fill:#990000;stroke:#990000;stroke-linejoin:miter;" x="754.7868" xlink:href="#m54594a81a3" y="259.671126"/>
     <use style="fill:#990000;stroke:#990000;stroke-linejoin:miter;" x="775.7742" xlink:href="#m54594a81a3" y="255.369036"/>
     <use style="fill:#990000;stroke:#990000;stroke-linejoin:miter;" x="796.7616" xlink:href="#m54594a81a3" y="257.990061"/>
     <use style="fill:#990000;stroke:#990000;stroke-linejoin:miter;" x="817.749" xlink:href="#m54594a81a3" y="262.303704"/>
     <use style="fill:#990000;stroke:#990000;stroke-linejoin:miter;" x="838.7364" xlink:href="#m54594a81a3" y="263.998288"/>
     <use style="fill:#990000;stroke:#990000;stroke-linejoin:miter;" x="859.7238" xlink:href="#m54594a81a3" y="267.054144"/>
     <use style="fill:#990000;stroke:#990000;stroke-linejoin:miter;" x="880.7112" xlink:href="#m54594a81a3" y="265.840601"/>
     <use style="fill:#990000;stroke:#990000;stroke-linejoin:miter;" x="901.6986" xlink:href="#m54594a81a3" y="262.008"/>
     <use style="fill:#990000;stroke:#990000;stroke-linejoin:miter;" x="922.686" xlink:href="#m54594a81a3" y="259.931926"/>
     <use style="fill:#990000;stroke:#990000;stroke-linejoin:miter;" x="943.6734" xlink:href="#m54594a81a3" y="260.70523"/>
     <use style="fill:#990000;stroke:#990000;stroke-linejoin:miter;" x="964.6608" xlink:href="#m54594a81a3" y="261.309666"/>
     <use style="fill:#990000;stroke:#990000;stroke-linejoin:miter;" x="985.6482" xlink:href="#m54594a81a3" y="255.620495"/>
     <use style="fill:#990000;stroke:#990000;stroke-linejoin:miter;" x="1006.6356" xlink:href="#m54594a81a3" y="250.837609"/>
     <use style="fill:#990000;stroke:#990000;stroke-linejoin:miter;" x="1027.623" xlink:href="#m54594a81a3" y="243.092028"/>
     <use style="fill:#990000;stroke:#990000;stroke-linejoin:miter;" x="1048.6104" xlink:href="#m54594a81a3" y="212.734787"/>
     <use style="fill:#990000;stroke:#990000;stroke-linejoin:miter;" x="1069.5978" xlink:href="#m54594a81a3" y="170.132001"/>
     <use style="fill:#990000;stroke:#990000;stroke-linejoin:miter;" x="1090.5852" xlink:href="#m54594a81a3" y="109.586388"/>
     <use style="fill:#990000;stroke:#990000;stroke-linejoin:miter;" x="1111.5726" xlink:href="#m54594a81a3" y="62.952882"/>
    </g>
   </g>
   <g id="text_25">
    <!-- Last Four Start -->
    <g transform="translate(804.004219 33.44)scale(0.18 -0.18)">
     <defs>
      <path d="M 9.8125 72.90625 
L 19.671875 72.90625 
L 19.671875 8.296875 
L 55.171875 8.296875 
L 55.171875 0 
L 9.8125 0 
z
" id="DejaVuSans-76"/>
      <path d="M 9.8125 72.90625 
L 51.703125 72.90625 
L 51.703125 64.59375 
L 19.671875 64.59375 
L 19.671875 43.109375 
L 48.578125 43.109375 
L 48.578125 34.8125 
L 19.671875 34.8125 
L 19.671875 0 
L 9.8125 0 
z
" id="DejaVuSans-70"/>
     </defs>
     <use xlink:href="#DejaVuSans-76"/>
     <use x="55.712891" xlink:href="#DejaVuSans-97"/>
     <use x="116.992188" xlink:href="#DejaVuSans-115"/>
     <use x="169.091797" xlink:href="#DejaVuSans-116"/>
     <use x="208.300781" xlink:href="#DejaVuSans-32"/>
     <use x="240.087891" xlink:href="#DejaVuSans-70"/>
     <use x="293.982422" xlink:href="#DejaVuSans-111"/>
     <use x="355.164062" xlink:href="#DejaVuSans-117"/>
     <use x="418.542969" xlink:href="#DejaVuSans-114"/>
     <use x="459.65625" xlink:href="#DejaVuSans-32"/>
     <use x="491.443359" xlink:href="#DejaVuSans-83"/>
     <use x="554.919922" xlink:href="#DejaVuSans-116"/>
     <use x="594.128906" xlink:href="#DejaVuSans-97"/>
     <use x="655.408203" xlink:href="#DejaVuSans-114"/>
     <use x="696.521484" xlink:href="#DejaVuSans-116"/>
    </g>
   </g>
   <g id="line2d_37">
    <path clip-path="url(#pa6c916d38a)" d="M 628.8624 163.7356 
L 649.8498 192.755204 
L 670.8372 209.143521 
L 691.8246 221.701612 
L 712.812 221.847259 
L 733.7994 224.903103 
L 754.7868 223.066023 
L 775.7742 216.592576 
L 796.7616 193.768277 
L 817.749 166.108122 
L 838.7364 122.069078 
L 859.7238 68.444915 
" style="fill:none;stroke:#011f5b;stroke-linecap:square;stroke-width:1.5;"/>
    <g clip-path="url(#pa6c916d38a)">
     <use style="fill:#011f5b;stroke:#011f5b;" x="628.8624" xlink:href="#m530327a7b1" y="163.7356"/>
     <use style="fill:#011f5b;stroke:#011f5b;" x="649.8498" xlink:href="#m530327a7b1" y="192.755204"/>
     <use style="fill:#011f5b;stroke:#011f5b;" x="670.8372" xlink:href="#m530327a7b1" y="209.143521"/>
     <use style="fill:#011f5b;stroke:#011f5b;" x="691.8246" xlink:href="#m530327a7b1" y="221.701612"/>
     <use style="fill:#011f5b;stroke:#011f5b;" x="712.812" xlink:href="#m530327a7b1" y="221.847259"/>
     <use style="fill:#011f5b;stroke:#011f5b;" x="733.7994" xlink:href="#m530327a7b1" y="224.903103"/>
     <use style="fill:#011f5b;stroke:#011f5b;" x="754.7868" xlink:href="#m530327a7b1" y="223.066023"/>
     <use style="fill:#011f5b;stroke:#011f5b;" x="775.7742" xlink:href="#m530327a7b1" y="216.592576"/>
     <use style="fill:#011f5b;stroke:#011f5b;" x="796.7616" xlink:href="#m530327a7b1" y="193.768277"/>
     <use style="fill:#011f5b;stroke:#011f5b;" x="817.749" xlink:href="#m530327a7b1" y="166.108122"/>
     <use style="fill:#011f5b;stroke:#011f5b;" x="838.7364" xlink:href="#m530327a7b1" y="122.069078"/>
     <use style="fill:#011f5b;stroke:#011f5b;" x="859.7238" xlink:href="#m530327a7b1" y="68.444915"/>
    </g>
   </g>
   <g id="line2d_38">
    <path clip-path="url(#pa6c916d38a)" d="M 628.8624 195.743867 
L 649.8498 223.146045 
L 670.8372 235.993399 
L 691.8246 247.649225 
L 712.812 252.108456 
L 733.7994 255.122162 
L 754.7868 257.986896 
L 775.7742 256.899896 
L 796.7616 257.928548 
L 817.749 257.755741 
L 838.7364 257.771135 
L 859.7238 263.357588 
L 880.7112 261.061928 
L 901.6986 261.614118 
L 922.686 262.127824 
L 943.6734 260.960379 
L 964.6608 258.365533 
L 985.6482 257.881126 
L 1006.6356 254.137457 
L 1027.623 254.440367 
L 1048.6104 224.309517 
L 1069.5978 188.166898 
L 1090.5852 132.838658 
L 1111.5726 76.327331 
" style="fill:none;stroke:#011f5b;stroke-linecap:square;stroke-width:1.5;"/>
    <g clip-path="url(#pa6c916d38a)">
     <use style="fill:#011f5b;stroke:#011f5b;stroke-linejoin:miter;" x="628.8624" xlink:href="#md1ab6206de" y="195.743867"/>
     <use style="fill:#011f5b;stroke:#011f5b;stroke-linejoin:miter;" x="649.8498" xlink:href="#md1ab6206de" y="223.146045"/>
     <use style="fill:#011f5b;stroke:#011f5b;stroke-linejoin:miter;" x="670.8372" xlink:href="#md1ab6206de" y="235.993399"/>
     <use style="fill:#011f5b;stroke:#011f5b;stroke-linejoin:miter;" x="691.8246" xlink:href="#md1ab6206de" y="247.649225"/>
     <use style="fill:#011f5b;stroke:#011f5b;stroke-linejoin:miter;" x="712.812" xlink:href="#md1ab6206de" y="252.108456"/>
     <use style="fill:#011f5b;stroke:#011f5b;stroke-linejoin:miter;" x="733.7994" xlink:href="#md1ab6206de" y="255.122162"/>
     <use style="fill:#011f5b;stroke:#011f5b;stroke-linejoin:miter;" x="754.7868" xlink:href="#md1ab6206de" y="257.986896"/>
     <use style="fill:#011f5b;stroke:#011f5b;stroke-linejoin:miter;" x="775.7742" xlink:href="#md1ab6206de" y="256.899896"/>
     <use style="fill:#011f5b;stroke:#011f5b;stroke-linejoin:miter;" x="796.7616" xlink:href="#md1ab6206de" y="257.928548"/>
     <use style="fill:#011f5b;stroke:#011f5b;stroke-linejoin:miter;" x="817.749" xlink:href="#md1ab6206de" y="257.755741"/>
     <use style="fill:#011f5b;stroke:#011f5b;stroke-linejoin:miter;" x="838.7364" xlink:href="#md1ab6206de" y="257.771135"/>
     <use style="fill:#011f5b;stroke:#011f5b;stroke-linejoin:miter;" x="859.7238" xlink:href="#md1ab6206de" y="263.357588"/>
     <use style="fill:#011f5b;stroke:#011f5b;stroke-linejoin:miter;" x="880.7112" xlink:href="#md1ab6206de" y="261.061928"/>
     <use style="fill:#011f5b;stroke:#011f5b;stroke-linejoin:miter;" x="901.6986" xlink:href="#md1ab6206de" y="261.614118"/>
     <use style="fill:#011f5b;stroke:#011f5b;stroke-linejoin:miter;" x="922.686" xlink:href="#md1ab6206de" y="262.127824"/>
     <use style="fill:#011f5b;stroke:#011f5b;stroke-linejoin:miter;" x="943.6734" xlink:href="#md1ab6206de" y="260.960379"/>
     <use style="fill:#011f5b;stroke:#011f5b;stroke-linejoin:miter;" x="964.6608" xlink:href="#md1ab6206de" y="258.365533"/>
     <use style="fill:#011f5b;stroke:#011f5b;stroke-linejoin:miter;" x="985.6482" xlink:href="#md1ab6206de" y="257.881126"/>
     <use style="fill:#011f5b;stroke:#011f5b;stroke-linejoin:miter;" x="1006.6356" xlink:href="#md1ab6206de" y="254.137457"/>
     <use style="fill:#011f5b;stroke:#011f5b;stroke-linejoin:miter;" x="1027.623" xlink:href="#md1ab6206de" y="254.440367"/>
     <use style="fill:#011f5b;stroke:#011f5b;stroke-linejoin:miter;" x="1048.6104" xlink:href="#md1ab6206de" y="224.309517"/>
     <use style="fill:#011f5b;stroke:#011f5b;stroke-linejoin:miter;" x="1069.5978" xlink:href="#md1ab6206de" y="188.166898"/>
     <use style="fill:#011f5b;stroke:#011f5b;stroke-linejoin:miter;" x="1090.5852" xlink:href="#md1ab6206de" y="132.838658"/>
     <use style="fill:#011f5b;stroke:#011f5b;stroke-linejoin:miter;" x="1111.5726" xlink:href="#md1ab6206de" y="76.327331"/>
    </g>
   </g>
  </g>
  <g id="text_26">
   <!-- Serial Position -->
   <g transform="translate(558.717188 396.214875)scale(0.18 -0.18)">
    <use xlink:href="#DejaVuSans-83"/>
    <use x="63.476562" xlink:href="#DejaVuSans-101"/>
    <use x="125" xlink:href="#DejaVuSans-114"/>
    <use x="166.113281" xlink:href="#DejaVuSans-105"/>
    <use x="193.896484" xlink:href="#DejaVuSans-97"/>
    <use x="255.175781" xlink:href="#DejaVuSans-108"/>
    <use x="282.958984" xlink:href="#DejaVuSans-32"/>
    <use x="314.746094" xlink:href="#DejaVuSans-80"/>
    <use x="371.423828" xlink:href="#DejaVuSans-111"/>
    <use x="432.605469" xlink:href="#DejaVuSans-115"/>
    <use x="484.705078" xlink:href="#DejaVuSans-105"/>
    <use x="512.488281" xlink:href="#DejaVuSans-116"/>
    <use x="551.697266" xlink:href="#DejaVuSans-105"/>
    <use x="579.480469" xlink:href="#DejaVuSans-111"/>
    <use x="640.662109" xlink:href="#DejaVuSans-110"/>
   </g>
  </g>
 </g>
 <defs>
  <clipPath id="p3f93ff6d85">
   <rect height="316.12" width="524.685" x="70.69" y="39.44"/>
  </clipPath>
  <clipPath id="pa6c916d38a">
   <rect height="316.12" width="524.685" x="607.875" y="39.44"/>
  </clipPath>
 </defs>
</svg>
