<?xml version="1.0" encoding="utf-8" standalone="no"?>
<!DOCTYPE svg PUBLIC "-//W3C//DTD SVG 1.1//EN"
  "http://www.w3.org/Graphics/SVG/1.1/DTD/svg11.dtd">
<!-- Created with matplotlib (https://matplotlib.org/) -->
<svg height="720pt" version="1.1" viewBox="0 0 864 720" width="864pt" xmlns="http://www.w3.org/2000/svg" xmlns:xlink="http://www.w3.org/1999/xlink">
 <metadata>
  <rdf:RDF xmlns:cc="http://creativecommons.org/ns#" xmlns:dc="http://purl.org/dc/elements/1.1/" xmlns:rdf="http://www.w3.org/1999/02/22-rdf-syntax-ns#">
   <cc:Work>
    <dc:type rdf:resource="http://purl.org/dc/dcmitype/StillImage"/>
    <dc:date>2022-05-10T12:49:29.063035</dc:date>
    <dc:format>image/svg+xml</dc:format>
    <dc:creator>
     <cc:Agent>
      <dc:title>Matplotlib v3.3.2, https://matplotlib.org/</dc:title>
     </cc:Agent>
    </dc:creator>
   </cc:Work>
  </rdf:RDF>
 </metadata>
 <defs>
  <style type="text/css">*{stroke-linecap:butt;stroke-linejoin:round;}</style>
 </defs>
 <g id="figure_1">
  <g id="patch_1">
   <path d="M 0 720 
L 864 720 
L 864 0 
L 0 0 
z
" style="fill:none;"/>
  </g>
  <g id="axes_1">
   <g id="patch_2">
    <path d="M 70.69 213.746667 
L 422.28 213.746667 
L 422.28 39.44 
L 70.69 39.44 
z
" style="fill:#ffffff;"/>
   </g>
   <g id="PolyCollection_1">
    <defs>
     <path d="M 86.671364 -621.384047 
L 86.671364 -624.539404 
L 115.728388 -608.997992 
L 144.785413 -598.68542 
L 173.842438 -590.470019 
L 202.899463 -584.708047 
L 231.956488 -585.107274 
L 261.013512 -586.637862 
L 290.070537 -590.367751 
L 319.127562 -595.163699 
L 348.184587 -607.241287 
L 377.241612 -624.018986 
L 406.298636 -644.971559 
L 406.298636 -642.038464 
L 406.298636 -642.038464 
L 377.241612 -620.955858 
L 348.184587 -604.057983 
L 319.127562 -592.005362 
L 290.070537 -587.196657 
L 261.013512 -583.396972 
L 231.956488 -581.844585 
L 202.899463 -581.532357 
L 173.842438 -587.272253 
L 144.785413 -595.361047 
L 115.728388 -605.799268 
L 86.671364 -621.384047 
z
" id="mbccbaa1e81" style="stroke:#011f5b;stroke-opacity:0.3;"/>
    </defs>
    <g clip-path="url(#p76c65b4f27)">
     <use style="fill:#011f5b;fill-opacity:0.3;stroke:#011f5b;stroke-opacity:0.3;" x="0" xlink:href="#mbccbaa1e81" y="720"/>
    </g>
   </g>
   <g id="PolyCollection_2">
    <defs>
     <path d="M 86.671364 -610.887456 
L 86.671364 -614.218725 
L 115.728388 -604.061577 
L 144.785413 -593.846345 
L 173.842438 -590.005815 
L 202.899463 -586.417031 
L 231.956488 -586.861743 
L 261.013512 -588.32236 
L 290.070537 -593.714495 
L 319.127562 -602.348467 
L 348.184587 -617.382885 
L 377.241612 -640.471087 
L 406.298636 -661.062448 
L 406.298636 -658.855636 
L 406.298636 -658.855636 
L 377.241612 -637.77013 
L 348.184587 -614.431965 
L 319.127562 -599.307056 
L 290.070537 -590.545982 
L 261.013512 -585.133003 
L 231.956488 -583.625183 
L 202.899463 -583.060626 
L 173.842438 -586.714829 
L 144.785413 -590.53287 
L 115.728388 -600.681121 
L 86.671364 -610.887456 
z
" id="m6c1f5ee365" style="stroke:#990000;stroke-opacity:0.3;"/>
    </defs>
    <g clip-path="url(#p76c65b4f27)">
     <use style="fill:#990000;fill-opacity:0.3;stroke:#990000;stroke-opacity:0.3;" x="0" xlink:href="#m6c1f5ee365" y="720"/>
    </g>
   </g>
   <g id="matplotlib.axis_1">
    <g id="xtick_1">
     <g id="line2d_1">
      <defs>
       <path d="M 0 0 
L 0 3.5 
" id="m3eb472a1d9" style="stroke:#000000;stroke-width:0.8;"/>
      </defs>
      <g>
       <use style="stroke:#000000;stroke-width:0.8;" x="86.671364" xlink:href="#m3eb472a1d9" y="213.746667"/>
      </g>
     </g>
     <g id="text_1">
      <!-- 1 -->
      <g transform="translate(82.217614 231.384479)scale(0.14 -0.14)">
       <defs>
        <path d="M 12.40625 8.296875 
L 28.515625 8.296875 
L 28.515625 63.921875 
L 10.984375 60.40625 
L 10.984375 69.390625 
L 28.421875 72.90625 
L 38.28125 72.90625 
L 38.28125 8.296875 
L 54.390625 8.296875 
L 54.390625 0 
L 12.40625 0 
z
" id="DejaVuSans-49"/>
       </defs>
       <use xlink:href="#DejaVuSans-49"/>
      </g>
     </g>
    </g>
    <g id="xtick_2">
     <g id="line2d_2">
      <g>
       <use style="stroke:#000000;stroke-width:0.8;" x="144.785413" xlink:href="#m3eb472a1d9" y="213.746667"/>
      </g>
     </g>
     <g id="text_2">
      <!-- 3 -->
      <g transform="translate(140.331663 231.384479)scale(0.14 -0.14)">
       <defs>
        <path d="M 40.578125 39.3125 
Q 47.65625 37.796875 51.625 33 
Q 55.609375 28.21875 55.609375 21.1875 
Q 55.609375 10.40625 48.1875 4.484375 
Q 40.765625 -1.421875 27.09375 -1.421875 
Q 22.515625 -1.421875 17.65625 -0.515625 
Q 12.796875 0.390625 7.625 2.203125 
L 7.625 11.71875 
Q 11.71875 9.328125 16.59375 8.109375 
Q 21.484375 6.890625 26.8125 6.890625 
Q 36.078125 6.890625 40.9375 10.546875 
Q 45.796875 14.203125 45.796875 21.1875 
Q 45.796875 27.640625 41.28125 31.265625 
Q 36.765625 34.90625 28.71875 34.90625 
L 20.21875 34.90625 
L 20.21875 43.015625 
L 29.109375 43.015625 
Q 36.375 43.015625 40.234375 45.921875 
Q 44.09375 48.828125 44.09375 54.296875 
Q 44.09375 59.90625 40.109375 62.90625 
Q 36.140625 65.921875 28.71875 65.921875 
Q 24.65625 65.921875 20.015625 65.03125 
Q 15.375 64.15625 9.8125 62.3125 
L 9.8125 71.09375 
Q 15.4375 72.65625 20.34375 73.4375 
Q 25.25 74.21875 29.59375 74.21875 
Q 40.828125 74.21875 47.359375 69.109375 
Q 53.90625 64.015625 53.90625 55.328125 
Q 53.90625 49.265625 50.4375 45.09375 
Q 46.96875 40.921875 40.578125 39.3125 
z
" id="DejaVuSans-51"/>
       </defs>
       <use xlink:href="#DejaVuSans-51"/>
      </g>
     </g>
    </g>
    <g id="xtick_3">
     <g id="line2d_3">
      <g>
       <use style="stroke:#000000;stroke-width:0.8;" x="231.956488" xlink:href="#m3eb472a1d9" y="213.746667"/>
      </g>
     </g>
     <g id="text_3">
      <!-- 6 -->
      <g transform="translate(227.502738 231.384479)scale(0.14 -0.14)">
       <defs>
        <path d="M 33.015625 40.375 
Q 26.375 40.375 22.484375 35.828125 
Q 18.609375 31.296875 18.609375 23.390625 
Q 18.609375 15.53125 22.484375 10.953125 
Q 26.375 6.390625 33.015625 6.390625 
Q 39.65625 6.390625 43.53125 10.953125 
Q 47.40625 15.53125 47.40625 23.390625 
Q 47.40625 31.296875 43.53125 35.828125 
Q 39.65625 40.375 33.015625 40.375 
z
M 52.59375 71.296875 
L 52.59375 62.3125 
Q 48.875 64.0625 45.09375 64.984375 
Q 41.3125 65.921875 37.59375 65.921875 
Q 27.828125 65.921875 22.671875 59.328125 
Q 17.53125 52.734375 16.796875 39.40625 
Q 19.671875 43.65625 24.015625 45.921875 
Q 28.375 48.1875 33.59375 48.1875 
Q 44.578125 48.1875 50.953125 41.515625 
Q 57.328125 34.859375 57.328125 23.390625 
Q 57.328125 12.15625 50.6875 5.359375 
Q 44.046875 -1.421875 33.015625 -1.421875 
Q 20.359375 -1.421875 13.671875 8.265625 
Q 6.984375 17.96875 6.984375 36.375 
Q 6.984375 53.65625 15.1875 63.9375 
Q 23.390625 74.21875 37.203125 74.21875 
Q 40.921875 74.21875 44.703125 73.484375 
Q 48.484375 72.75 52.59375 71.296875 
z
" id="DejaVuSans-54"/>
       </defs>
       <use xlink:href="#DejaVuSans-54"/>
      </g>
     </g>
    </g>
    <g id="xtick_4">
     <g id="line2d_4">
      <g>
       <use style="stroke:#000000;stroke-width:0.8;" x="319.127562" xlink:href="#m3eb472a1d9" y="213.746667"/>
      </g>
     </g>
     <g id="text_4">
      <!-- 9 -->
      <g transform="translate(314.673812 231.384479)scale(0.14 -0.14)">
       <defs>
        <path d="M 10.984375 1.515625 
L 10.984375 10.5 
Q 14.703125 8.734375 18.5 7.8125 
Q 22.3125 6.890625 25.984375 6.890625 
Q 35.75 6.890625 40.890625 13.453125 
Q 46.046875 20.015625 46.78125 33.40625 
Q 43.953125 29.203125 39.59375 26.953125 
Q 35.25 24.703125 29.984375 24.703125 
Q 19.046875 24.703125 12.671875 31.3125 
Q 6.296875 37.9375 6.296875 49.421875 
Q 6.296875 60.640625 12.9375 67.421875 
Q 19.578125 74.21875 30.609375 74.21875 
Q 43.265625 74.21875 49.921875 64.515625 
Q 56.59375 54.828125 56.59375 36.375 
Q 56.59375 19.140625 48.40625 8.859375 
Q 40.234375 -1.421875 26.421875 -1.421875 
Q 22.703125 -1.421875 18.890625 -0.6875 
Q 15.09375 0.046875 10.984375 1.515625 
z
M 30.609375 32.421875 
Q 37.25 32.421875 41.125 36.953125 
Q 45.015625 41.5 45.015625 49.421875 
Q 45.015625 57.28125 41.125 61.84375 
Q 37.25 66.40625 30.609375 66.40625 
Q 23.96875 66.40625 20.09375 61.84375 
Q 16.21875 57.28125 16.21875 49.421875 
Q 16.21875 41.5 20.09375 36.953125 
Q 23.96875 32.421875 30.609375 32.421875 
z
" id="DejaVuSans-57"/>
       </defs>
       <use xlink:href="#DejaVuSans-57"/>
      </g>
     </g>
    </g>
    <g id="xtick_5">
     <g id="line2d_5">
      <g>
       <use style="stroke:#000000;stroke-width:0.8;" x="406.298636" xlink:href="#m3eb472a1d9" y="213.746667"/>
      </g>
     </g>
     <g id="text_5">
      <!-- 12 -->
      <g transform="translate(397.391136 231.384479)scale(0.14 -0.14)">
       <defs>
        <path d="M 19.1875 8.296875 
L 53.609375 8.296875 
L 53.609375 0 
L 7.328125 0 
L 7.328125 8.296875 
Q 12.9375 14.109375 22.625 23.890625 
Q 32.328125 33.6875 34.8125 36.53125 
Q 39.546875 41.84375 41.421875 45.53125 
Q 43.3125 49.21875 43.3125 52.78125 
Q 43.3125 58.59375 39.234375 62.25 
Q 35.15625 65.921875 28.609375 65.921875 
Q 23.96875 65.921875 18.8125 64.3125 
Q 13.671875 62.703125 7.8125 59.421875 
L 7.8125 69.390625 
Q 13.765625 71.78125 18.9375 73 
Q 24.125 74.21875 28.421875 74.21875 
Q 39.75 74.21875 46.484375 68.546875 
Q 53.21875 62.890625 53.21875 53.421875 
Q 53.21875 48.921875 51.53125 44.890625 
Q 49.859375 40.875 45.40625 35.40625 
Q 44.1875 33.984375 37.640625 27.21875 
Q 31.109375 20.453125 19.1875 8.296875 
z
" id="DejaVuSans-50"/>
       </defs>
       <use xlink:href="#DejaVuSans-49"/>
       <use x="63.623047" xlink:href="#DejaVuSans-50"/>
      </g>
     </g>
    </g>
    <g id="text_6">
     <!-- Serial Position -->
     <g transform="translate(183.122188 251.973229)scale(0.18 -0.18)">
      <defs>
       <path d="M 53.515625 70.515625 
L 53.515625 60.890625 
Q 47.90625 63.578125 42.921875 64.890625 
Q 37.9375 66.21875 33.296875 66.21875 
Q 25.25 66.21875 20.875 63.09375 
Q 16.5 59.96875 16.5 54.203125 
Q 16.5 49.359375 19.40625 46.890625 
Q 22.3125 44.4375 30.421875 42.921875 
L 36.375 41.703125 
Q 47.40625 39.59375 52.65625 34.296875 
Q 57.90625 29 57.90625 20.125 
Q 57.90625 9.515625 50.796875 4.046875 
Q 43.703125 -1.421875 29.984375 -1.421875 
Q 24.8125 -1.421875 18.96875 -0.25 
Q 13.140625 0.921875 6.890625 3.21875 
L 6.890625 13.375 
Q 12.890625 10.015625 18.65625 8.296875 
Q 24.421875 6.59375 29.984375 6.59375 
Q 38.421875 6.59375 43.015625 9.90625 
Q 47.609375 13.234375 47.609375 19.390625 
Q 47.609375 24.75 44.3125 27.78125 
Q 41.015625 30.8125 33.5 32.328125 
L 27.484375 33.5 
Q 16.453125 35.6875 11.515625 40.375 
Q 6.59375 45.0625 6.59375 53.421875 
Q 6.59375 63.09375 13.40625 68.65625 
Q 20.21875 74.21875 32.171875 74.21875 
Q 37.3125 74.21875 42.625 73.28125 
Q 47.953125 72.359375 53.515625 70.515625 
z
" id="DejaVuSans-83"/>
       <path d="M 56.203125 29.59375 
L 56.203125 25.203125 
L 14.890625 25.203125 
Q 15.484375 15.921875 20.484375 11.0625 
Q 25.484375 6.203125 34.421875 6.203125 
Q 39.59375 6.203125 44.453125 7.46875 
Q 49.3125 8.734375 54.109375 11.28125 
L 54.109375 2.78125 
Q 49.265625 0.734375 44.1875 -0.34375 
Q 39.109375 -1.421875 33.890625 -1.421875 
Q 20.796875 -1.421875 13.15625 6.1875 
Q 5.515625 13.8125 5.515625 26.8125 
Q 5.515625 40.234375 12.765625 48.109375 
Q 20.015625 56 32.328125 56 
Q 43.359375 56 49.78125 48.890625 
Q 56.203125 41.796875 56.203125 29.59375 
z
M 47.21875 32.234375 
Q 47.125 39.59375 43.09375 43.984375 
Q 39.0625 48.390625 32.421875 48.390625 
Q 24.90625 48.390625 20.390625 44.140625 
Q 15.875 39.890625 15.1875 32.171875 
z
" id="DejaVuSans-101"/>
       <path d="M 41.109375 46.296875 
Q 39.59375 47.171875 37.8125 47.578125 
Q 36.03125 48 33.890625 48 
Q 26.265625 48 22.1875 43.046875 
Q 18.109375 38.09375 18.109375 28.8125 
L 18.109375 0 
L 9.078125 0 
L 9.078125 54.6875 
L 18.109375 54.6875 
L 18.109375 46.1875 
Q 20.953125 51.171875 25.484375 53.578125 
Q 30.03125 56 36.53125 56 
Q 37.453125 56 38.578125 55.875 
Q 39.703125 55.765625 41.0625 55.515625 
z
" id="DejaVuSans-114"/>
       <path d="M 9.421875 54.6875 
L 18.40625 54.6875 
L 18.40625 0 
L 9.421875 0 
z
M 9.421875 75.984375 
L 18.40625 75.984375 
L 18.40625 64.59375 
L 9.421875 64.59375 
z
" id="DejaVuSans-105"/>
       <path d="M 34.28125 27.484375 
Q 23.390625 27.484375 19.1875 25 
Q 14.984375 22.515625 14.984375 16.5 
Q 14.984375 11.71875 18.140625 8.90625 
Q 21.296875 6.109375 26.703125 6.109375 
Q 34.1875 6.109375 38.703125 11.40625 
Q 43.21875 16.703125 43.21875 25.484375 
L 43.21875 27.484375 
z
M 52.203125 31.203125 
L 52.203125 0 
L 43.21875 0 
L 43.21875 8.296875 
Q 40.140625 3.328125 35.546875 0.953125 
Q 30.953125 -1.421875 24.3125 -1.421875 
Q 15.921875 -1.421875 10.953125 3.296875 
Q 6 8.015625 6 15.921875 
Q 6 25.140625 12.171875 29.828125 
Q 18.359375 34.515625 30.609375 34.515625 
L 43.21875 34.515625 
L 43.21875 35.40625 
Q 43.21875 41.609375 39.140625 45 
Q 35.0625 48.390625 27.6875 48.390625 
Q 23 48.390625 18.546875 47.265625 
Q 14.109375 46.140625 10.015625 43.890625 
L 10.015625 52.203125 
Q 14.9375 54.109375 19.578125 55.046875 
Q 24.21875 56 28.609375 56 
Q 40.484375 56 46.34375 49.84375 
Q 52.203125 43.703125 52.203125 31.203125 
z
" id="DejaVuSans-97"/>
       <path d="M 9.421875 75.984375 
L 18.40625 75.984375 
L 18.40625 0 
L 9.421875 0 
z
" id="DejaVuSans-108"/>
       <path id="DejaVuSans-32"/>
       <path d="M 19.671875 64.796875 
L 19.671875 37.40625 
L 32.078125 37.40625 
Q 38.96875 37.40625 42.71875 40.96875 
Q 46.484375 44.53125 46.484375 51.125 
Q 46.484375 57.671875 42.71875 61.234375 
Q 38.96875 64.796875 32.078125 64.796875 
z
M 9.8125 72.90625 
L 32.078125 72.90625 
Q 44.34375 72.90625 50.609375 67.359375 
Q 56.890625 61.8125 56.890625 51.125 
Q 56.890625 40.328125 50.609375 34.8125 
Q 44.34375 29.296875 32.078125 29.296875 
L 19.671875 29.296875 
L 19.671875 0 
L 9.8125 0 
z
" id="DejaVuSans-80"/>
       <path d="M 30.609375 48.390625 
Q 23.390625 48.390625 19.1875 42.75 
Q 14.984375 37.109375 14.984375 27.296875 
Q 14.984375 17.484375 19.15625 11.84375 
Q 23.34375 6.203125 30.609375 6.203125 
Q 37.796875 6.203125 41.984375 11.859375 
Q 46.1875 17.53125 46.1875 27.296875 
Q 46.1875 37.015625 41.984375 42.703125 
Q 37.796875 48.390625 30.609375 48.390625 
z
M 30.609375 56 
Q 42.328125 56 49.015625 48.375 
Q 55.71875 40.765625 55.71875 27.296875 
Q 55.71875 13.875 49.015625 6.21875 
Q 42.328125 -1.421875 30.609375 -1.421875 
Q 18.84375 -1.421875 12.171875 6.21875 
Q 5.515625 13.875 5.515625 27.296875 
Q 5.515625 40.765625 12.171875 48.375 
Q 18.84375 56 30.609375 56 
z
" id="DejaVuSans-111"/>
       <path d="M 44.28125 53.078125 
L 44.28125 44.578125 
Q 40.484375 46.53125 36.375 47.5 
Q 32.28125 48.484375 27.875 48.484375 
Q 21.1875 48.484375 17.84375 46.4375 
Q 14.5 44.390625 14.5 40.28125 
Q 14.5 37.15625 16.890625 35.375 
Q 19.28125 33.59375 26.515625 31.984375 
L 29.59375 31.296875 
Q 39.15625 29.25 43.1875 25.515625 
Q 47.21875 21.78125 47.21875 15.09375 
Q 47.21875 7.46875 41.1875 3.015625 
Q 35.15625 -1.421875 24.609375 -1.421875 
Q 20.21875 -1.421875 15.453125 -0.5625 
Q 10.6875 0.296875 5.421875 2 
L 5.421875 11.28125 
Q 10.40625 8.6875 15.234375 7.390625 
Q 20.0625 6.109375 24.8125 6.109375 
Q 31.15625 6.109375 34.5625 8.28125 
Q 37.984375 10.453125 37.984375 14.40625 
Q 37.984375 18.0625 35.515625 20.015625 
Q 33.0625 21.96875 24.703125 23.78125 
L 21.578125 24.515625 
Q 13.234375 26.265625 9.515625 29.90625 
Q 5.8125 33.546875 5.8125 39.890625 
Q 5.8125 47.609375 11.28125 51.796875 
Q 16.75 56 26.8125 56 
Q 31.78125 56 36.171875 55.265625 
Q 40.578125 54.546875 44.28125 53.078125 
z
" id="DejaVuSans-115"/>
       <path d="M 18.3125 70.21875 
L 18.3125 54.6875 
L 36.8125 54.6875 
L 36.8125 47.703125 
L 18.3125 47.703125 
L 18.3125 18.015625 
Q 18.3125 11.328125 20.140625 9.421875 
Q 21.96875 7.515625 27.59375 7.515625 
L 36.8125 7.515625 
L 36.8125 0 
L 27.59375 0 
Q 17.1875 0 13.234375 3.875 
Q 9.28125 7.765625 9.28125 18.015625 
L 9.28125 47.703125 
L 2.6875 47.703125 
L 2.6875 54.6875 
L 9.28125 54.6875 
L 9.28125 70.21875 
z
" id="DejaVuSans-116"/>
       <path d="M 54.890625 33.015625 
L 54.890625 0 
L 45.90625 0 
L 45.90625 32.71875 
Q 45.90625 40.484375 42.875 44.328125 
Q 39.84375 48.1875 33.796875 48.1875 
Q 26.515625 48.1875 22.3125 43.546875 
Q 18.109375 38.921875 18.109375 30.90625 
L 18.109375 0 
L 9.078125 0 
L 9.078125 54.6875 
L 18.109375 54.6875 
L 18.109375 46.1875 
Q 21.34375 51.125 25.703125 53.5625 
Q 30.078125 56 35.796875 56 
Q 45.21875 56 50.046875 50.171875 
Q 54.890625 44.34375 54.890625 33.015625 
z
" id="DejaVuSans-110"/>
      </defs>
      <use xlink:href="#DejaVuSans-83"/>
      <use x="63.476562" xlink:href="#DejaVuSans-101"/>
      <use x="125" xlink:href="#DejaVuSans-114"/>
      <use x="166.113281" xlink:href="#DejaVuSans-105"/>
      <use x="193.896484" xlink:href="#DejaVuSans-97"/>
      <use x="255.175781" xlink:href="#DejaVuSans-108"/>
      <use x="282.958984" xlink:href="#DejaVuSans-32"/>
      <use x="314.746094" xlink:href="#DejaVuSans-80"/>
      <use x="371.423828" xlink:href="#DejaVuSans-111"/>
      <use x="432.605469" xlink:href="#DejaVuSans-115"/>
      <use x="484.705078" xlink:href="#DejaVuSans-105"/>
      <use x="512.488281" xlink:href="#DejaVuSans-116"/>
      <use x="551.697266" xlink:href="#DejaVuSans-105"/>
      <use x="579.480469" xlink:href="#DejaVuSans-111"/>
      <use x="640.662109" xlink:href="#DejaVuSans-110"/>
     </g>
    </g>
   </g>
   <g id="matplotlib.axis_2">
    <g id="ytick_1">
     <g id="line2d_6">
      <defs>
       <path d="M 0 0 
L -3.5 0 
" id="m40440367d8" style="stroke:#000000;stroke-width:0.8;"/>
      </defs>
      <g>
       <use style="stroke:#000000;stroke-width:0.8;" x="70.69" xlink:href="#m40440367d8" y="213.746667"/>
      </g>
     </g>
     <g id="text_7">
      <!-- 0.0 -->
      <g transform="translate(41.425625 219.065573)scale(0.14 -0.14)">
       <defs>
        <path d="M 31.78125 66.40625 
Q 24.171875 66.40625 20.328125 58.90625 
Q 16.5 51.421875 16.5 36.375 
Q 16.5 21.390625 20.328125 13.890625 
Q 24.171875 6.390625 31.78125 6.390625 
Q 39.453125 6.390625 43.28125 13.890625 
Q 47.125 21.390625 47.125 36.375 
Q 47.125 51.421875 43.28125 58.90625 
Q 39.453125 66.40625 31.78125 66.40625 
z
M 31.78125 74.21875 
Q 44.046875 74.21875 50.515625 64.515625 
Q 56.984375 54.828125 56.984375 36.375 
Q 56.984375 17.96875 50.515625 8.265625 
Q 44.046875 -1.421875 31.78125 -1.421875 
Q 19.53125 -1.421875 13.0625 8.265625 
Q 6.59375 17.96875 6.59375 36.375 
Q 6.59375 54.828125 13.0625 64.515625 
Q 19.53125 74.21875 31.78125 74.21875 
z
" id="DejaVuSans-48"/>
        <path d="M 10.6875 12.40625 
L 21 12.40625 
L 21 0 
L 10.6875 0 
z
" id="DejaVuSans-46"/>
       </defs>
       <use xlink:href="#DejaVuSans-48"/>
       <use x="63.623047" xlink:href="#DejaVuSans-46"/>
       <use x="95.410156" xlink:href="#DejaVuSans-48"/>
      </g>
     </g>
    </g>
    <g id="ytick_2">
     <g id="line2d_7">
      <g>
       <use style="stroke:#000000;stroke-width:0.8;" x="70.69" xlink:href="#m40440367d8" y="178.885333"/>
      </g>
     </g>
     <g id="text_8">
      <!-- 0.2 -->
      <g transform="translate(41.425625 184.20424)scale(0.14 -0.14)">
       <use xlink:href="#DejaVuSans-48"/>
       <use x="63.623047" xlink:href="#DejaVuSans-46"/>
       <use x="95.410156" xlink:href="#DejaVuSans-50"/>
      </g>
     </g>
    </g>
    <g id="ytick_3">
     <g id="line2d_8">
      <g>
       <use style="stroke:#000000;stroke-width:0.8;" x="70.69" xlink:href="#m40440367d8" y="144.024"/>
      </g>
     </g>
     <g id="text_9">
      <!-- 0.4 -->
      <g transform="translate(41.425625 149.342906)scale(0.14 -0.14)">
       <defs>
        <path d="M 37.796875 64.3125 
L 12.890625 25.390625 
L 37.796875 25.390625 
z
M 35.203125 72.90625 
L 47.609375 72.90625 
L 47.609375 25.390625 
L 58.015625 25.390625 
L 58.015625 17.1875 
L 47.609375 17.1875 
L 47.609375 0 
L 37.796875 0 
L 37.796875 17.1875 
L 4.890625 17.1875 
L 4.890625 26.703125 
z
" id="DejaVuSans-52"/>
       </defs>
       <use xlink:href="#DejaVuSans-48"/>
       <use x="63.623047" xlink:href="#DejaVuSans-46"/>
       <use x="95.410156" xlink:href="#DejaVuSans-52"/>
      </g>
     </g>
    </g>
    <g id="ytick_4">
     <g id="line2d_9">
      <g>
       <use style="stroke:#000000;stroke-width:0.8;" x="70.69" xlink:href="#m40440367d8" y="109.162667"/>
      </g>
     </g>
     <g id="text_10">
      <!-- 0.6 -->
      <g transform="translate(41.425625 114.481573)scale(0.14 -0.14)">
       <use xlink:href="#DejaVuSans-48"/>
       <use x="63.623047" xlink:href="#DejaVuSans-46"/>
       <use x="95.410156" xlink:href="#DejaVuSans-54"/>
      </g>
     </g>
    </g>
    <g id="ytick_5">
     <g id="line2d_10">
      <g>
       <use style="stroke:#000000;stroke-width:0.8;" x="70.69" xlink:href="#m40440367d8" y="74.301333"/>
      </g>
     </g>
     <g id="text_11">
      <!-- 0.8 -->
      <g transform="translate(41.425625 79.62024)scale(0.14 -0.14)">
       <defs>
        <path d="M 31.78125 34.625 
Q 24.75 34.625 20.71875 30.859375 
Q 16.703125 27.09375 16.703125 20.515625 
Q 16.703125 13.921875 20.71875 10.15625 
Q 24.75 6.390625 31.78125 6.390625 
Q 38.8125 6.390625 42.859375 10.171875 
Q 46.921875 13.96875 46.921875 20.515625 
Q 46.921875 27.09375 42.890625 30.859375 
Q 38.875 34.625 31.78125 34.625 
z
M 21.921875 38.8125 
Q 15.578125 40.375 12.03125 44.71875 
Q 8.5 49.078125 8.5 55.328125 
Q 8.5 64.0625 14.71875 69.140625 
Q 20.953125 74.21875 31.78125 74.21875 
Q 42.671875 74.21875 48.875 69.140625 
Q 55.078125 64.0625 55.078125 55.328125 
Q 55.078125 49.078125 51.53125 44.71875 
Q 48 40.375 41.703125 38.8125 
Q 48.828125 37.15625 52.796875 32.3125 
Q 56.78125 27.484375 56.78125 20.515625 
Q 56.78125 9.90625 50.3125 4.234375 
Q 43.84375 -1.421875 31.78125 -1.421875 
Q 19.734375 -1.421875 13.25 4.234375 
Q 6.78125 9.90625 6.78125 20.515625 
Q 6.78125 27.484375 10.78125 32.3125 
Q 14.796875 37.15625 21.921875 38.8125 
z
M 18.3125 54.390625 
Q 18.3125 48.734375 21.84375 45.5625 
Q 25.390625 42.390625 31.78125 42.390625 
Q 38.140625 42.390625 41.71875 45.5625 
Q 45.3125 48.734375 45.3125 54.390625 
Q 45.3125 60.0625 41.71875 63.234375 
Q 38.140625 66.40625 31.78125 66.40625 
Q 25.390625 66.40625 21.84375 63.234375 
Q 18.3125 60.0625 18.3125 54.390625 
z
" id="DejaVuSans-56"/>
       </defs>
       <use xlink:href="#DejaVuSans-48"/>
       <use x="63.623047" xlink:href="#DejaVuSans-46"/>
       <use x="95.410156" xlink:href="#DejaVuSans-56"/>
      </g>
     </g>
    </g>
    <g id="ytick_6">
     <g id="line2d_11">
      <g>
       <use style="stroke:#000000;stroke-width:0.8;" x="70.69" xlink:href="#m40440367d8" y="39.44"/>
      </g>
     </g>
     <g id="text_12">
      <!-- 1.0 -->
      <g transform="translate(41.425625 44.758906)scale(0.14 -0.14)">
       <use xlink:href="#DejaVuSans-49"/>
       <use x="63.623047" xlink:href="#DejaVuSans-46"/>
       <use x="95.410156" xlink:href="#DejaVuSans-48"/>
      </g>
     </g>
    </g>
    <g id="text_13">
     <!-- Recall Prob. -->
     <g transform="translate(33.682188 179.151927)rotate(-90)scale(0.18 -0.18)">
      <defs>
       <path d="M 44.390625 34.1875 
Q 47.5625 33.109375 50.5625 29.59375 
Q 53.5625 26.078125 56.59375 19.921875 
L 66.609375 0 
L 56 0 
L 46.6875 18.703125 
Q 43.0625 26.03125 39.671875 28.421875 
Q 36.28125 30.8125 30.421875 30.8125 
L 19.671875 30.8125 
L 19.671875 0 
L 9.8125 0 
L 9.8125 72.90625 
L 32.078125 72.90625 
Q 44.578125 72.90625 50.734375 67.671875 
Q 56.890625 62.453125 56.890625 51.90625 
Q 56.890625 45.015625 53.6875 40.46875 
Q 50.484375 35.9375 44.390625 34.1875 
z
M 19.671875 64.796875 
L 19.671875 38.921875 
L 32.078125 38.921875 
Q 39.203125 38.921875 42.84375 42.21875 
Q 46.484375 45.515625 46.484375 51.90625 
Q 46.484375 58.296875 42.84375 61.546875 
Q 39.203125 64.796875 32.078125 64.796875 
z
" id="DejaVuSans-82"/>
       <path d="M 48.78125 52.59375 
L 48.78125 44.1875 
Q 44.96875 46.296875 41.140625 47.34375 
Q 37.3125 48.390625 33.40625 48.390625 
Q 24.65625 48.390625 19.8125 42.84375 
Q 14.984375 37.3125 14.984375 27.296875 
Q 14.984375 17.28125 19.8125 11.734375 
Q 24.65625 6.203125 33.40625 6.203125 
Q 37.3125 6.203125 41.140625 7.25 
Q 44.96875 8.296875 48.78125 10.40625 
L 48.78125 2.09375 
Q 45.015625 0.34375 40.984375 -0.53125 
Q 36.96875 -1.421875 32.421875 -1.421875 
Q 20.0625 -1.421875 12.78125 6.34375 
Q 5.515625 14.109375 5.515625 27.296875 
Q 5.515625 40.671875 12.859375 48.328125 
Q 20.21875 56 33.015625 56 
Q 37.15625 56 41.109375 55.140625 
Q 45.0625 54.296875 48.78125 52.59375 
z
" id="DejaVuSans-99"/>
       <path d="M 48.6875 27.296875 
Q 48.6875 37.203125 44.609375 42.84375 
Q 40.53125 48.484375 33.40625 48.484375 
Q 26.265625 48.484375 22.1875 42.84375 
Q 18.109375 37.203125 18.109375 27.296875 
Q 18.109375 17.390625 22.1875 11.75 
Q 26.265625 6.109375 33.40625 6.109375 
Q 40.53125 6.109375 44.609375 11.75 
Q 48.6875 17.390625 48.6875 27.296875 
z
M 18.109375 46.390625 
Q 20.953125 51.265625 25.265625 53.625 
Q 29.59375 56 35.59375 56 
Q 45.5625 56 51.78125 48.09375 
Q 58.015625 40.1875 58.015625 27.296875 
Q 58.015625 14.40625 51.78125 6.484375 
Q 45.5625 -1.421875 35.59375 -1.421875 
Q 29.59375 -1.421875 25.265625 0.953125 
Q 20.953125 3.328125 18.109375 8.203125 
L 18.109375 0 
L 9.078125 0 
L 9.078125 75.984375 
L 18.109375 75.984375 
z
" id="DejaVuSans-98"/>
      </defs>
      <use xlink:href="#DejaVuSans-82"/>
      <use x="64.982422" xlink:href="#DejaVuSans-101"/>
      <use x="126.505859" xlink:href="#DejaVuSans-99"/>
      <use x="181.486328" xlink:href="#DejaVuSans-97"/>
      <use x="242.765625" xlink:href="#DejaVuSans-108"/>
      <use x="270.548828" xlink:href="#DejaVuSans-108"/>
      <use x="298.332031" xlink:href="#DejaVuSans-32"/>
      <use x="330.119141" xlink:href="#DejaVuSans-80"/>
      <use x="388.671875" xlink:href="#DejaVuSans-114"/>
      <use x="427.535156" xlink:href="#DejaVuSans-111"/>
      <use x="488.716797" xlink:href="#DejaVuSans-98"/>
      <use x="552.193359" xlink:href="#DejaVuSans-46"/>
     </g>
    </g>
   </g>
   <g id="line2d_12">
    <path clip-path="url(#p76c65b4f27)" d="M 86.671364 97.038274 
L 115.728388 112.60137 
L 144.785413 122.976766 
L 173.842438 131.128864 
L 202.899463 136.879798 
L 231.956488 136.52407 
L 261.013512 134.982583 
L 290.070537 131.217796 
L 319.127562 126.415469 
L 348.184587 114.350365 
L 377.241612 97.512578 
L 406.298636 76.494989 
" style="fill:none;stroke:#011f5b;stroke-linecap:square;stroke-width:1.5;"/>
   </g>
   <g id="line2d_13">
    <path clip-path="url(#p76c65b4f27)" d="M 86.671364 107.44691 
L 115.728388 117.628651 
L 144.785413 127.810393 
L 173.842438 131.639678 
L 202.899463 135.261172 
L 231.956488 134.756537 
L 261.013512 133.272318 
L 290.070537 127.869762 
L 319.127562 119.172239 
L 348.184587 104.092575 
L 377.241612 80.879391 
L 406.298636 60.040958 
" style="fill:none;stroke:#990000;stroke-linecap:square;stroke-width:1.5;"/>
   </g>
   <g id="patch_3">
    <path d="M 70.69 213.746667 
L 70.69 39.44 
" style="fill:none;stroke:#000000;stroke-linecap:square;stroke-linejoin:miter;stroke-width:0.8;"/>
   </g>
   <g id="patch_4">
    <path d="M 70.69 213.746667 
L 422.28 213.746667 
" style="fill:none;stroke:#000000;stroke-linecap:square;stroke-linejoin:miter;stroke-width:0.8;"/>
   </g>
   <g id="text_14">
    <!-- Data -->
    <g transform="translate(224.996094 33.44)scale(0.18 -0.18)">
     <defs>
      <path d="M 19.671875 64.796875 
L 19.671875 8.109375 
L 31.59375 8.109375 
Q 46.6875 8.109375 53.6875 14.9375 
Q 60.6875 21.78125 60.6875 36.53125 
Q 60.6875 51.171875 53.6875 57.984375 
Q 46.6875 64.796875 31.59375 64.796875 
z
M 9.8125 72.90625 
L 30.078125 72.90625 
Q 51.265625 72.90625 61.171875 64.09375 
Q 71.09375 55.28125 71.09375 36.53125 
Q 71.09375 17.671875 61.125 8.828125 
Q 51.171875 0 30.078125 0 
L 9.8125 0 
z
" id="DejaVuSans-68"/>
     </defs>
     <use xlink:href="#DejaVuSans-68"/>
     <use x="77.001953" xlink:href="#DejaVuSans-97"/>
     <use x="138.28125" xlink:href="#DejaVuSans-116"/>
     <use x="177.490234" xlink:href="#DejaVuSans-97"/>
    </g>
   </g>
   <g id="legend_1">
    <g id="patch_5">
     <path d="M 79.09 84.2675 
L 168.338125 84.2675 
Q 170.738125 84.2675 170.738125 81.8675 
L 170.738125 47.84 
Q 170.738125 45.44 168.338125 45.44 
L 79.09 45.44 
Q 76.69 45.44 76.69 47.84 
L 76.69 81.8675 
Q 76.69 84.2675 79.09 84.2675 
z
" style="fill:#ffffff;opacity:0.8;stroke:#cccccc;stroke-linejoin:miter;"/>
    </g>
    <g id="line2d_14">
     <path d="M 81.49 55.158125 
L 105.49 55.158125 
" style="fill:none;stroke:#011f5b;stroke-linecap:square;stroke-width:1.5;"/>
    </g>
    <g id="line2d_15"/>
    <g id="text_15">
     <!-- Visual -->
     <g transform="translate(115.09 59.358125)scale(0.12 -0.12)">
      <defs>
       <path d="M 28.609375 0 
L 0.78125 72.90625 
L 11.078125 72.90625 
L 34.1875 11.53125 
L 57.328125 72.90625 
L 67.578125 72.90625 
L 39.796875 0 
z
" id="DejaVuSans-86"/>
       <path d="M 8.5 21.578125 
L 8.5 54.6875 
L 17.484375 54.6875 
L 17.484375 21.921875 
Q 17.484375 14.15625 20.5 10.265625 
Q 23.53125 6.390625 29.59375 6.390625 
Q 36.859375 6.390625 41.078125 11.03125 
Q 45.3125 15.671875 45.3125 23.6875 
L 45.3125 54.6875 
L 54.296875 54.6875 
L 54.296875 0 
L 45.3125 0 
L 45.3125 8.40625 
Q 42.046875 3.421875 37.71875 1 
Q 33.40625 -1.421875 27.6875 -1.421875 
Q 18.265625 -1.421875 13.375 4.4375 
Q 8.5 10.296875 8.5 21.578125 
z
M 31.109375 56 
z
" id="DejaVuSans-117"/>
      </defs>
      <use xlink:href="#DejaVuSans-86"/>
      <use x="66.158203" xlink:href="#DejaVuSans-105"/>
      <use x="93.941406" xlink:href="#DejaVuSans-115"/>
      <use x="146.041016" xlink:href="#DejaVuSans-117"/>
      <use x="209.419922" xlink:href="#DejaVuSans-97"/>
      <use x="270.699219" xlink:href="#DejaVuSans-108"/>
     </g>
    </g>
    <g id="line2d_16">
     <path d="M 81.49 72.771875 
L 105.49 72.771875 
" style="fill:none;stroke:#990000;stroke-linecap:square;stroke-width:1.5;"/>
    </g>
    <g id="line2d_17"/>
    <g id="text_16">
     <!-- Auditory -->
     <g transform="translate(115.09 76.971875)scale(0.12 -0.12)">
      <defs>
       <path d="M 34.1875 63.1875 
L 20.796875 26.90625 
L 47.609375 26.90625 
z
M 28.609375 72.90625 
L 39.796875 72.90625 
L 67.578125 0 
L 57.328125 0 
L 50.6875 18.703125 
L 17.828125 18.703125 
L 11.1875 0 
L 0.78125 0 
z
" id="DejaVuSans-65"/>
       <path d="M 45.40625 46.390625 
L 45.40625 75.984375 
L 54.390625 75.984375 
L 54.390625 0 
L 45.40625 0 
L 45.40625 8.203125 
Q 42.578125 3.328125 38.25 0.953125 
Q 33.9375 -1.421875 27.875 -1.421875 
Q 17.96875 -1.421875 11.734375 6.484375 
Q 5.515625 14.40625 5.515625 27.296875 
Q 5.515625 40.1875 11.734375 48.09375 
Q 17.96875 56 27.875 56 
Q 33.9375 56 38.25 53.625 
Q 42.578125 51.265625 45.40625 46.390625 
z
M 14.796875 27.296875 
Q 14.796875 17.390625 18.875 11.75 
Q 22.953125 6.109375 30.078125 6.109375 
Q 37.203125 6.109375 41.296875 11.75 
Q 45.40625 17.390625 45.40625 27.296875 
Q 45.40625 37.203125 41.296875 42.84375 
Q 37.203125 48.484375 30.078125 48.484375 
Q 22.953125 48.484375 18.875 42.84375 
Q 14.796875 37.203125 14.796875 27.296875 
z
" id="DejaVuSans-100"/>
       <path d="M 32.171875 -5.078125 
Q 28.375 -14.84375 24.75 -17.8125 
Q 21.140625 -20.796875 15.09375 -20.796875 
L 7.90625 -20.796875 
L 7.90625 -13.28125 
L 13.1875 -13.28125 
Q 16.890625 -13.28125 18.9375 -11.515625 
Q 21 -9.765625 23.484375 -3.21875 
L 25.09375 0.875 
L 2.984375 54.6875 
L 12.5 54.6875 
L 29.59375 11.921875 
L 46.6875 54.6875 
L 56.203125 54.6875 
z
" id="DejaVuSans-121"/>
      </defs>
      <use xlink:href="#DejaVuSans-65"/>
      <use x="68.408203" xlink:href="#DejaVuSans-117"/>
      <use x="131.787109" xlink:href="#DejaVuSans-100"/>
      <use x="195.263672" xlink:href="#DejaVuSans-105"/>
      <use x="223.046875" xlink:href="#DejaVuSans-116"/>
      <use x="262.255859" xlink:href="#DejaVuSans-111"/>
      <use x="323.4375" xlink:href="#DejaVuSans-114"/>
      <use x="364.550781" xlink:href="#DejaVuSans-121"/>
     </g>
    </g>
   </g>
  </g>
  <g id="axes_2">
   <g id="patch_6">
    <path d="M 492.97 213.746667 
L 844.56 213.746667 
L 844.56 39.44 
L 492.97 39.44 
z
" style="fill:#ffffff;"/>
   </g>
   <g id="PolyCollection_3">
    <defs>
     <path d="M 508.951364 -623.434389 
L 508.951364 -623.893852 
L 538.008388 -613.161267 
L 567.065413 -599.351534 
L 596.122438 -587.684927 
L 625.179463 -581.154516 
L 654.236488 -578.135031 
L 683.293512 -582.621187 
L 712.350537 -589.644145 
L 741.407562 -599.604019 
L 770.464587 -614.119184 
L 799.521612 -628.469259 
L 828.578636 -642.421652 
L 828.578636 -642.001634 
L 828.578636 -642.001634 
L 799.521612 -627.986648 
L 770.464587 -613.615873 
L 741.407562 -599.10168 
L 712.350537 -589.147996 
L 683.293512 -582.122003 
L 654.236488 -577.631781 
L 625.179463 -580.66082 
L 596.122438 -587.191544 
L 567.065413 -598.846908 
L 538.008388 -612.681215 
L 508.951364 -623.434389 
z
" id="mfb5d867767" style="stroke:#011f5b;stroke-opacity:0.3;"/>
    </defs>
    <g clip-path="url(#p6994914be4)">
     <use style="fill:#011f5b;fill-opacity:0.3;stroke:#011f5b;stroke-opacity:0.3;" x="0" xlink:href="#mfb5d867767" y="720"/>
    </g>
   </g>
   <g id="PolyCollection_4">
    <defs>
     <path d="M 508.951364 -612.486492 
L 508.951364 -612.970356 
L 538.008388 -605.475351 
L 567.065413 -594.200371 
L 596.122438 -583.886135 
L 625.179463 -577.95492 
L 654.236488 -575.458423 
L 683.293512 -582.410031 
L 712.350537 -592.508111 
L 741.407562 -607.136639 
L 770.464587 -626.86776 
L 799.521612 -645.72534 
L 828.578636 -661.929175 
L 828.578636 -661.61522 
L 828.578636 -661.61522 
L 799.521612 -645.313057 
L 770.464587 -626.393316 
L 741.407562 -606.638459 
L 712.350537 -592.012182 
L 683.293512 -581.911928 
L 654.236488 -574.962906 
L 625.179463 -577.464821 
L 596.122438 -583.393342 
L 567.065413 -593.701638 
L 538.008388 -604.992192 
L 508.951364 -612.486492 
z
" id="m0e49766c1b" style="stroke:#990000;stroke-opacity:0.3;"/>
    </defs>
    <g clip-path="url(#p6994914be4)">
     <use style="fill:#990000;fill-opacity:0.3;stroke:#990000;stroke-opacity:0.3;" x="0" xlink:href="#m0e49766c1b" y="720"/>
    </g>
   </g>
   <g id="matplotlib.axis_3">
    <g id="xtick_6">
     <g id="line2d_18">
      <g>
       <use style="stroke:#000000;stroke-width:0.8;" x="508.951364" xlink:href="#m3eb472a1d9" y="213.746667"/>
      </g>
     </g>
     <g id="text_17">
      <!-- 1 -->
      <g transform="translate(504.497614 231.384479)scale(0.14 -0.14)">
       <use xlink:href="#DejaVuSans-49"/>
      </g>
     </g>
    </g>
    <g id="xtick_7">
     <g id="line2d_19">
      <g>
       <use style="stroke:#000000;stroke-width:0.8;" x="567.065413" xlink:href="#m3eb472a1d9" y="213.746667"/>
      </g>
     </g>
     <g id="text_18">
      <!-- 3 -->
      <g transform="translate(562.611663 231.384479)scale(0.14 -0.14)">
       <use xlink:href="#DejaVuSans-51"/>
      </g>
     </g>
    </g>
    <g id="xtick_8">
     <g id="line2d_20">
      <g>
       <use style="stroke:#000000;stroke-width:0.8;" x="654.236488" xlink:href="#m3eb472a1d9" y="213.746667"/>
      </g>
     </g>
     <g id="text_19">
      <!-- 6 -->
      <g transform="translate(649.782738 231.384479)scale(0.14 -0.14)">
       <use xlink:href="#DejaVuSans-54"/>
      </g>
     </g>
    </g>
    <g id="xtick_9">
     <g id="line2d_21">
      <g>
       <use style="stroke:#000000;stroke-width:0.8;" x="741.407562" xlink:href="#m3eb472a1d9" y="213.746667"/>
      </g>
     </g>
     <g id="text_20">
      <!-- 9 -->
      <g transform="translate(736.953812 231.384479)scale(0.14 -0.14)">
       <use xlink:href="#DejaVuSans-57"/>
      </g>
     </g>
    </g>
    <g id="xtick_10">
     <g id="line2d_22">
      <g>
       <use style="stroke:#000000;stroke-width:0.8;" x="828.578636" xlink:href="#m3eb472a1d9" y="213.746667"/>
      </g>
     </g>
     <g id="text_21">
      <!-- 12 -->
      <g transform="translate(819.671136 231.384479)scale(0.14 -0.14)">
       <use xlink:href="#DejaVuSans-49"/>
       <use x="63.623047" xlink:href="#DejaVuSans-50"/>
      </g>
     </g>
    </g>
    <g id="text_22">
     <!-- Serial Position -->
     <g transform="translate(605.402188 251.973229)scale(0.18 -0.18)">
      <use xlink:href="#DejaVuSans-83"/>
      <use x="63.476562" xlink:href="#DejaVuSans-101"/>
      <use x="125" xlink:href="#DejaVuSans-114"/>
      <use x="166.113281" xlink:href="#DejaVuSans-105"/>
      <use x="193.896484" xlink:href="#DejaVuSans-97"/>
      <use x="255.175781" xlink:href="#DejaVuSans-108"/>
      <use x="282.958984" xlink:href="#DejaVuSans-32"/>
      <use x="314.746094" xlink:href="#DejaVuSans-80"/>
      <use x="371.423828" xlink:href="#DejaVuSans-111"/>
      <use x="432.605469" xlink:href="#DejaVuSans-115"/>
      <use x="484.705078" xlink:href="#DejaVuSans-105"/>
      <use x="512.488281" xlink:href="#DejaVuSans-116"/>
      <use x="551.697266" xlink:href="#DejaVuSans-105"/>
      <use x="579.480469" xlink:href="#DejaVuSans-111"/>
      <use x="640.662109" xlink:href="#DejaVuSans-110"/>
     </g>
    </g>
   </g>
   <g id="matplotlib.axis_4">
    <g id="ytick_7">
     <g id="line2d_23">
      <g>
       <use style="stroke:#000000;stroke-width:0.8;" x="492.97" xlink:href="#m40440367d8" y="213.746667"/>
      </g>
     </g>
     <g id="text_23">
      <!-- 0.0 -->
      <g transform="translate(463.705625 219.065573)scale(0.14 -0.14)">
       <use xlink:href="#DejaVuSans-48"/>
       <use x="63.623047" xlink:href="#DejaVuSans-46"/>
       <use x="95.410156" xlink:href="#DejaVuSans-48"/>
      </g>
     </g>
    </g>
    <g id="ytick_8">
     <g id="line2d_24">
      <g>
       <use style="stroke:#000000;stroke-width:0.8;" x="492.97" xlink:href="#m40440367d8" y="178.885333"/>
      </g>
     </g>
     <g id="text_24">
      <!-- 0.2 -->
      <g transform="translate(463.705625 184.20424)scale(0.14 -0.14)">
       <use xlink:href="#DejaVuSans-48"/>
       <use x="63.623047" xlink:href="#DejaVuSans-46"/>
       <use x="95.410156" xlink:href="#DejaVuSans-50"/>
      </g>
     </g>
    </g>
    <g id="ytick_9">
     <g id="line2d_25">
      <g>
       <use style="stroke:#000000;stroke-width:0.8;" x="492.97" xlink:href="#m40440367d8" y="144.024"/>
      </g>
     </g>
     <g id="text_25">
      <!-- 0.4 -->
      <g transform="translate(463.705625 149.342906)scale(0.14 -0.14)">
       <use xlink:href="#DejaVuSans-48"/>
       <use x="63.623047" xlink:href="#DejaVuSans-46"/>
       <use x="95.410156" xlink:href="#DejaVuSans-52"/>
      </g>
     </g>
    </g>
    <g id="ytick_10">
     <g id="line2d_26">
      <g>
       <use style="stroke:#000000;stroke-width:0.8;" x="492.97" xlink:href="#m40440367d8" y="109.162667"/>
      </g>
     </g>
     <g id="text_26">
      <!-- 0.6 -->
      <g transform="translate(463.705625 114.481573)scale(0.14 -0.14)">
       <use xlink:href="#DejaVuSans-48"/>
       <use x="63.623047" xlink:href="#DejaVuSans-46"/>
       <use x="95.410156" xlink:href="#DejaVuSans-54"/>
      </g>
     </g>
    </g>
    <g id="ytick_11">
     <g id="line2d_27">
      <g>
       <use style="stroke:#000000;stroke-width:0.8;" x="492.97" xlink:href="#m40440367d8" y="74.301333"/>
      </g>
     </g>
     <g id="text_27">
      <!-- 0.8 -->
      <g transform="translate(463.705625 79.62024)scale(0.14 -0.14)">
       <use xlink:href="#DejaVuSans-48"/>
       <use x="63.623047" xlink:href="#DejaVuSans-46"/>
       <use x="95.410156" xlink:href="#DejaVuSans-56"/>
      </g>
     </g>
    </g>
    <g id="ytick_12">
     <g id="line2d_28">
      <g>
       <use style="stroke:#000000;stroke-width:0.8;" x="492.97" xlink:href="#m40440367d8" y="39.44"/>
      </g>
     </g>
     <g id="text_28">
      <!-- 1.0 -->
      <g transform="translate(463.705625 44.758906)scale(0.14 -0.14)">
       <use xlink:href="#DejaVuSans-49"/>
       <use x="63.623047" xlink:href="#DejaVuSans-46"/>
       <use x="95.410156" xlink:href="#DejaVuSans-48"/>
      </g>
     </g>
    </g>
    <g id="text_29">
     <!-- Recall Prob. -->
     <g transform="translate(455.962188 179.151927)rotate(-90)scale(0.18 -0.18)">
      <use xlink:href="#DejaVuSans-82"/>
      <use x="64.982422" xlink:href="#DejaVuSans-101"/>
      <use x="126.505859" xlink:href="#DejaVuSans-99"/>
      <use x="181.486328" xlink:href="#DejaVuSans-97"/>
      <use x="242.765625" xlink:href="#DejaVuSans-108"/>
      <use x="270.548828" xlink:href="#DejaVuSans-108"/>
      <use x="298.332031" xlink:href="#DejaVuSans-32"/>
      <use x="330.119141" xlink:href="#DejaVuSans-80"/>
      <use x="388.671875" xlink:href="#DejaVuSans-114"/>
      <use x="427.535156" xlink:href="#DejaVuSans-111"/>
      <use x="488.716797" xlink:href="#DejaVuSans-98"/>
      <use x="552.193359" xlink:href="#DejaVuSans-46"/>
     </g>
    </g>
   </g>
   <g id="line2d_29">
    <path clip-path="url(#p6994914be4)" d="M 508.951364 96.335879 
L 538.008388 107.078759 
L 567.065413 120.900779 
L 596.122438 132.561764 
L 625.179463 139.092332 
L 654.236488 142.116594 
L 683.293512 137.628405 
L 712.350537 130.603929 
L 741.407562 120.64715 
L 770.464587 106.132472 
L 799.521612 91.772047 
L 828.578636 77.788357 
" style="fill:none;stroke:#011f5b;stroke-linecap:square;stroke-width:1.5;"/>
   </g>
   <g id="line2d_30">
    <path clip-path="url(#p6994914be4)" d="M 508.951364 107.271576 
L 538.008388 114.766229 
L 567.065413 126.048996 
L 596.122438 136.360262 
L 625.179463 142.290129 
L 654.236488 144.789336 
L 683.293512 137.83902 
L 712.350537 127.739854 
L 741.407562 113.112451 
L 770.464587 93.369462 
L 799.521612 74.480802 
L 828.578636 58.227802 
" style="fill:none;stroke:#990000;stroke-linecap:square;stroke-width:1.5;"/>
   </g>
   <g id="patch_7">
    <path d="M 492.97 213.746667 
L 492.97 39.44 
" style="fill:none;stroke:#000000;stroke-linecap:square;stroke-linejoin:miter;stroke-width:0.8;"/>
   </g>
   <g id="patch_8">
    <path d="M 492.97 213.746667 
L 844.56 213.746667 
" style="fill:none;stroke:#000000;stroke-linecap:square;stroke-linejoin:miter;stroke-width:0.8;"/>
   </g>
   <g id="text_30">
    <!-- Model -->
    <g transform="translate(641.741094 33.44)scale(0.18 -0.18)">
     <defs>
      <path d="M 9.8125 72.90625 
L 24.515625 72.90625 
L 43.109375 23.296875 
L 61.8125 72.90625 
L 76.515625 72.90625 
L 76.515625 0 
L 66.890625 0 
L 66.890625 64.015625 
L 48.09375 14.015625 
L 38.1875 14.015625 
L 19.390625 64.015625 
L 19.390625 0 
L 9.8125 0 
z
" id="DejaVuSans-77"/>
     </defs>
     <use xlink:href="#DejaVuSans-77"/>
     <use x="86.279297" xlink:href="#DejaVuSans-111"/>
     <use x="147.460938" xlink:href="#DejaVuSans-100"/>
     <use x="210.9375" xlink:href="#DejaVuSans-101"/>
     <use x="272.460938" xlink:href="#DejaVuSans-108"/>
    </g>
   </g>
   <g id="legend_2">
    <g id="patch_9">
     <path d="M 501.37 84.2675 
L 590.618125 84.2675 
Q 593.018125 84.2675 593.018125 81.8675 
L 593.018125 47.84 
Q 593.018125 45.44 590.618125 45.44 
L 501.37 45.44 
Q 498.97 45.44 498.97 47.84 
L 498.97 81.8675 
Q 498.97 84.2675 501.37 84.2675 
z
" style="fill:#ffffff;opacity:0.8;stroke:#cccccc;stroke-linejoin:miter;"/>
    </g>
    <g id="line2d_31">
     <path d="M 503.77 55.158125 
L 527.77 55.158125 
" style="fill:none;stroke:#011f5b;stroke-linecap:square;stroke-width:1.5;"/>
    </g>
    <g id="line2d_32"/>
    <g id="text_31">
     <!-- Visual -->
     <g transform="translate(537.37 59.358125)scale(0.12 -0.12)">
      <use xlink:href="#DejaVuSans-86"/>
      <use x="66.158203" xlink:href="#DejaVuSans-105"/>
      <use x="93.941406" xlink:href="#DejaVuSans-115"/>
      <use x="146.041016" xlink:href="#DejaVuSans-117"/>
      <use x="209.419922" xlink:href="#DejaVuSans-97"/>
      <use x="270.699219" xlink:href="#DejaVuSans-108"/>
     </g>
    </g>
    <g id="line2d_33">
     <path d="M 503.77 72.771875 
L 527.77 72.771875 
" style="fill:none;stroke:#990000;stroke-linecap:square;stroke-width:1.5;"/>
    </g>
    <g id="line2d_34"/>
    <g id="text_32">
     <!-- Auditory -->
     <g transform="translate(537.37 76.971875)scale(0.12 -0.12)">
      <use xlink:href="#DejaVuSans-65"/>
      <use x="68.408203" xlink:href="#DejaVuSans-117"/>
      <use x="131.787109" xlink:href="#DejaVuSans-100"/>
      <use x="195.263672" xlink:href="#DejaVuSans-105"/>
      <use x="223.046875" xlink:href="#DejaVuSans-116"/>
      <use x="262.255859" xlink:href="#DejaVuSans-111"/>
      <use x="323.4375" xlink:href="#DejaVuSans-114"/>
      <use x="364.550781" xlink:href="#DejaVuSans-121"/>
     </g>
    </g>
   </g>
  </g>
  <g id="axes_3">
   <g id="patch_10">
    <path d="M 70.69 435.653333 
L 422.28 435.653333 
L 422.28 261.346667 
L 70.69 261.346667 
z
" style="fill:#ffffff;"/>
   </g>
   <g id="PolyCollection_5">
    <defs>
     <path d="M 86.671364 -458.653333 
L 86.671364 -458.653333 
L 115.728388 -410.553348 
L 144.785413 -397.914548 
L 173.842438 -376.110297 
L 202.899463 -366.713109 
L 231.956488 -367.630141 
L 261.013512 -361.743703 
L 290.070537 -365.761944 
L 319.127562 -365.252862 
L 348.184587 -374.680843 
L 377.241612 -377.375979 
L 406.298636 -386.974096 
L 406.298636 -380.185335 
L 406.298636 -380.185335 
L 377.241612 -370.655351 
L 348.184587 -367.825465 
L 319.127562 -358.522658 
L 290.070537 -358.922284 
L 261.013512 -355.042439 
L 231.956488 -360.938715 
L 202.899463 -359.961622 
L 173.842438 -369.359145 
L 144.785413 -391.303665 
L 115.728388 -404.332909 
L 86.671364 -458.653333 
z
" id="mbab8633b4e" style="stroke:#011f5b;stroke-opacity:0.3;"/>
    </defs>
    <g clip-path="url(#pdef0aa2af1)">
     <use style="fill:#011f5b;fill-opacity:0.3;stroke:#011f5b;stroke-opacity:0.3;" x="0" xlink:href="#mbab8633b4e" y="720"/>
    </g>
   </g>
   <g id="PolyCollection_6">
    <defs>
     <path d="M 86.671364 -458.653333 
L 86.671364 -458.653333 
L 115.728388 -407.712484 
L 144.785413 -387.000966 
L 173.842438 -381.886164 
L 202.899463 -376.600749 
L 231.956488 -369.243409 
L 261.013512 -369.505783 
L 290.070537 -373.071309 
L 319.127562 -376.629225 
L 348.184587 -385.101529 
L 377.241612 -397.057344 
L 406.298636 -422.855506 
L 406.298636 -416.578383 
L 406.298636 -416.578383 
L 377.241612 -389.740738 
L 348.184587 -377.815895 
L 319.127562 -369.103426 
L 290.070537 -365.606073 
L 261.013512 -362.115216 
L 231.956488 -361.679963 
L 202.899463 -369.098523 
L 173.842438 -374.417709 
L 144.785413 -379.41572 
L 115.728388 -400.71093 
L 86.671364 -458.653333 
z
" id="m501fc82a42" style="stroke:#990000;stroke-opacity:0.3;"/>
    </defs>
    <g clip-path="url(#pdef0aa2af1)">
     <use style="fill:#990000;fill-opacity:0.3;stroke:#990000;stroke-opacity:0.3;" x="0" xlink:href="#m501fc82a42" y="720"/>
    </g>
   </g>
   <g id="matplotlib.axis_5">
    <g id="xtick_11">
     <g id="line2d_35">
      <g>
       <use style="stroke:#000000;stroke-width:0.8;" x="86.671364" xlink:href="#m3eb472a1d9" y="435.653333"/>
      </g>
     </g>
     <g id="text_33">
      <!-- 1 -->
      <g transform="translate(82.217614 453.291146)scale(0.14 -0.14)">
       <use xlink:href="#DejaVuSans-49"/>
      </g>
     </g>
    </g>
    <g id="xtick_12">
     <g id="line2d_36">
      <g>
       <use style="stroke:#000000;stroke-width:0.8;" x="144.785413" xlink:href="#m3eb472a1d9" y="435.653333"/>
      </g>
     </g>
     <g id="text_34">
      <!-- 3 -->
      <g transform="translate(140.331663 453.291146)scale(0.14 -0.14)">
       <use xlink:href="#DejaVuSans-51"/>
      </g>
     </g>
    </g>
    <g id="xtick_13">
     <g id="line2d_37">
      <g>
       <use style="stroke:#000000;stroke-width:0.8;" x="231.956488" xlink:href="#m3eb472a1d9" y="435.653333"/>
      </g>
     </g>
     <g id="text_35">
      <!-- 6 -->
      <g transform="translate(227.502738 453.291146)scale(0.14 -0.14)">
       <use xlink:href="#DejaVuSans-54"/>
      </g>
     </g>
    </g>
    <g id="xtick_14">
     <g id="line2d_38">
      <g>
       <use style="stroke:#000000;stroke-width:0.8;" x="319.127562" xlink:href="#m3eb472a1d9" y="435.653333"/>
      </g>
     </g>
     <g id="text_36">
      <!-- 9 -->
      <g transform="translate(314.673812 453.291146)scale(0.14 -0.14)">
       <use xlink:href="#DejaVuSans-57"/>
      </g>
     </g>
    </g>
    <g id="xtick_15">
     <g id="line2d_39">
      <g>
       <use style="stroke:#000000;stroke-width:0.8;" x="406.298636" xlink:href="#m3eb472a1d9" y="435.653333"/>
      </g>
     </g>
     <g id="text_37">
      <!-- 12 -->
      <g transform="translate(397.391136 453.291146)scale(0.14 -0.14)">
       <use xlink:href="#DejaVuSans-49"/>
       <use x="63.623047" xlink:href="#DejaVuSans-50"/>
      </g>
     </g>
    </g>
    <g id="text_38">
     <!-- Serial Position -->
     <g transform="translate(183.122188 473.879896)scale(0.18 -0.18)">
      <use xlink:href="#DejaVuSans-83"/>
      <use x="63.476562" xlink:href="#DejaVuSans-101"/>
      <use x="125" xlink:href="#DejaVuSans-114"/>
      <use x="166.113281" xlink:href="#DejaVuSans-105"/>
      <use x="193.896484" xlink:href="#DejaVuSans-97"/>
      <use x="255.175781" xlink:href="#DejaVuSans-108"/>
      <use x="282.958984" xlink:href="#DejaVuSans-32"/>
      <use x="314.746094" xlink:href="#DejaVuSans-80"/>
      <use x="371.423828" xlink:href="#DejaVuSans-111"/>
      <use x="432.605469" xlink:href="#DejaVuSans-115"/>
      <use x="484.705078" xlink:href="#DejaVuSans-105"/>
      <use x="512.488281" xlink:href="#DejaVuSans-116"/>
      <use x="551.697266" xlink:href="#DejaVuSans-105"/>
      <use x="579.480469" xlink:href="#DejaVuSans-111"/>
      <use x="640.662109" xlink:href="#DejaVuSans-110"/>
     </g>
    </g>
   </g>
   <g id="matplotlib.axis_6">
    <g id="ytick_13">
     <g id="line2d_40">
      <g>
       <use style="stroke:#000000;stroke-width:0.8;" x="70.69" xlink:href="#m40440367d8" y="435.653333"/>
      </g>
     </g>
     <g id="text_39">
      <!-- 0.0 -->
      <g transform="translate(41.425625 440.97224)scale(0.14 -0.14)">
       <use xlink:href="#DejaVuSans-48"/>
       <use x="63.623047" xlink:href="#DejaVuSans-46"/>
       <use x="95.410156" xlink:href="#DejaVuSans-48"/>
      </g>
     </g>
    </g>
    <g id="ytick_14">
     <g id="line2d_41">
      <g>
       <use style="stroke:#000000;stroke-width:0.8;" x="70.69" xlink:href="#m40440367d8" y="400.792"/>
      </g>
     </g>
     <g id="text_40">
      <!-- 0.2 -->
      <g transform="translate(41.425625 406.110906)scale(0.14 -0.14)">
       <use xlink:href="#DejaVuSans-48"/>
       <use x="63.623047" xlink:href="#DejaVuSans-46"/>
       <use x="95.410156" xlink:href="#DejaVuSans-50"/>
      </g>
     </g>
    </g>
    <g id="ytick_15">
     <g id="line2d_42">
      <g>
       <use style="stroke:#000000;stroke-width:0.8;" x="70.69" xlink:href="#m40440367d8" y="365.930667"/>
      </g>
     </g>
     <g id="text_41">
      <!-- 0.4 -->
      <g transform="translate(41.425625 371.249573)scale(0.14 -0.14)">
       <use xlink:href="#DejaVuSans-48"/>
       <use x="63.623047" xlink:href="#DejaVuSans-46"/>
       <use x="95.410156" xlink:href="#DejaVuSans-52"/>
      </g>
     </g>
    </g>
    <g id="ytick_16">
     <g id="line2d_43">
      <g>
       <use style="stroke:#000000;stroke-width:0.8;" x="70.69" xlink:href="#m40440367d8" y="331.069333"/>
      </g>
     </g>
     <g id="text_42">
      <!-- 0.6 -->
      <g transform="translate(41.425625 336.38824)scale(0.14 -0.14)">
       <use xlink:href="#DejaVuSans-48"/>
       <use x="63.623047" xlink:href="#DejaVuSans-46"/>
       <use x="95.410156" xlink:href="#DejaVuSans-54"/>
      </g>
     </g>
    </g>
    <g id="ytick_17">
     <g id="line2d_44">
      <g>
       <use style="stroke:#000000;stroke-width:0.8;" x="70.69" xlink:href="#m40440367d8" y="296.208"/>
      </g>
     </g>
     <g id="text_43">
      <!-- 0.8 -->
      <g transform="translate(41.425625 301.526906)scale(0.14 -0.14)">
       <use xlink:href="#DejaVuSans-48"/>
       <use x="63.623047" xlink:href="#DejaVuSans-46"/>
       <use x="95.410156" xlink:href="#DejaVuSans-56"/>
      </g>
     </g>
    </g>
    <g id="ytick_18">
     <g id="line2d_45">
      <g>
       <use style="stroke:#000000;stroke-width:0.8;" x="70.69" xlink:href="#m40440367d8" y="261.346667"/>
      </g>
     </g>
     <g id="text_44">
      <!-- 1.0 -->
      <g transform="translate(41.425625 266.665573)scale(0.14 -0.14)">
       <use xlink:href="#DejaVuSans-49"/>
       <use x="63.623047" xlink:href="#DejaVuSans-46"/>
       <use x="95.410156" xlink:href="#DejaVuSans-48"/>
      </g>
     </g>
    </g>
    <g id="text_45">
     <!-- Recall Prob. (SP1) -->
     <g transform="translate(33.682188 427.808281)rotate(-90)scale(0.18 -0.18)">
      <defs>
       <path d="M 31 75.875 
Q 24.46875 64.65625 21.28125 53.65625 
Q 18.109375 42.671875 18.109375 31.390625 
Q 18.109375 20.125 21.3125 9.0625 
Q 24.515625 -2 31 -13.1875 
L 23.1875 -13.1875 
Q 15.875 -1.703125 12.234375 9.375 
Q 8.59375 20.453125 8.59375 31.390625 
Q 8.59375 42.28125 12.203125 53.3125 
Q 15.828125 64.359375 23.1875 75.875 
z
" id="DejaVuSans-40"/>
       <path d="M 8.015625 75.875 
L 15.828125 75.875 
Q 23.140625 64.359375 26.78125 53.3125 
Q 30.421875 42.28125 30.421875 31.390625 
Q 30.421875 20.453125 26.78125 9.375 
Q 23.140625 -1.703125 15.828125 -13.1875 
L 8.015625 -13.1875 
Q 14.5 -2 17.703125 9.0625 
Q 20.90625 20.125 20.90625 31.390625 
Q 20.90625 42.671875 17.703125 53.65625 
Q 14.5 64.65625 8.015625 75.875 
z
" id="DejaVuSans-41"/>
      </defs>
      <use xlink:href="#DejaVuSans-82"/>
      <use x="64.982422" xlink:href="#DejaVuSans-101"/>
      <use x="126.505859" xlink:href="#DejaVuSans-99"/>
      <use x="181.486328" xlink:href="#DejaVuSans-97"/>
      <use x="242.765625" xlink:href="#DejaVuSans-108"/>
      <use x="270.548828" xlink:href="#DejaVuSans-108"/>
      <use x="298.332031" xlink:href="#DejaVuSans-32"/>
      <use x="330.119141" xlink:href="#DejaVuSans-80"/>
      <use x="388.671875" xlink:href="#DejaVuSans-114"/>
      <use x="427.535156" xlink:href="#DejaVuSans-111"/>
      <use x="488.716797" xlink:href="#DejaVuSans-98"/>
      <use x="552.193359" xlink:href="#DejaVuSans-46"/>
      <use x="583.980469" xlink:href="#DejaVuSans-32"/>
      <use x="615.767578" xlink:href="#DejaVuSans-40"/>
      <use x="654.78125" xlink:href="#DejaVuSans-83"/>
      <use x="718.257812" xlink:href="#DejaVuSans-80"/>
      <use x="778.560547" xlink:href="#DejaVuSans-49"/>
      <use x="842.183594" xlink:href="#DejaVuSans-41"/>
     </g>
    </g>
   </g>
   <g id="line2d_46">
    <path clip-path="url(#pdef0aa2af1)" d="M 86.671364 261.346667 
L 115.728388 312.556872 
L 144.785413 325.390893 
L 173.842438 347.265279 
L 202.899463 356.662634 
L 231.956488 355.715572 
L 261.013512 361.606929 
L 290.070537 357.657886 
L 319.127562 358.11224 
L 348.184587 348.746846 
L 377.241612 345.984335 
L 406.298636 336.420284 
" style="fill:none;stroke:#011f5b;stroke-linecap:square;stroke-width:1.5;"/>
   </g>
   <g id="line2d_47">
    <path clip-path="url(#pdef0aa2af1)" d="M 86.671364 261.346667 
L 115.728388 315.788293 
L 144.785413 336.791657 
L 173.842438 341.848063 
L 202.899463 347.150364 
L 231.956488 354.538314 
L 261.013512 354.1895 
L 290.070537 350.661309 
L 319.127562 347.133674 
L 348.184587 338.541288 
L 377.241612 326.600959 
L 406.298636 300.283055 
" style="fill:none;stroke:#990000;stroke-linecap:square;stroke-width:1.5;"/>
   </g>
   <g id="patch_11">
    <path d="M 70.69 435.653333 
L 70.69 261.346667 
" style="fill:none;stroke:#000000;stroke-linecap:square;stroke-linejoin:miter;stroke-width:0.8;"/>
   </g>
   <g id="patch_12">
    <path d="M 70.69 435.653333 
L 422.28 435.653333 
" style="fill:none;stroke:#000000;stroke-linecap:square;stroke-linejoin:miter;stroke-width:0.8;"/>
   </g>
  </g>
  <g id="axes_4">
   <g id="patch_13">
    <path d="M 492.97 435.653333 
L 844.56 435.653333 
L 844.56 261.346667 
L 492.97 261.346667 
z
" style="fill:#ffffff;"/>
   </g>
   <g id="PolyCollection_7">
    <defs>
     <path d="M 508.951364 -458.653333 
L 508.951364 -458.653333 
L 538.008388 -417.711128 
L 567.065413 -396.073469 
L 596.122438 -380.177833 
L 625.179463 -368.088569 
L 654.236488 -363.303544 
L 683.293512 -363.484147 
L 712.350537 -368.992902 
L 741.407562 -372.104871 
L 770.464587 -384.375117 
L 799.521612 -391.930757 
L 828.578636 -399.746191 
L 828.578636 -398.634469 
L 828.578636 -398.634469 
L 799.521612 -390.766916 
L 770.464587 -383.209251 
L 741.407562 -370.937553 
L 712.350537 -367.809882 
L 683.293512 -362.310873 
L 654.236488 -362.137694 
L 625.179463 -366.919018 
L 596.122438 -379.000938 
L 567.065413 -394.93383 
L 538.008388 -416.696728 
L 508.951364 -458.653333 
z
" id="m7391af2735" style="stroke:#011f5b;stroke-opacity:0.3;"/>
    </defs>
    <g clip-path="url(#p1502b1a4b9)">
     <use style="fill:#011f5b;fill-opacity:0.3;stroke:#011f5b;stroke-opacity:0.3;" x="0" xlink:href="#m7391af2735" y="720"/>
    </g>
   </g>
   <g id="PolyCollection_8">
    <defs>
     <path d="M 508.951364 -458.653333 
L 508.951364 -458.653333 
L 538.008388 -419.290051 
L 567.065413 -401.350136 
L 596.122438 -383.936776 
L 625.179463 -369.985121 
L 654.236488 -365.971963 
L 683.293512 -366.040601 
L 712.350537 -374.897687 
L 741.407562 -379.226864 
L 770.464587 -394.201423 
L 799.521612 -405.539902 
L 828.578636 -416.012075 
L 828.578636 -414.602699 
L 828.578636 -414.602699 
L 799.521612 -404.048018 
L 770.464587 -392.63498 
L 741.407562 -377.615395 
L 712.350537 -373.280382 
L 683.293512 -364.439031 
L 654.236488 -364.350986 
L 625.179463 -368.364572 
L 596.122438 -382.314571 
L 567.065413 -399.818535 
L 538.008388 -417.925375 
L 508.951364 -458.653333 
z
" id="m1cf8d8d74d" style="stroke:#990000;stroke-opacity:0.3;"/>
    </defs>
    <g clip-path="url(#p1502b1a4b9)">
     <use style="fill:#990000;fill-opacity:0.3;stroke:#990000;stroke-opacity:0.3;" x="0" xlink:href="#m1cf8d8d74d" y="720"/>
    </g>
   </g>
   <g id="matplotlib.axis_7">
    <g id="xtick_16">
     <g id="line2d_48">
      <g>
       <use style="stroke:#000000;stroke-width:0.8;" x="508.951364" xlink:href="#m3eb472a1d9" y="435.653333"/>
      </g>
     </g>
     <g id="text_46">
      <!-- 1 -->
      <g transform="translate(504.497614 453.291146)scale(0.14 -0.14)">
       <use xlink:href="#DejaVuSans-49"/>
      </g>
     </g>
    </g>
    <g id="xtick_17">
     <g id="line2d_49">
      <g>
       <use style="stroke:#000000;stroke-width:0.8;" x="567.065413" xlink:href="#m3eb472a1d9" y="435.653333"/>
      </g>
     </g>
     <g id="text_47">
      <!-- 3 -->
      <g transform="translate(562.611663 453.291146)scale(0.14 -0.14)">
       <use xlink:href="#DejaVuSans-51"/>
      </g>
     </g>
    </g>
    <g id="xtick_18">
     <g id="line2d_50">
      <g>
       <use style="stroke:#000000;stroke-width:0.8;" x="654.236488" xlink:href="#m3eb472a1d9" y="435.653333"/>
      </g>
     </g>
     <g id="text_48">
      <!-- 6 -->
      <g transform="translate(649.782738 453.291146)scale(0.14 -0.14)">
       <use xlink:href="#DejaVuSans-54"/>
      </g>
     </g>
    </g>
    <g id="xtick_19">
     <g id="line2d_51">
      <g>
       <use style="stroke:#000000;stroke-width:0.8;" x="741.407562" xlink:href="#m3eb472a1d9" y="435.653333"/>
      </g>
     </g>
     <g id="text_49">
      <!-- 9 -->
      <g transform="translate(736.953812 453.291146)scale(0.14 -0.14)">
       <use xlink:href="#DejaVuSans-57"/>
      </g>
     </g>
    </g>
    <g id="xtick_20">
     <g id="line2d_52">
      <g>
       <use style="stroke:#000000;stroke-width:0.8;" x="828.578636" xlink:href="#m3eb472a1d9" y="435.653333"/>
      </g>
     </g>
     <g id="text_50">
      <!-- 12 -->
      <g transform="translate(819.671136 453.291146)scale(0.14 -0.14)">
       <use xlink:href="#DejaVuSans-49"/>
       <use x="63.623047" xlink:href="#DejaVuSans-50"/>
      </g>
     </g>
    </g>
    <g id="text_51">
     <!-- Serial Position -->
     <g transform="translate(605.402188 473.879896)scale(0.18 -0.18)">
      <use xlink:href="#DejaVuSans-83"/>
      <use x="63.476562" xlink:href="#DejaVuSans-101"/>
      <use x="125" xlink:href="#DejaVuSans-114"/>
      <use x="166.113281" xlink:href="#DejaVuSans-105"/>
      <use x="193.896484" xlink:href="#DejaVuSans-97"/>
      <use x="255.175781" xlink:href="#DejaVuSans-108"/>
      <use x="282.958984" xlink:href="#DejaVuSans-32"/>
      <use x="314.746094" xlink:href="#DejaVuSans-80"/>
      <use x="371.423828" xlink:href="#DejaVuSans-111"/>
      <use x="432.605469" xlink:href="#DejaVuSans-115"/>
      <use x="484.705078" xlink:href="#DejaVuSans-105"/>
      <use x="512.488281" xlink:href="#DejaVuSans-116"/>
      <use x="551.697266" xlink:href="#DejaVuSans-105"/>
      <use x="579.480469" xlink:href="#DejaVuSans-111"/>
      <use x="640.662109" xlink:href="#DejaVuSans-110"/>
     </g>
    </g>
   </g>
   <g id="matplotlib.axis_8">
    <g id="ytick_19">
     <g id="line2d_53">
      <g>
       <use style="stroke:#000000;stroke-width:0.8;" x="492.97" xlink:href="#m40440367d8" y="435.653333"/>
      </g>
     </g>
     <g id="text_52">
      <!-- 0.0 -->
      <g transform="translate(463.705625 440.97224)scale(0.14 -0.14)">
       <use xlink:href="#DejaVuSans-48"/>
       <use x="63.623047" xlink:href="#DejaVuSans-46"/>
       <use x="95.410156" xlink:href="#DejaVuSans-48"/>
      </g>
     </g>
    </g>
    <g id="ytick_20">
     <g id="line2d_54">
      <g>
       <use style="stroke:#000000;stroke-width:0.8;" x="492.97" xlink:href="#m40440367d8" y="400.792"/>
      </g>
     </g>
     <g id="text_53">
      <!-- 0.2 -->
      <g transform="translate(463.705625 406.110906)scale(0.14 -0.14)">
       <use xlink:href="#DejaVuSans-48"/>
       <use x="63.623047" xlink:href="#DejaVuSans-46"/>
       <use x="95.410156" xlink:href="#DejaVuSans-50"/>
      </g>
     </g>
    </g>
    <g id="ytick_21">
     <g id="line2d_55">
      <g>
       <use style="stroke:#000000;stroke-width:0.8;" x="492.97" xlink:href="#m40440367d8" y="365.930667"/>
      </g>
     </g>
     <g id="text_54">
      <!-- 0.4 -->
      <g transform="translate(463.705625 371.249573)scale(0.14 -0.14)">
       <use xlink:href="#DejaVuSans-48"/>
       <use x="63.623047" xlink:href="#DejaVuSans-46"/>
       <use x="95.410156" xlink:href="#DejaVuSans-52"/>
      </g>
     </g>
    </g>
    <g id="ytick_22">
     <g id="line2d_56">
      <g>
       <use style="stroke:#000000;stroke-width:0.8;" x="492.97" xlink:href="#m40440367d8" y="331.069333"/>
      </g>
     </g>
     <g id="text_55">
      <!-- 0.6 -->
      <g transform="translate(463.705625 336.38824)scale(0.14 -0.14)">
       <use xlink:href="#DejaVuSans-48"/>
       <use x="63.623047" xlink:href="#DejaVuSans-46"/>
       <use x="95.410156" xlink:href="#DejaVuSans-54"/>
      </g>
     </g>
    </g>
    <g id="ytick_23">
     <g id="line2d_57">
      <g>
       <use style="stroke:#000000;stroke-width:0.8;" x="492.97" xlink:href="#m40440367d8" y="296.208"/>
      </g>
     </g>
     <g id="text_56">
      <!-- 0.8 -->
      <g transform="translate(463.705625 301.526906)scale(0.14 -0.14)">
       <use xlink:href="#DejaVuSans-48"/>
       <use x="63.623047" xlink:href="#DejaVuSans-46"/>
       <use x="95.410156" xlink:href="#DejaVuSans-56"/>
      </g>
     </g>
    </g>
    <g id="ytick_24">
     <g id="line2d_58">
      <g>
       <use style="stroke:#000000;stroke-width:0.8;" x="492.97" xlink:href="#m40440367d8" y="261.346667"/>
      </g>
     </g>
     <g id="text_57">
      <!-- 1.0 -->
      <g transform="translate(463.705625 266.665573)scale(0.14 -0.14)">
       <use xlink:href="#DejaVuSans-49"/>
       <use x="63.623047" xlink:href="#DejaVuSans-46"/>
       <use x="95.410156" xlink:href="#DejaVuSans-48"/>
      </g>
     </g>
    </g>
    <g id="text_58">
     <!-- Recall Prob. (SP1) -->
     <g transform="translate(455.962188 427.808281)rotate(-90)scale(0.18 -0.18)">
      <use xlink:href="#DejaVuSans-82"/>
      <use x="64.982422" xlink:href="#DejaVuSans-101"/>
      <use x="126.505859" xlink:href="#DejaVuSans-99"/>
      <use x="181.486328" xlink:href="#DejaVuSans-97"/>
      <use x="242.765625" xlink:href="#DejaVuSans-108"/>
      <use x="270.548828" xlink:href="#DejaVuSans-108"/>
      <use x="298.332031" xlink:href="#DejaVuSans-32"/>
      <use x="330.119141" xlink:href="#DejaVuSans-80"/>
      <use x="388.671875" xlink:href="#DejaVuSans-114"/>
      <use x="427.535156" xlink:href="#DejaVuSans-111"/>
      <use x="488.716797" xlink:href="#DejaVuSans-98"/>
      <use x="552.193359" xlink:href="#DejaVuSans-46"/>
      <use x="583.980469" xlink:href="#DejaVuSans-32"/>
      <use x="615.767578" xlink:href="#DejaVuSans-40"/>
      <use x="654.78125" xlink:href="#DejaVuSans-83"/>
      <use x="718.257812" xlink:href="#DejaVuSans-80"/>
      <use x="778.560547" xlink:href="#DejaVuSans-49"/>
      <use x="842.183594" xlink:href="#DejaVuSans-41"/>
     </g>
    </g>
   </g>
   <g id="line2d_59">
    <path clip-path="url(#p1502b1a4b9)" d="M 508.951364 261.346667 
L 538.008388 302.796072 
L 567.065413 324.496351 
L 596.122438 340.410615 
L 625.179463 352.496206 
L 654.236488 357.279381 
L 683.293512 357.10249 
L 712.350537 351.598608 
L 741.407562 348.478788 
L 770.464587 336.207816 
L 799.521612 328.651164 
L 828.578636 320.80967 
" style="fill:none;stroke:#011f5b;stroke-linecap:square;stroke-width:1.5;"/>
   </g>
   <g id="line2d_60">
    <path clip-path="url(#p1502b1a4b9)" d="M 508.951364 261.346667 
L 538.008388 301.392287 
L 567.065413 319.415665 
L 596.122438 336.874326 
L 625.179463 350.825154 
L 654.236488 354.838526 
L 683.293512 354.760184 
L 712.350537 345.910965 
L 741.407562 341.578871 
L 770.464587 326.581799 
L 799.521612 315.20604 
L 828.578636 304.692613 
" style="fill:none;stroke:#990000;stroke-linecap:square;stroke-width:1.5;"/>
   </g>
   <g id="patch_14">
    <path d="M 492.97 435.653333 
L 492.97 261.346667 
" style="fill:none;stroke:#000000;stroke-linecap:square;stroke-linejoin:miter;stroke-width:0.8;"/>
   </g>
   <g id="patch_15">
    <path d="M 492.97 435.653333 
L 844.56 435.653333 
" style="fill:none;stroke:#000000;stroke-linecap:square;stroke-linejoin:miter;stroke-width:0.8;"/>
   </g>
  </g>
  <g id="axes_5">
   <g id="patch_16">
    <path d="M 70.69 657.56 
L 422.28 657.56 
L 422.28 483.253333 
L 70.69 483.253333 
z
" style="fill:#ffffff;"/>
   </g>
   <g id="PolyCollection_9">
    <defs>
     <path d="M 86.671364 -167.490134 
L 86.671364 -171.588862 
L 115.728388 -156.420349 
L 144.785413 -147.346011 
L 173.842438 -139.815648 
L 202.899463 -136.08478 
L 231.956488 -135.532634 
L 261.013512 -138.504412 
L 290.070537 -141.836201 
L 319.127562 -152.852651 
L 348.184587 -170.40832 
L 377.241612 -193.546535 
L 406.298636 -222.708932 
L 406.298636 -220.381734 
L 406.298636 -220.381734 
L 377.241612 -190.051177 
L 348.184587 -166.588251 
L 319.127562 -148.941637 
L 290.070537 -137.800035 
L 261.013512 -134.374044 
L 231.956488 -131.528253 
L 202.899463 -132.17341 
L 173.842438 -135.828968 
L 144.785413 -143.211631 
L 115.728388 -152.286586 
L 86.671364 -167.490134 
z
" id="m19c8ef108b" style="stroke:#011f5b;stroke-opacity:0.3;"/>
    </defs>
    <g clip-path="url(#p287b7b545a)">
     <use style="fill:#011f5b;fill-opacity:0.3;stroke:#011f5b;stroke-opacity:0.3;" x="0" xlink:href="#m19c8ef108b" y="720"/>
    </g>
   </g>
   <g id="PolyCollection_10">
    <defs>
     <path d="M 86.671364 -159.114503 
L 86.671364 -163.23406 
L 115.728388 -152.273573 
L 144.785413 -146.336768 
L 173.842438 -138.828053 
L 202.899463 -137.929825 
L 231.956488 -138.94203 
L 261.013512 -141.00738 
L 290.070537 -146.657813 
L 319.127562 -161.16802 
L 348.184587 -180.325695 
L 377.241612 -207.42213 
L 406.298636 -229.215594 
L 406.298636 -227.595681 
L 406.298636 -227.595681 
L 377.241612 -204.602066 
L 348.184587 -176.803994 
L 319.127562 -157.466059 
L 290.070537 -142.750763 
L 261.013512 -137.147765 
L 231.956488 -135.037435 
L 202.899463 -133.927165 
L 173.842438 -134.809313 
L 144.785413 -142.257575 
L 115.728388 -148.181839 
L 86.671364 -159.114503 
z
" id="m67577090ea" style="stroke:#990000;stroke-opacity:0.3;"/>
    </defs>
    <g clip-path="url(#p287b7b545a)">
     <use style="fill:#990000;fill-opacity:0.3;stroke:#990000;stroke-opacity:0.3;" x="0" xlink:href="#m67577090ea" y="720"/>
    </g>
   </g>
   <g id="matplotlib.axis_9">
    <g id="xtick_21">
     <g id="line2d_61">
      <g>
       <use style="stroke:#000000;stroke-width:0.8;" x="86.671364" xlink:href="#m3eb472a1d9" y="657.56"/>
      </g>
     </g>
     <g id="text_59">
      <!-- 1 -->
      <g transform="translate(82.217614 675.197813)scale(0.14 -0.14)">
       <use xlink:href="#DejaVuSans-49"/>
      </g>
     </g>
    </g>
    <g id="xtick_22">
     <g id="line2d_62">
      <g>
       <use style="stroke:#000000;stroke-width:0.8;" x="144.785413" xlink:href="#m3eb472a1d9" y="657.56"/>
      </g>
     </g>
     <g id="text_60">
      <!-- 3 -->
      <g transform="translate(140.331663 675.197813)scale(0.14 -0.14)">
       <use xlink:href="#DejaVuSans-51"/>
      </g>
     </g>
    </g>
    <g id="xtick_23">
     <g id="line2d_63">
      <g>
       <use style="stroke:#000000;stroke-width:0.8;" x="231.956488" xlink:href="#m3eb472a1d9" y="657.56"/>
      </g>
     </g>
     <g id="text_61">
      <!-- 6 -->
      <g transform="translate(227.502738 675.197813)scale(0.14 -0.14)">
       <use xlink:href="#DejaVuSans-54"/>
      </g>
     </g>
    </g>
    <g id="xtick_24">
     <g id="line2d_64">
      <g>
       <use style="stroke:#000000;stroke-width:0.8;" x="319.127562" xlink:href="#m3eb472a1d9" y="657.56"/>
      </g>
     </g>
     <g id="text_62">
      <!-- 9 -->
      <g transform="translate(314.673812 675.197813)scale(0.14 -0.14)">
       <use xlink:href="#DejaVuSans-57"/>
      </g>
     </g>
    </g>
    <g id="xtick_25">
     <g id="line2d_65">
      <g>
       <use style="stroke:#000000;stroke-width:0.8;" x="406.298636" xlink:href="#m3eb472a1d9" y="657.56"/>
      </g>
     </g>
     <g id="text_63">
      <!-- 12 -->
      <g transform="translate(397.391136 675.197813)scale(0.14 -0.14)">
       <use xlink:href="#DejaVuSans-49"/>
       <use x="63.623047" xlink:href="#DejaVuSans-50"/>
      </g>
     </g>
    </g>
    <g id="text_64">
     <!-- Serial Position -->
     <g transform="translate(183.122188 695.786563)scale(0.18 -0.18)">
      <use xlink:href="#DejaVuSans-83"/>
      <use x="63.476562" xlink:href="#DejaVuSans-101"/>
      <use x="125" xlink:href="#DejaVuSans-114"/>
      <use x="166.113281" xlink:href="#DejaVuSans-105"/>
      <use x="193.896484" xlink:href="#DejaVuSans-97"/>
      <use x="255.175781" xlink:href="#DejaVuSans-108"/>
      <use x="282.958984" xlink:href="#DejaVuSans-32"/>
      <use x="314.746094" xlink:href="#DejaVuSans-80"/>
      <use x="371.423828" xlink:href="#DejaVuSans-111"/>
      <use x="432.605469" xlink:href="#DejaVuSans-115"/>
      <use x="484.705078" xlink:href="#DejaVuSans-105"/>
      <use x="512.488281" xlink:href="#DejaVuSans-116"/>
      <use x="551.697266" xlink:href="#DejaVuSans-105"/>
      <use x="579.480469" xlink:href="#DejaVuSans-111"/>
      <use x="640.662109" xlink:href="#DejaVuSans-110"/>
     </g>
    </g>
   </g>
   <g id="matplotlib.axis_10">
    <g id="ytick_25">
     <g id="line2d_66">
      <g>
       <use style="stroke:#000000;stroke-width:0.8;" x="70.69" xlink:href="#m40440367d8" y="657.56"/>
      </g>
     </g>
     <g id="text_65">
      <!-- 0.0 -->
      <g transform="translate(41.425625 662.878906)scale(0.14 -0.14)">
       <use xlink:href="#DejaVuSans-48"/>
       <use x="63.623047" xlink:href="#DejaVuSans-46"/>
       <use x="95.410156" xlink:href="#DejaVuSans-48"/>
      </g>
     </g>
    </g>
    <g id="ytick_26">
     <g id="line2d_67">
      <g>
       <use style="stroke:#000000;stroke-width:0.8;" x="70.69" xlink:href="#m40440367d8" y="622.698667"/>
      </g>
     </g>
     <g id="text_66">
      <!-- 0.2 -->
      <g transform="translate(41.425625 628.017573)scale(0.14 -0.14)">
       <use xlink:href="#DejaVuSans-48"/>
       <use x="63.623047" xlink:href="#DejaVuSans-46"/>
       <use x="95.410156" xlink:href="#DejaVuSans-50"/>
      </g>
     </g>
    </g>
    <g id="ytick_27">
     <g id="line2d_68">
      <g>
       <use style="stroke:#000000;stroke-width:0.8;" x="70.69" xlink:href="#m40440367d8" y="587.837333"/>
      </g>
     </g>
     <g id="text_67">
      <!-- 0.4 -->
      <g transform="translate(41.425625 593.15624)scale(0.14 -0.14)">
       <use xlink:href="#DejaVuSans-48"/>
       <use x="63.623047" xlink:href="#DejaVuSans-46"/>
       <use x="95.410156" xlink:href="#DejaVuSans-52"/>
      </g>
     </g>
    </g>
    <g id="ytick_28">
     <g id="line2d_69">
      <g>
       <use style="stroke:#000000;stroke-width:0.8;" x="70.69" xlink:href="#m40440367d8" y="552.976"/>
      </g>
     </g>
     <g id="text_68">
      <!-- 0.6 -->
      <g transform="translate(41.425625 558.294906)scale(0.14 -0.14)">
       <use xlink:href="#DejaVuSans-48"/>
       <use x="63.623047" xlink:href="#DejaVuSans-46"/>
       <use x="95.410156" xlink:href="#DejaVuSans-54"/>
      </g>
     </g>
    </g>
    <g id="ytick_29">
     <g id="line2d_70">
      <g>
       <use style="stroke:#000000;stroke-width:0.8;" x="70.69" xlink:href="#m40440367d8" y="518.114667"/>
      </g>
     </g>
     <g id="text_69">
      <!-- 0.8 -->
      <g transform="translate(41.425625 523.433573)scale(0.14 -0.14)">
       <use xlink:href="#DejaVuSans-48"/>
       <use x="63.623047" xlink:href="#DejaVuSans-46"/>
       <use x="95.410156" xlink:href="#DejaVuSans-56"/>
      </g>
     </g>
    </g>
    <g id="ytick_30">
     <g id="line2d_71">
      <g>
       <use style="stroke:#000000;stroke-width:0.8;" x="70.69" xlink:href="#m40440367d8" y="483.253333"/>
      </g>
     </g>
     <g id="text_70">
      <!-- 1.0 -->
      <g transform="translate(41.425625 488.57224)scale(0.14 -0.14)">
       <use xlink:href="#DejaVuSans-49"/>
       <use x="63.623047" xlink:href="#DejaVuSans-46"/>
       <use x="95.410156" xlink:href="#DejaVuSans-48"/>
      </g>
     </g>
    </g>
    <g id="text_71">
     <!-- Recall Prob. (L4) -->
     <g transform="translate(33.682188 643.589323)rotate(-90)scale(0.18 -0.18)">
      <defs>
       <path d="M 9.8125 72.90625 
L 19.671875 72.90625 
L 19.671875 8.296875 
L 55.171875 8.296875 
L 55.171875 0 
L 9.8125 0 
z
" id="DejaVuSans-76"/>
      </defs>
      <use xlink:href="#DejaVuSans-82"/>
      <use x="64.982422" xlink:href="#DejaVuSans-101"/>
      <use x="126.505859" xlink:href="#DejaVuSans-99"/>
      <use x="181.486328" xlink:href="#DejaVuSans-97"/>
      <use x="242.765625" xlink:href="#DejaVuSans-108"/>
      <use x="270.548828" xlink:href="#DejaVuSans-108"/>
      <use x="298.332031" xlink:href="#DejaVuSans-32"/>
      <use x="330.119141" xlink:href="#DejaVuSans-80"/>
      <use x="388.671875" xlink:href="#DejaVuSans-114"/>
      <use x="427.535156" xlink:href="#DejaVuSans-111"/>
      <use x="488.716797" xlink:href="#DejaVuSans-98"/>
      <use x="552.193359" xlink:href="#DejaVuSans-46"/>
      <use x="583.980469" xlink:href="#DejaVuSans-32"/>
      <use x="615.767578" xlink:href="#DejaVuSans-40"/>
      <use x="654.78125" xlink:href="#DejaVuSans-76"/>
      <use x="710.494141" xlink:href="#DejaVuSans-52"/>
      <use x="774.117188" xlink:href="#DejaVuSans-41"/>
     </g>
    </g>
   </g>
   <g id="line2d_72">
    <path clip-path="url(#p287b7b545a)" d="M 86.671364 550.460502 
L 115.728388 565.646533 
L 144.785413 574.721179 
L 173.842438 582.177692 
L 202.899463 585.870905 
L 231.956488 586.469556 
L 261.013512 583.560772 
L 290.070537 580.181882 
L 319.127562 569.102856 
L 348.184587 551.501714 
L 377.241612 528.201144 
L 406.298636 498.454667 
" style="fill:none;stroke:#011f5b;stroke-linecap:square;stroke-width:1.5;"/>
   </g>
   <g id="line2d_73">
    <path clip-path="url(#p287b7b545a)" d="M 86.671364 558.825719 
L 115.728388 569.772294 
L 144.785413 575.702828 
L 173.842438 583.181317 
L 202.899463 584.071505 
L 231.956488 583.010267 
L 261.013512 580.922428 
L 290.070537 575.295712 
L 319.127562 560.68296 
L 348.184587 541.435156 
L 377.241612 513.987902 
L 406.298636 491.594362 
" style="fill:none;stroke:#990000;stroke-linecap:square;stroke-width:1.5;"/>
   </g>
   <g id="patch_17">
    <path d="M 70.69 657.56 
L 70.69 483.253333 
" style="fill:none;stroke:#000000;stroke-linecap:square;stroke-linejoin:miter;stroke-width:0.8;"/>
   </g>
   <g id="patch_18">
    <path d="M 70.69 657.56 
L 422.28 657.56 
" style="fill:none;stroke:#000000;stroke-linecap:square;stroke-linejoin:miter;stroke-width:0.8;"/>
   </g>
  </g>
  <g id="axes_6">
   <g id="patch_19">
    <path d="M 492.97 657.56 
L 844.56 657.56 
L 844.56 483.253333 
L 492.97 483.253333 
z
" style="fill:#ffffff;"/>
   </g>
   <g id="PolyCollection_11">
    <defs>
     <path d="M 508.951364 -160.321711 
L 508.951364 -160.975264 
L 538.008388 -154.731162 
L 567.065413 -143.928451 
L 596.122438 -134.632261 
L 625.179463 -131.244147 
L 654.236488 -128.238857 
L 683.293512 -133.565294 
L 712.350537 -140.630898 
L 741.407562 -158.512893 
L 770.464587 -176.667524 
L 799.521612 -195.555909 
L 828.578636 -212.947151 
L 828.578636 -212.478737 
L 828.578636 -212.478737 
L 799.521612 -194.973288 
L 770.464587 -176.018976 
L 741.407562 -157.839355 
L 712.350537 -139.968815 
L 683.293512 -132.910478 
L 654.236488 -127.590628 
L 625.179463 -130.583358 
L 596.122438 -133.987205 
L 567.065413 -143.279339 
L 538.008388 -154.079241 
L 508.951364 -160.321711 
z
" id="med127d2b11" style="stroke:#011f5b;stroke-opacity:0.3;"/>
    </defs>
    <g clip-path="url(#p5352a4646b)">
     <use style="fill:#011f5b;fill-opacity:0.3;stroke:#011f5b;stroke-opacity:0.3;" x="0" xlink:href="#med127d2b11" y="720"/>
    </g>
   </g>
   <g id="PolyCollection_12">
    <defs>
     <path d="M 508.951364 -158.503115 
L 508.951364 -159.069205 
L 538.008388 -154.111774 
L 567.065413 -143.968864 
L 596.122438 -135.225162 
L 625.179463 -130.909715 
L 654.236488 -128.14331 
L 683.293512 -135.599452 
L 712.350537 -145.304236 
L 741.407562 -164.249282 
L 770.464587 -185.977223 
L 799.521612 -206.81362 
L 828.578636 -224.620278 
L 828.578636 -224.320059 
L 828.578636 -224.320059 
L 799.521612 -206.373989 
L 770.464587 -185.443319 
L 741.407562 -163.682032 
L 712.350537 -144.74022 
L 683.293512 -135.036614 
L 654.236488 -127.579684 
L 625.179463 -130.347294 
L 596.122438 -134.664999 
L 567.065413 -143.409332 
L 538.008388 -153.553195 
L 508.951364 -158.503115 
z
" id="mbcbd08ae54" style="stroke:#990000;stroke-opacity:0.3;"/>
    </defs>
    <g clip-path="url(#p5352a4646b)">
     <use style="fill:#990000;fill-opacity:0.3;stroke:#990000;stroke-opacity:0.3;" x="0" xlink:href="#mbcbd08ae54" y="720"/>
    </g>
   </g>
   <g id="matplotlib.axis_11">
    <g id="xtick_26">
     <g id="line2d_74">
      <g>
       <use style="stroke:#000000;stroke-width:0.8;" x="508.951364" xlink:href="#m3eb472a1d9" y="657.56"/>
      </g>
     </g>
     <g id="text_72">
      <!-- 1 -->
      <g transform="translate(504.497614 675.197813)scale(0.14 -0.14)">
       <use xlink:href="#DejaVuSans-49"/>
      </g>
     </g>
    </g>
    <g id="xtick_27">
     <g id="line2d_75">
      <g>
       <use style="stroke:#000000;stroke-width:0.8;" x="567.065413" xlink:href="#m3eb472a1d9" y="657.56"/>
      </g>
     </g>
     <g id="text_73">
      <!-- 3 -->
      <g transform="translate(562.611663 675.197813)scale(0.14 -0.14)">
       <use xlink:href="#DejaVuSans-51"/>
      </g>
     </g>
    </g>
    <g id="xtick_28">
     <g id="line2d_76">
      <g>
       <use style="stroke:#000000;stroke-width:0.8;" x="654.236488" xlink:href="#m3eb472a1d9" y="657.56"/>
      </g>
     </g>
     <g id="text_74">
      <!-- 6 -->
      <g transform="translate(649.782738 675.197813)scale(0.14 -0.14)">
       <use xlink:href="#DejaVuSans-54"/>
      </g>
     </g>
    </g>
    <g id="xtick_29">
     <g id="line2d_77">
      <g>
       <use style="stroke:#000000;stroke-width:0.8;" x="741.407562" xlink:href="#m3eb472a1d9" y="657.56"/>
      </g>
     </g>
     <g id="text_75">
      <!-- 9 -->
      <g transform="translate(736.953812 675.197813)scale(0.14 -0.14)">
       <use xlink:href="#DejaVuSans-57"/>
      </g>
     </g>
    </g>
    <g id="xtick_30">
     <g id="line2d_78">
      <g>
       <use style="stroke:#000000;stroke-width:0.8;" x="828.578636" xlink:href="#m3eb472a1d9" y="657.56"/>
      </g>
     </g>
     <g id="text_76">
      <!-- 12 -->
      <g transform="translate(819.671136 675.197813)scale(0.14 -0.14)">
       <use xlink:href="#DejaVuSans-49"/>
       <use x="63.623047" xlink:href="#DejaVuSans-50"/>
      </g>
     </g>
    </g>
    <g id="text_77">
     <!-- Serial Position -->
     <g transform="translate(605.402188 695.786563)scale(0.18 -0.18)">
      <use xlink:href="#DejaVuSans-83"/>
      <use x="63.476562" xlink:href="#DejaVuSans-101"/>
      <use x="125" xlink:href="#DejaVuSans-114"/>
      <use x="166.113281" xlink:href="#DejaVuSans-105"/>
      <use x="193.896484" xlink:href="#DejaVuSans-97"/>
      <use x="255.175781" xlink:href="#DejaVuSans-108"/>
      <use x="282.958984" xlink:href="#DejaVuSans-32"/>
      <use x="314.746094" xlink:href="#DejaVuSans-80"/>
      <use x="371.423828" xlink:href="#DejaVuSans-111"/>
      <use x="432.605469" xlink:href="#DejaVuSans-115"/>
      <use x="484.705078" xlink:href="#DejaVuSans-105"/>
      <use x="512.488281" xlink:href="#DejaVuSans-116"/>
      <use x="551.697266" xlink:href="#DejaVuSans-105"/>
      <use x="579.480469" xlink:href="#DejaVuSans-111"/>
      <use x="640.662109" xlink:href="#DejaVuSans-110"/>
     </g>
    </g>
   </g>
   <g id="matplotlib.axis_12">
    <g id="ytick_31">
     <g id="line2d_79">
      <g>
       <use style="stroke:#000000;stroke-width:0.8;" x="492.97" xlink:href="#m40440367d8" y="657.56"/>
      </g>
     </g>
     <g id="text_78">
      <!-- 0.0 -->
      <g transform="translate(463.705625 662.878906)scale(0.14 -0.14)">
       <use xlink:href="#DejaVuSans-48"/>
       <use x="63.623047" xlink:href="#DejaVuSans-46"/>
       <use x="95.410156" xlink:href="#DejaVuSans-48"/>
      </g>
     </g>
    </g>
    <g id="ytick_32">
     <g id="line2d_80">
      <g>
       <use style="stroke:#000000;stroke-width:0.8;" x="492.97" xlink:href="#m40440367d8" y="622.698667"/>
      </g>
     </g>
     <g id="text_79">
      <!-- 0.2 -->
      <g transform="translate(463.705625 628.017573)scale(0.14 -0.14)">
       <use xlink:href="#DejaVuSans-48"/>
       <use x="63.623047" xlink:href="#DejaVuSans-46"/>
       <use x="95.410156" xlink:href="#DejaVuSans-50"/>
      </g>
     </g>
    </g>
    <g id="ytick_33">
     <g id="line2d_81">
      <g>
       <use style="stroke:#000000;stroke-width:0.8;" x="492.97" xlink:href="#m40440367d8" y="587.837333"/>
      </g>
     </g>
     <g id="text_80">
      <!-- 0.4 -->
      <g transform="translate(463.705625 593.15624)scale(0.14 -0.14)">
       <use xlink:href="#DejaVuSans-48"/>
       <use x="63.623047" xlink:href="#DejaVuSans-46"/>
       <use x="95.410156" xlink:href="#DejaVuSans-52"/>
      </g>
     </g>
    </g>
    <g id="ytick_34">
     <g id="line2d_82">
      <g>
       <use style="stroke:#000000;stroke-width:0.8;" x="492.97" xlink:href="#m40440367d8" y="552.976"/>
      </g>
     </g>
     <g id="text_81">
      <!-- 0.6 -->
      <g transform="translate(463.705625 558.294906)scale(0.14 -0.14)">
       <use xlink:href="#DejaVuSans-48"/>
       <use x="63.623047" xlink:href="#DejaVuSans-46"/>
       <use x="95.410156" xlink:href="#DejaVuSans-54"/>
      </g>
     </g>
    </g>
    <g id="ytick_35">
     <g id="line2d_83">
      <g>
       <use style="stroke:#000000;stroke-width:0.8;" x="492.97" xlink:href="#m40440367d8" y="518.114667"/>
      </g>
     </g>
     <g id="text_82">
      <!-- 0.8 -->
      <g transform="translate(463.705625 523.433573)scale(0.14 -0.14)">
       <use xlink:href="#DejaVuSans-48"/>
       <use x="63.623047" xlink:href="#DejaVuSans-46"/>
       <use x="95.410156" xlink:href="#DejaVuSans-56"/>
      </g>
     </g>
    </g>
    <g id="ytick_36">
     <g id="line2d_84">
      <g>
       <use style="stroke:#000000;stroke-width:0.8;" x="492.97" xlink:href="#m40440367d8" y="483.253333"/>
      </g>
     </g>
     <g id="text_83">
      <!-- 1.0 -->
      <g transform="translate(463.705625 488.57224)scale(0.14 -0.14)">
       <use xlink:href="#DejaVuSans-49"/>
       <use x="63.623047" xlink:href="#DejaVuSans-46"/>
       <use x="95.410156" xlink:href="#DejaVuSans-48"/>
      </g>
     </g>
    </g>
    <g id="text_84">
     <!-- Recall Prob. (L4) -->
     <g transform="translate(455.962188 643.589323)rotate(-90)scale(0.18 -0.18)">
      <use xlink:href="#DejaVuSans-82"/>
      <use x="64.982422" xlink:href="#DejaVuSans-101"/>
      <use x="126.505859" xlink:href="#DejaVuSans-99"/>
      <use x="181.486328" xlink:href="#DejaVuSans-97"/>
      <use x="242.765625" xlink:href="#DejaVuSans-108"/>
      <use x="270.548828" xlink:href="#DejaVuSans-108"/>
      <use x="298.332031" xlink:href="#DejaVuSans-32"/>
      <use x="330.119141" xlink:href="#DejaVuSans-80"/>
      <use x="388.671875" xlink:href="#DejaVuSans-114"/>
      <use x="427.535156" xlink:href="#DejaVuSans-111"/>
      <use x="488.716797" xlink:href="#DejaVuSans-98"/>
      <use x="552.193359" xlink:href="#DejaVuSans-46"/>
      <use x="583.980469" xlink:href="#DejaVuSans-32"/>
      <use x="615.767578" xlink:href="#DejaVuSans-40"/>
      <use x="654.78125" xlink:href="#DejaVuSans-76"/>
      <use x="710.494141" xlink:href="#DejaVuSans-52"/>
      <use x="774.117188" xlink:href="#DejaVuSans-41"/>
     </g>
    </g>
   </g>
   <g id="line2d_85">
    <path clip-path="url(#p5352a4646b)" d="M 508.951364 559.351513 
L 538.008388 565.594798 
L 567.065413 576.396105 
L 596.122438 585.690267 
L 625.179463 589.086247 
L 654.236488 592.085258 
L 683.293512 586.762114 
L 712.350537 579.700143 
L 741.407562 561.823876 
L 770.464587 543.65675 
L 799.521612 524.735401 
L 828.578636 507.287056 
" style="fill:none;stroke:#011f5b;stroke-linecap:square;stroke-width:1.5;"/>
   </g>
   <g id="line2d_86">
    <path clip-path="url(#p5352a4646b)" d="M 508.951364 561.21384 
L 538.008388 566.167515 
L 567.065413 576.310902 
L 596.122438 585.05492 
L 625.179463 589.371495 
L 654.236488 592.138503 
L 683.293512 584.681967 
L 712.350537 574.977772 
L 741.407562 556.034343 
L 770.464587 534.289729 
L 799.521612 513.406195 
L 828.578636 495.529831 
" style="fill:none;stroke:#990000;stroke-linecap:square;stroke-width:1.5;"/>
   </g>
   <g id="patch_20">
    <path d="M 492.97 657.56 
L 492.97 483.253333 
" style="fill:none;stroke:#000000;stroke-linecap:square;stroke-linejoin:miter;stroke-width:0.8;"/>
   </g>
   <g id="patch_21">
    <path d="M 492.97 657.56 
L 844.56 657.56 
" style="fill:none;stroke:#000000;stroke-linecap:square;stroke-linejoin:miter;stroke-width:0.8;"/>
   </g>
  </g>
 </g>
 <defs>
  <clipPath id="p76c65b4f27">
   <rect height="174.306667" width="351.59" x="70.69" y="39.44"/>
  </clipPath>
  <clipPath id="p6994914be4">
   <rect height="174.306667" width="351.59" x="492.97" y="39.44"/>
  </clipPath>
  <clipPath id="pdef0aa2af1">
   <rect height="174.306667" width="351.59" x="70.69" y="261.346667"/>
  </clipPath>
  <clipPath id="p1502b1a4b9">
   <rect height="174.306667" width="351.59" x="492.97" y="261.346667"/>
  </clipPath>
  <clipPath id="p287b7b545a">
   <rect height="174.306667" width="351.59" x="70.69" y="483.253333"/>
  </clipPath>
  <clipPath id="p5352a4646b">
   <rect height="174.306667" width="351.59" x="492.97" y="483.253333"/>
  </clipPath>
 </defs>
</svg>
